<svg xmlns="http://www.w3.org/2000/svg" xmlns:xlink="http://www.w3.org/1999/xlink" fill="none" version="1.1" width="30" height="30" viewBox="0 0 30 30"><defs><linearGradient x1="0.2088623046875" y1="0" x2="0.3850807523622622" y2="0.9706480228954052" id="master_svg0_17_6124"><stop offset="0%" stop-color="#FFFFFF" stop-opacity="1"/><stop offset="100%" stop-color="#FFFFFF" stop-opacity="0.6000000238418579"/></linearGradient><filter id="master_svg1_58_6398" filterUnits="objectBoundingBox" color-interpolation-filters="sRGB" x="0" y="0" width="1" height="1"><feFlood flood-opacity="0" result="BackgroundImageFix"/><feBlend mode="normal" in="SourceGraphic" in2="BackgroundImageFix" result="shape"/><feColorMatrix in="SourceAlpha" type="matrix" result="hardAlpha" values="0 0 0 0 0 0 0 0 0 0 0 0 0 0 0 0 0 0 127 0"/><feOffset dy="0.1822916716337204" dx="0"/><feGaussianBlur stdDeviation="0.25"/><feComposite in2="hardAlpha" operator="arithmetic" k2="-1" k3="1"/><feColorMatrix type="matrix" values="0 0 0 0 1 0 0 0 0 1 0 0 0 0 1 0 0 0 0.5 0"/><feBlend mode="normal" in2="shape" result="effect1_innerShadow"/></filter><linearGradient x1="0.7476187944412231" y1="-0.5487476587295532" x2="0.09398792896971254" y2="0.8037894747506446" id="master_svg2_17_6119"><stop offset="0%" stop-color="#76B3FF" stop-opacity="1"/><stop offset="98.09518456459045%" stop-color="#327EDC" stop-opacity="1"/></linearGradient></defs><g><g style="opacity:0.09000000357627869;"></g><g><g><path d="M5,14.21216L5,6.475799C5,6.213036,5.149238,6,5.333333,6L12.80805,6C12.9277,6,13.03817,6.0915846,13.09751,6.239882L13.66705,7.66331C13.72639,7.81161,13.83686,7.90306,13.95651,7.90306L24.6667,7.90306C24.8508,7.90306,25,8.1161,25,8.37886L25,14.21929C25,14.25871,24.9966,14.297,24.9903,14.33363C24.9353,14.65206,24.5051,14.69901,24.1821,14.70684L5.817933,15.15201C5.494879,15.15984,5.0647189,15.12072,5.00968757,14.80229C5.00335787,14.76567,5,14.72737,5,14.68795L5,14.21216Z" fill-rule="evenodd" fill="#327EDC" fill-opacity="1"/></g><g><path d="M6.333335041999817,14.081682056350708L6.333335041999817,10.402464056350707C6.333335041999817,10.063802056350708,6.482573041999817,9.789262056350708,6.6666680419998166,9.789262056350708L23.333335041999817,9.789262056350708C23.517435041999818,9.789262056350708,23.666635041999818,10.063802056350708,23.666635041999818,10.402464056350707L23.666635041999818,14.081682056350708C23.666635041999818,14.420342056350709,23.517435041999818,14.694882056350707,23.333335041999817,14.694882056350707L6.6666680419998166,14.694882056350707C6.482573041999817,14.694882056350707,6.333335041999817,14.420342056350709,6.333335041999817,14.081682056350708Z" fill="url(#master_svg0_17_6124)" fill-opacity="1"/></g><g filter="url(#master_svg1_58_6398)"><path d="M5,23.697240615844727C5,23.864440615844728,5.149238,24.000040615844725,5.333333,24.000040615844725L24.6667,24.000040615844725C24.8508,24.000040615844725,25,23.864440615844728,25,23.697240615844727L25,13.496240615844727C25,12.943955615844727,24.5523,12.496240615844727,24,12.496240615844727L6,12.496240615844727C5.447715,12.496240615844727,5,12.943955615844727,5,13.496240615844727L5,23.697240615844727Z" fill="url(#master_svg2_17_6119)" fill-opacity="1"/></g></g></g></svg>