<svg width="36" height="36" viewBox="0 0 36 36" fill="none" xmlns="http://www.w3.org/2000/svg">
<mask id="mask0_1672_20781" style="mask-type:luminance" maskUnits="userSpaceOnUse" x="0" y="0" width="36" height="36">
<path d="M36 0H0V36H36V0Z" fill="white"/>
</mask>
<g mask="url(#mask0_1672_20781)">
<path fill-rule="evenodd" clip-rule="evenodd" d="M3.23438 16.0662V6.28012C3.23438 5.08718 4.20144 4.12012 5.39438 4.12012H13.8931C14.4264 4.12012 14.9161 4.41493 15.1657 4.8863L15.7943 6.07362C16.0439 6.54499 16.5336 6.8398 17.067 6.8398H30.6013C31.7937 6.8398 32.7606 7.79044 32.7613 8.98286C32.7623 10.687 32.7638 13.0516 32.7656 16.0766C32.7656 16.4589 32.5453 16.7688 32.2734 16.7688L3.72656 17.4505C3.45474 17.4505 3.23438 17.1406 3.23438 16.7584V16.0662Z" fill="#E3940C"/>
<path d="M5.20334 15.876V11.0718C5.20334 10.2765 5.84805 9.63184 6.64334 9.63184H29.3571C30.1524 9.63184 30.7971 10.2765 30.7971 11.0718V15.876C30.7971 16.3686 30.5767 16.768 30.3049 16.768H5.69553C5.4237 16.768 5.20334 16.3686 5.20334 15.876Z" fill="#FBFBFB"/>
<path d="M5.39948 30.239H30.6009C31.7936 30.239 32.7605 29.2724 32.7609 28.0798L32.7658 13.5693H3.23459L3.23949 28.0798C3.23989 29.2724 4.20683 30.239 5.39948 30.239Z" fill="#FFC60A"/>
</g>
</svg>
