<svg xmlns="http://www.w3.org/2000/svg" xmlns:xlink="http://www.w3.org/1999/xlink" fill="none" version="1.1" width="22" height="22" viewBox="0 0 22 22"><defs><clipPath id="master_svg0_350_26779"><rect x="0" y="0" width="22" height="22" rx="0"/></clipPath></defs><g clip-path="url(#master_svg0_350_26779)"><g><g><g><g><path d="M17.8467560546875,20.6799462890625C17.8467560546875,20.6799462890625,4.1522660546875,20.6799462890625,4.1522660546875,20.6799462890625C3.5596960546875,20.6799462890625,3.0799560546875,20.2168462890625,3.0799560546875,19.6457462890625C3.0799560546875,19.6457462890625,3.0799560546875,2.3545962890625,3.0799560546875,2.3545962890625C3.0799560546875,1.7830782890624999,3.5596960546875,1.3199462890625,4.1522660546875,1.3199462890625C4.1522660546875,1.3199462890625,14.0799560546875,1.3199462890625,14.0799560546875,1.3199462890625C14.0799560546875,1.3199462890625,18.9199560546875,5.7199462890625,18.9199560546875,5.7199462890625C18.9199560546875,5.7199462890625,18.9199560546875,19.6457462890625,18.9199560546875,19.6457462890625C18.9199560546875,20.2168462890625,18.4395560546875,20.6799462890625,17.8467560546875,20.6799462890625C17.8467560546875,20.6799462890625,17.8467560546875,20.6799462890625,17.8467560546875,20.6799462890625Z" fill="#EA615E" fill-opacity="1"/></g></g><g><g><path d="M18.9199560546875,5.7199462890625C18.9199560546875,5.7199462890625,14.0799560546875,5.7199462890625,14.0799560546875,5.7199462890625C14.0799560546875,5.7199462890625,14.0799560546875,1.3199462890625,14.0799560546875,1.3199462890625C14.0799560546875,1.3199462890625,18.9199560546875,5.7199462890625,18.9199560546875,5.7199462890625C18.9199560546875,5.7199462890625,18.9199560546875,5.7199462890625,18.9199560546875,5.7199462890625Z" fill="#FE8B88" fill-opacity="1"/></g></g></g><g><path d="M14.263790468749999,8.7611809375C14.18601046875,8.7918509375,14.10324046875,8.8060509375,14.02015046875,8.8034709375C13.76526046875,8.8034709375,13.45040046875,8.6859909375,13.010600468749999,8.4907509375C13.16459046875,8.479450937500001,13.31890046875,8.473310937499999,13.47352046875,8.4723409375C13.72965046875,8.4723409375,13.804620468749999,8.4723409375,14.05389046875,8.5368909375C14.303150468750001,8.6030509375,14.308460468749999,8.7337609375,14.265670468749999,8.7611809375M9.83233046875,8.8018509375C9.93041046875,8.6233809375,10.03161046875,8.433940937500001,10.13500046875,8.2351309375C10.38770046875,7.7478209375,10.54638046875,7.3670109375,10.66727046875,7.0523509375C10.91653046875,7.5270709375,11.26200046875,7.9427509375,11.67869046875,8.2774309375C11.05022046875,8.3971609375,10.43237046875,8.5736909375,9.83233046875,8.8018509375ZM10.65134046875,4.1881409375C10.793770468750001,4.1881409375,10.872180468749999,4.5505609375,10.87936046875,4.8871559375C10.892170468749999,5.1479409375,10.83407046875,5.4074009375,10.71194046875,5.6358909375C10.63353046875,5.3302709375,10.59417046875,5.0156109375,10.59449046875,4.6996579375C10.59449046875,4.6996579375,10.58918046875,4.1881409375,10.65321046875,4.1881409375M7.90412246875,10.6633609375C7.98252446875,10.4406709375,8.29769746875,10.0011209375,8.75874046875,9.6128709375C8.81684046875,9.5625209375,8.87338046875,9.5095909375,8.92773046875,9.454730937499999C8.44356946875,10.2496109375,8.11590346875,10.5623309375,7.90412246875,10.661410937500001M14.40092046875,8.2977509375C14.258480468750001,8.1541409375,13.94706046875,8.0805509375,13.47508046875,8.0731309375C13.10118046875,8.0731309375,12.727290468749999,8.1028309375,12.358700468750001,8.158000937499999C12.17410046875,8.0560209375,12.00074046875,7.9334009375,11.842370468750001,7.7917109374999995C11.42381046875,7.3799209375,11.103640468750001,6.8729009375,10.907790468750001,6.3110309375C10.907790468750001,6.3110309375,10.94339046875,6.1619409375,10.94339046875,6.1619409375C10.94339046875,6.1619409375,11.16580046875,4.8652229375000005,11.107070468749999,4.4272789375C11.10239046875,4.3843569375,11.09208046875,4.3424029375,11.07677046875,4.3020609375C11.07677046875,4.3020609375,11.058970468750001,4.2507439375,11.058970468750001,4.2507439375C10.998680468749999,4.1090759375,10.87936046875,3.9564140075,10.69226046875,3.9638303175C10.69226046875,3.9638303175,10.58199046875,3.9599609375,10.58199046875,3.9599609375C10.37552046875,3.9599609375,10.20435046875,4.0703399375,10.15999046875,4.2323519375C10.02287046875,4.7435589375,10.16530046875,5.5071209375,10.41644046875,6.4950009375C10.41644046875,6.4950009375,10.352100468749999,6.6566809375,10.352100468749999,6.6566809375C10.16655046875,7.101070937499999,9.963210468749999,7.5374009375,9.74330046875,7.9647009375C9.74330046875,7.9647009375,9.71831046875,8.016330937500001,9.71831046875,8.016330937500001C9.50653046875,8.4394309375,9.31599046875,8.7979809375,9.14138046875,9.1016609375C9.14138046875,9.1016609375,8.96334046875,9.1955809375,8.96334046875,9.1955809375C8.94928046875,9.2046209375,8.64286046875,9.370180937499999,8.571640468750001,9.4163309375C7.96097246875,9.785850937500001,7.55521496875,10.2108909375,7.48743281875,10.5455609375C7.46775376875,10.6543109375,7.48212257875,10.7901809375,7.59082446875,10.8547409375C7.59082446875,10.8547409375,7.76512146875,10.941220937499999,7.76512146875,10.941220937499999C7.83790146875,10.9799509375,7.91849146875,11.0002709375,8.00032946875,10.9999609375C8.43451146875,10.9999609375,8.94022046875,10.4480909375,9.63460046875,9.2081809375C10.45736046875,8.9361109375,11.299490468750001,8.729880937499999,12.15411046875,8.5940209375C12.76665046875,8.9451409375,13.51600046875,9.1881509375,13.99141046875,9.1881509375C14.062630468750001,9.1897709375,14.133850468750001,9.1826609375,14.20507046875,9.1658909375C14.29253046875,9.1445909375,14.36906046875,9.0910109375,14.42060046875,9.0151809375C14.51024046875,8.8515509375,14.540540468749999,8.6605009375,14.50618046875,8.476220937499999C14.48963046875,8.4074909375,14.454330468750001,8.3448709375,14.40467046875,8.2958209375" fill="#FFFFFF" fill-opacity="1"/></g><g><path d="M3.0799560546875,12.760009765625C3.0799560546875,12.760009765625,18.9199560546875,12.771514565625,18.9199560546875,12.771514565625C18.9199560546875,12.771514565625,18.9199560546875,18.040009765625,18.9199560546875,18.040009765625C18.9199560546875,18.040009765625,3.0799560546875,18.028509765625,3.0799560546875,18.028509765625C3.0799560546875,18.028509765625,3.0799560546875,12.760009765625,3.0799560546875,12.760009765625C3.0799560546875,12.760009765625,3.0799560546875,12.760009765625,3.0799560546875,12.760009765625Z" fill="#B14A48" fill-opacity="1"/></g><g><g><path d="M7.0871955859375,15.8443646484375C7.0871955859375,15.8443646484375,7.0871955859375,17.1600146484375,7.0871955859375,17.1600146484375C7.0871955859375,17.1600146484375,6.5999755859375,17.1600146484375,6.5999755859375,17.1600146484375C6.5999755859375,17.1600146484375,6.5999755859375,13.6400146484375,6.5999755859375,13.6400146484375C6.5999755859375,13.6400146484375,7.6720155859375,13.6400146484375,7.6720155859375,13.6400146484375C8.0799855859375,13.6400146484375,8.3963955859375,13.7317979484375,8.6214755859375,13.9148556484375C8.8463055859375,14.0984156484375,8.958995585937501,14.3602276484375,8.958995585937501,14.7012846484375C8.958995585937501,15.0466946484375,8.827385585937499,15.3266346484375,8.5641855859375,15.5408946484375C8.300965585937501,15.7553846484375,7.9716955859375,15.8563846484375,7.5771525859375,15.8443646484375C7.5771525859375,15.8443646484375,7.0871955859375,15.8443646484375,7.0871955859375,15.8443646484375C7.0871955859375,15.8443646484375,7.0871955859375,15.8443646484375,7.0871955859375,15.8443646484375ZM7.0871955859375,14.0401286484375C7.0871955859375,14.0401286484375,7.0871955859375,15.4442446484375,7.0871955859375,15.4442446484375C7.0871955859375,15.4442446484375,7.5379465859375,15.4442446484375,7.5379465859375,15.4442446484375C7.8354155859375005,15.4442446484375,8.061335585937499,15.3818646484375,8.2157055859375,15.2568446484375C8.3697955859375,15.131824648437501,8.4471155859375,14.9526046484375,8.4471155859375,14.7194346484375C8.4471155859375,14.2664006484375,8.1594955859375,14.0401286484375,7.5842735859375,14.0401286484375C7.5842735859375,14.0401286484375,7.0871955859375,14.0401286484375,7.0871955859375,14.0401286484375C7.0871955859375,14.0401286484375,7.0871955859375,14.0401286484375,7.0871955859375,14.0401286484375Z" fill="#FFFFFF" fill-opacity="1"/></g><g><path d="M9.653564453125,17.1600146484375C9.653564453125,17.1600146484375,9.653564453125,13.6400146484375,9.653564453125,13.6400146484375C9.653564453125,13.6400146484375,10.730524453125,13.6400146484375,10.730524453125,13.6400146484375C11.302474453125,13.6400146484375,11.778174453125,13.7954546484375,12.157624453124999,14.1058356484375C12.536814453125,14.4164706484375,12.726554453125,14.8332046484375,12.726554453125,15.3557846484375C12.726554453125,15.9011246484375,12.536814453125,16.3383046484375,12.157624453124999,16.6668446484375C11.778174453125,16.9956246484375,11.289584453125,17.1600146484375,10.691604453125,17.1600146484375C10.691604453125,17.1600146484375,9.653564453125,17.1600146484375,9.653564453125,17.1600146484375C9.653564453125,17.1600146484375,9.653564453125,17.1600146484375,9.653564453125,17.1600146484375ZM10.140770453125,14.0444766484375C10.140770453125,14.0444766484375,10.140770453125,16.7578546484375,10.140770453125,16.7578546484375C10.140770453125,16.7578546484375,10.689144453125,16.7578546484375,10.689144453125,16.7578546484375C11.168404453125,16.7578546484375,11.542364453125,16.6359046484375,11.811354453125,16.3920046484375C12.080304453125,16.1480946484375,12.214944453125,15.8065246484375,12.214944453125,15.3670346484375C12.214944453125,14.9278046484375,12.076744453125,14.5974886484375,11.800354453125,14.3763316484375C11.524284453125,14.1551846484375,11.161004453124999,14.0444766484375,10.711074453125,14.0444766484375C10.711074453125,14.0444766484375,10.140770453125,14.0444766484375,10.140770453125,14.0444766484375C10.140770453125,14.0444766484375,10.140770453125,14.0444766484375,10.140770453125,14.0444766484375Z" fill="#FFFFFF" fill-opacity="1"/></g><g><path d="M15.400052265625,14.0444766484375C15.400052265625,14.0444766484375,13.942528265625,14.0444766484375,13.942528265625,14.0444766484375C13.942528265625,14.0444766484375,13.942528265625,15.2215646484375,13.942528265625,15.2215646484375C13.942528265625,15.2215646484375,15.292852265625001,15.2215646484375,15.292852265625001,15.2215646484375C15.292852265625001,15.2215646484375,15.292852265625001,15.6216846484375,15.292852265625001,15.6216846484375C15.292852265625001,15.6216846484375,13.942528265625,15.6216846484375,13.942528265625,15.6216846484375C13.942528265625,15.6216846484375,13.942528265625,17.1600146484375,13.942528265625,17.1600146484375C13.942528265625,17.1600146484375,13.455322265625,17.1600146484375,13.455322265625,17.1600146484375C13.455322265625,17.1600146484375,13.455322265625,13.6400146484375,13.455322265625,13.6400146484375C13.455322265625,13.6400146484375,15.400052265625,13.6400146484375,15.400052265625,13.6400146484375C15.400052265625,13.6400146484375,15.400052265625,14.0444766484375,15.400052265625,14.0444766484375C15.400052265625,14.0444766484375,15.400052265625,14.0444766484375,15.400052265625,14.0444766484375Z" fill="#FFFFFF" fill-opacity="1"/></g></g></g></g></svg>