<svg xmlns="http://www.w3.org/2000/svg" xmlns:xlink="http://www.w3.org/1999/xlink" fill="none" version="1.1" width="22" height="22" viewBox="0 0 22 22"><defs><clipPath id="master_svg0_350_26781"><rect x="0" y="0" width="22" height="22" rx="0"/></clipPath><filter id="master_svg1_350_26781/350_23657" filterUnits="objectBoundingBox" color-interpolation-filters="sRGB" x="-0.39160342507228224" y="-0.2395842170641803" width="1.7832068501445646" height="1.7187526674201923"><feFlood flood-opacity="0" result="BackgroundImageFix"/><feColorMatrix in="SourceAlpha" type="matrix" values="0 0 0 0 0 0 0 0 0 0 0 0 0 0 0 0 0 0 127 0"/><feOffset dy="0.8799999952316284" dx="0"/><feGaussianBlur stdDeviation="0.6599999666213989"/><feColorMatrix type="matrix" values="0 0 0 0 0.8373017311096191 0 0 0 0 0.36940184235572815 0 0 0 0 0.19180479645729065 0 0 0 1 0"/><feBlend mode="normal" in2="BackgroundImageFix" result="effect1_dropShadow"/><feBlend mode="normal" in="SourceGraphic" in2="effect1_dropShadow" result="shape"/></filter><filter id="master_svg2_350_26781/350_23720" filterUnits="objectBoundingBox" color-interpolation-filters="sRGB" x="-0.7832068501445645" y="-0.5989605507742765" width="2.566413700289129" height="2.4375053348403846"><feFlood flood-opacity="0" result="BackgroundImageFix"/><feColorMatrix in="SourceAlpha" type="matrix" values="0 0 0 0 0 0 0 0 0 0 0 0 0 0 0 0 0 0 127 0"/><feOffset dy="0.8799999952316284" dx="0"/><feGaussianBlur stdDeviation="1.3199999332427979"/><feColorMatrix type="matrix" values="0 0 0 0 0.8588235378265381 0 0 0 0 0.40784314274787903 0 0 0 0 0.16862745583057404 0 0 0 1 0"/><feBlend mode="normal" in2="BackgroundImageFix" result="effect1_dropShadow"/><feBlend mode="normal" in="SourceGraphic" in2="effect1_dropShadow" result="shape"/></filter></defs><g clip-path="url(#master_svg0_350_26781)"><g><g><g><g><path d="M17.8467560546875,20.6799462890625C17.8467560546875,20.6799462890625,4.1522660546875,20.6799462890625,4.1522660546875,20.6799462890625C3.5596960546875,20.6799462890625,3.0799560546875,20.2168462890625,3.0799560546875,19.6457462890625C3.0799560546875,19.6457462890625,3.0799560546875,2.3545962890625,3.0799560546875,2.3545962890625C3.0799560546875,1.7830782890624999,3.5596960546875,1.3199462890625,4.1522660546875,1.3199462890625C4.1522660546875,1.3199462890625,14.0799560546875,1.3199462890625,14.0799560546875,1.3199462890625C14.0799560546875,1.3199462890625,18.9199560546875,5.7199462890625,18.9199560546875,5.7199462890625C18.9199560546875,5.7199462890625,18.9199560546875,19.6457462890625,18.9199560546875,19.6457462890625C18.9199560546875,20.2168462890625,18.4395560546875,20.6799462890625,17.8467560546875,20.6799462890625C17.8467560546875,20.6799462890625,17.8467560546875,20.6799462890625,17.8467560546875,20.6799462890625Z" fill="#FC733F" fill-opacity="1"/></g></g><g><g><path d="M18.9199560546875,5.7199462890625C18.9199560546875,5.7199462890625,14.0799560546875,5.7199462890625,14.0799560546875,5.7199462890625C14.0799560546875,5.7199462890625,14.0799560546875,1.3199462890625,14.0799560546875,1.3199462890625C14.0799560546875,1.3199462890625,18.9199560546875,5.7199462890625,18.9199560546875,5.7199462890625C18.9199560546875,5.7199462890625,18.9199560546875,5.7199462890625,18.9199560546875,5.7199462890625Z" fill="#FFB496" fill-opacity="1"/></g></g></g><g filter="url(#master_svg1_350_26781/350_23657)"><g filter="url(#master_svg2_350_26781/350_23720)"><path d="M8.26222675,12.30924046875L11.80643875,12.30924046875C13.138248749999999,12.30924046875,14.22149875,11.22557046875,14.22149875,9.894610468749999C14.22149875,8.56301046875,13.138248749999999,7.47998046875,11.80643875,7.47998046875L7.87114275,7.47998046875C7.66166975,7.47998046875,7.49194335,7.64992146875,7.49194335,7.85853546875C7.49194335,8.06800746875,7.66166975,8.23773446875,7.87114275,8.23773446875L11.80643875,8.23773446875C12.71994875,8.23773446875,13.46352875,8.98088046875,13.46352875,9.894610468749999C13.46352875,10.80791046875,12.71994875,11.55084046875,11.80643875,11.55084046875L8.26222675,11.55084046875L8.26222675,10.35836046875C8.26222675,10.142020468750001,8.08669875,9.96692046875,7.87121075,9.96692046875C7.65529275,9.96692046875,7.479980469,10.142020468750001,7.479980469,10.35836046875L7.479980469,14.43502046875C7.479980469,14.65073046875,7.65529275,14.82604046875,7.87121075,14.82604046875C8.08669875,14.82604046875,8.26222675,14.65073046875,8.26222675,14.43502046875L8.26222675,12.30924046875Z" fill-rule="evenodd" fill="#FFFFFF" fill-opacity="1"/></g></g></g></g></svg>