<svg xmlns="http://www.w3.org/2000/svg" xmlns:xlink="http://www.w3.org/1999/xlink" fill="none" version="1.1" width="22" height="22" viewBox="0 0 22 22"><defs><clipPath id="master_svg0_350_26777"><rect x="0" y="0" width="22" height="22" rx="0"/></clipPath><filter id="master_svg1_350_26777/350_23669" filterUnits="objectBoundingBox" color-interpolation-filters="sRGB" x="-0.33333331326442955" y="-0.2758607861603656" width="1.6666666265288592" height="1.8275823771658528"><feFlood flood-opacity="0" result="BackgroundImageFix"/><feColorMatrix in="SourceAlpha" type="matrix" values="0 0 0 0 0 0 0 0 0 0 0 0 0 0 0 0 0 0 127 0"/><feOffset dy="0.8799999952316284" dx="0"/><feGaussianBlur stdDeviation="0.6599999666213989"/><feColorMatrix type="matrix" values="0 0 0 0 0.14047971367835999 0 0 0 0 0.42538946866989136 0 0 0 0 0.777777910232544 0 0 0 1 0"/><feBlend mode="normal" in2="BackgroundImageFix" result="effect1_dropShadow"/><feBlend mode="normal" in="SourceGraphic" in2="effect1_dropShadow" result="shape"/></filter></defs><g clip-path="url(#master_svg0_350_26777)"><g><g><g><g><path d="M17.8467560546875,20.6799462890625C17.8467560546875,20.6799462890625,4.1522660546875,20.6799462890625,4.1522660546875,20.6799462890625C3.5596960546875,20.6799462890625,3.0799560546875,20.2168462890625,3.0799560546875,19.6457462890625C3.0799560546875,19.6457462890625,3.0799560546875,2.3545962890625,3.0799560546875,2.3545962890625C3.0799560546875,1.7830782890624999,3.5596960546875,1.3199462890625,4.1522660546875,1.3199462890625C4.1522660546875,1.3199462890625,14.0799560546875,1.3199462890625,14.0799560546875,1.3199462890625C14.0799560546875,1.3199462890625,18.9199560546875,5.7199462890625,18.9199560546875,5.7199462890625C18.9199560546875,5.7199462890625,18.9199560546875,19.6457462890625,18.9199560546875,19.6457462890625C18.9199560546875,20.2168462890625,18.4395560546875,20.6799462890625,17.8467560546875,20.6799462890625Z" fill="#327EDC" fill-opacity="1"/></g></g><g><g><path d="M18.9199560546875,5.7199462890625C18.9199560546875,5.7199462890625,14.0799560546875,5.7199462890625,14.0799560546875,5.7199462890625C14.0799560546875,5.7199462890625,14.0799560546875,1.3199462890625,14.0799560546875,1.3199462890625C14.0799560546875,1.3199462890625,18.9199560546875,5.7199462890625,18.9199560546875,5.7199462890625Z" fill="#86BCFE" fill-opacity="1"/></g></g></g><g filter="url(#master_svg1_350_26777/350_23669)"><g><rect x="7.0400390625" y="8.3599853515625" width="7.920000076293945" height="1.100000023841858" rx="0.550000011920929" fill="#FFFFFF" fill-opacity="1"/></g><g><rect x="7.0400390625" y="11" width="7.920000076293945" height="1.100000023841858" rx="0.550000011920929" fill="#FFFFFF" fill-opacity="1"/></g><g><rect x="7.0400390625" y="13.6400146484375" width="3.5199999809265137" height="1.100000023841858" rx="0.550000011920929" fill="#FFFFFF" fill-opacity="1"/></g></g></g></g></svg>