<svg xmlns="http://www.w3.org/2000/svg" xmlns:xlink="http://www.w3.org/1999/xlink" fill="none" version="1.1" width="22" height="22" viewBox="0 0 22 22"><defs><clipPath id="master_svg0_350_26772"><rect x="0" y="0" width="22" height="22" rx="0"/></clipPath><filter id="master_svg1_350_26772/350_24889" filterUnits="objectBoundingBox" color-interpolation-filters="sRGB" x="-0.29999997832558417" y="-0.23094010215208638" width="1.5999999566511685" height="1.6928203220984226"><feFlood flood-opacity="0" result="BackgroundImageFix"/><feColorMatrix in="SourceAlpha" type="matrix" values="0 0 0 0 0 0 0 0 0 0 0 0 0 0 0 0 0 0 127 0"/><feOffset dy="0.8799999952316284" dx="0"/><feGaussianBlur stdDeviation="0.6599999666213989"/><feColorMatrix type="matrix" values="0 0 0 0 0.3200475871562958 0 0 0 0 0.3839179277420044 0 0 0 0 0.7896826863288879 0 0 0 1 0"/><feBlend mode="normal" in2="BackgroundImageFix" result="effect1_dropShadow"/><feBlend mode="normal" in="SourceGraphic" in2="effect1_dropShadow" result="shape"/></filter></defs><g clip-path="url(#master_svg0_350_26772)"><g><g><g><g><path d="M17.8467560546875,20.6799462890625C17.8467560546875,20.6799462890625,4.1522660546875,20.6799462890625,4.1522660546875,20.6799462890625C3.5596960546875,20.6799462890625,3.0799560546875,20.2168462890625,3.0799560546875,19.6457462890625C3.0799560546875,19.6457462890625,3.0799560546875,2.3545962890625,3.0799560546875,2.3545962890625C3.0799560546875,1.7830782890624999,3.5596960546875,1.3199462890625,4.1522660546875,1.3199462890625C4.1522660546875,1.3199462890625,14.0799560546875,1.3199462890625,14.0799560546875,1.3199462890625C14.0799560546875,1.3199462890625,18.9199560546875,5.7199462890625,18.9199560546875,5.7199462890625C18.9199560546875,5.7199462890625,18.9199560546875,19.6457462890625,18.9199560546875,19.6457462890625C18.9199560546875,20.2168462890625,18.4395560546875,20.6799462890625,17.8467560546875,20.6799462890625Z" fill="#6273DF" fill-opacity="1"/></g></g><g><g><path d="M18.9199560546875,5.7199462890625C18.9199560546875,5.7199462890625,14.0799560546875,5.7199462890625,14.0799560546875,5.7199462890625C14.0799560546875,5.7199462890625,14.0799560546875,1.3199462890625,14.0799560546875,1.3199462890625C14.0799560546875,1.3199462890625,18.9199560546875,5.7199462890625,18.9199560546875,5.7199462890625Z" fill="#B2BDFF" fill-opacity="1"/></g></g></g><g transform="matrix(0,1,-1,0,22,-8.800048828125)" filter="url(#master_svg1_350_26772/350_24889)"><path d="M20.5621244140625,7.9199755859375L23.4379244140625,12.900995585937501C23.7766344140625,13.4876655859375,23.3532444140625,14.2209955859375,22.6758144140625,14.2209955859375L16.9242344140625,14.2209955859375C16.2468054140625,14.2209955859375,15.8234144140625,13.4876655859375,16.1621264140625,12.900995585937501L19.037924414062502,7.9199755859375C19.3766344140625,7.3333085859375,20.2234144140625,7.3333085859375,20.5621244140625,7.9199755859375" fill="#FFFFFF" fill-opacity="1"/></g></g></g></svg>