<svg xmlns="http://www.w3.org/2000/svg" xmlns:xlink="http://www.w3.org/1999/xlink" fill="none" version="1.1" width="22" height="22" viewBox="0 0 22 22"><defs><clipPath id="master_svg0_350_26775"><rect x="0" y="0" width="22" height="22" rx="0"/></clipPath><filter id="master_svg1_350_26775/350_23154" filterUnits="objectBoundingBox" color-interpolation-filters="sRGB" x="-0.37499998306686216" y="-0.26666665101292136" width="1.7499999661337244" height="1.799999971100778"><feFlood flood-opacity="0" result="BackgroundImageFix"/><feColorMatrix in="SourceAlpha" type="matrix" values="0 0 0 0 0 0 0 0 0 0 0 0 0 0 0 0 0 0 127 0"/><feOffset dy="0.8799999952316284" dx="0"/><feGaussianBlur stdDeviation="0.6599999666213989"/><feColorMatrix type="matrix" values="0 0 0 0 0.13180898129940033 0 0 0 0 0.4072897732257843 0 0 0 0 0.7480159997940063 0 0 0 1 0"/><feBlend mode="normal" in2="BackgroundImageFix" result="effect1_dropShadow"/><feBlend mode="normal" in="SourceGraphic" in2="effect1_dropShadow" result="shape"/></filter></defs><g clip-path="url(#master_svg0_350_26775)"><g><g><g><g><path d="M17.8467560546875,20.6799462890625C17.8467560546875,20.6799462890625,4.1522660546875,20.6799462890625,4.1522660546875,20.6799462890625C3.5596960546875,20.6799462890625,3.0799560546875,20.2168462890625,3.0799560546875,19.6457462890625C3.0799560546875,19.6457462890625,3.0799560546875,2.3545962890625,3.0799560546875,2.3545962890625C3.0799560546875,1.7830782890624999,3.5596960546875,1.3199462890625,4.1522660546875,1.3199462890625C4.1522660546875,1.3199462890625,14.0799560546875,1.3199462890625,14.0799560546875,1.3199462890625C14.0799560546875,1.3199462890625,18.9199560546875,5.7199462890625,18.9199560546875,5.7199462890625C18.9199560546875,5.7199462890625,18.9199560546875,19.6457462890625,18.9199560546875,19.6457462890625C18.9199560546875,20.2168462890625,18.4395560546875,20.6799462890625,17.8467560546875,20.6799462890625Z" fill="#327EDC" fill-opacity="1"/></g></g><g><g><path d="M18.9199560546875,5.7199462890625C18.9199560546875,5.7199462890625,14.0799560546875,5.7199462890625,14.0799560546875,5.7199462890625C14.0799560546875,5.7199462890625,14.0799560546875,1.3199462890625,14.0799560546875,1.3199462890625C14.0799560546875,1.3199462890625,18.9199560546875,5.7199462890625,18.9199560546875,5.7199462890625Z" fill="#86BCFE" fill-opacity="1"/></g></g></g><g filter="url(#master_svg1_350_26775/350_23154)"><path d="M14.10742046875,14.519543945312499C14.024240468750001,14.519543945312499,13.94039046875,14.4939439453125,13.869220468750001,14.4427639453125C13.869220468750001,14.4427639453125,11.035560468749999,12.4041939453125,11.035560468749999,12.4041939453125C11.035560468749999,12.4041939453125,8.12628846875,14.445883945312499,8.12628846875,14.445883945312499C8.00085246875,14.533903945312499,7.83627246875,14.544923945312501,7.70082846875,14.471683945312499C7.56493906875,14.3994839453125,7.47998046875,14.2565239453125,7.47998046875,14.1008839453125C7.47998046875,14.1008839453125,7.47998046875,8.3391189453125,7.47998046875,8.3391189453125C7.47998046875,8.1075249453125,7.66479846875,7.9200439453125,7.89254146875,7.9200439453125C8.11983846875,7.9200439453125,8.30465746875,8.1075249453125,8.30465746875,8.3391189453125C8.30465746875,8.3391189453125,8.30465746875,13.3022639453125,8.30465746875,13.3022639453125C8.30465746875,13.3022639453125,10.80449046875,11.5477339453125,10.80449046875,11.5477339453125C10.94705046875,11.4490939453125,11.13587046875,11.449723945312499,11.27687046875,11.5506439453125C11.27687046875,11.5506439453125,13.69508046875,13.2904039453125,13.69508046875,13.2904039453125C13.69508046875,13.2904039453125,13.69508046875,8.3391189453125,13.69508046875,8.3391189453125C13.69508046875,8.1075249453125,13.87968046875,7.9200439453125,14.10742046875,7.9200439453125C14.33516046875,7.9200439453125,14.51998046875,8.1075249453125,14.51998046875,8.3391189453125C14.51998046875,8.3391189453125,14.51998046875,14.1008839453125,14.51998046875,14.1008839453125C14.51998046875,14.2573639453125,14.43391046875,14.4013539453125,14.29669046875,14.4729339453125C14.237080468750001,14.5043539453125,14.172140468750001,14.519543945312499,14.10742046875,14.519543945312499C14.10742046875,14.519543945312499,14.10742046875,14.519543945312499,14.10742046875,14.519543945312499Z" fill="#FFFFFF" fill-opacity="1"/></g></g></g></svg>