<svg xmlns="http://www.w3.org/2000/svg" xmlns:xlink="http://www.w3.org/1999/xlink" fill="none" version="1.1" width="22" height="22" viewBox="0 0 22 22"><defs><clipPath id="master_svg0_350_26773"><rect x="0" y="0" width="22" height="22" rx="0"/></clipPath><filter id="master_svg1_350_26773/350_23204" filterUnits="objectBoundingBox" color-interpolation-filters="sRGB" x="-1.595535942261372" y="-0.7151342281164005" width="4.191071884522744" height="3.1454027327870704"><feFlood flood-opacity="0" result="BackgroundImageFix"/><feColorMatrix in="SourceAlpha" type="matrix" values="0 0 0 0 0 0 0 0 0 0 0 0 0 0 0 0 0 0 127 0"/><feOffset dy="0.8799999952316284" dx="0"/><feGaussianBlur stdDeviation="0.6599999666213989"/><feColorMatrix type="matrix" values="0 0 0 0 0.5607843399047852 0 0 0 0 0.38823530077934265 0 0 0 0 0.16862745583057404 0 0 0 1 0"/><feBlend mode="normal" in2="BackgroundImageFix" result="effect1_dropShadow"/><feBlend mode="normal" in="SourceGraphic" in2="effect1_dropShadow" result="shape"/></filter></defs><g clip-path="url(#master_svg0_350_26773)"><g><g><g><g><path d="M17.8467560546875,20.6799462890625C17.8467560546875,20.6799462890625,4.1522660546875,20.6799462890625,4.1522660546875,20.6799462890625C3.5596960546875,20.6799462890625,3.0799560546875,20.2168462890625,3.0799560546875,19.6457462890625C3.0799560546875,19.6457462890625,3.0799560546875,2.3545962890625,3.0799560546875,2.3545962890625C3.0799560546875,1.7830782890624999,3.5596960546875,1.3199462890625,4.1522660546875,1.3199462890625C4.1522660546875,1.3199462890625,14.0799560546875,1.3199462890625,14.0799560546875,1.3199462890625C14.0799560546875,1.3199462890625,18.9199560546875,5.7199462890625,18.9199560546875,5.7199462890625C18.9199560546875,5.7199462890625,18.9199560546875,19.6457462890625,18.9199560546875,19.6457462890625C18.9199560546875,20.2168462890625,18.4395560546875,20.6799462890625,17.8467560546875,20.6799462890625C17.8467560546875,20.6799462890625,17.8467560546875,20.6799462890625,17.8467560546875,20.6799462890625Z" fill="#BC8846" fill-opacity="1"/></g></g><g><g><path d="M18.9199560546875,5.7199462890625C18.9199560546875,5.7199462890625,14.0799560546875,5.7199462890625,14.0799560546875,5.7199462890625C14.0799560546875,5.7199462890625,14.0799560546875,1.3199462890625,14.0799560546875,1.3199462890625C14.0799560546875,1.3199462890625,18.9199560546875,5.7199462890625,18.9199560546875,5.7199462890625C18.9199560546875,5.7199462890625,18.9199560546875,5.7199462890625,18.9199560546875,5.7199462890625Z" fill="#DFAE6F" fill-opacity="1"/></g></g></g><g><g><rect x="9.6817626953125" y="1.3199462890625" width="1.100000023841858" height="1.4663499593734741" rx="0" fill="#FFFFFF" fill-opacity="1"/></g><g><rect x="10.817626953125" y="2.7845458984375" width="1.100000023841858" height="1.4663499593734741" rx="0" fill="#FFFFFF" fill-opacity="1"/></g><g><rect x="9.6817626953125" y="4.53125" width="1.100000023841858" height="1.4663499593734741" rx="0" fill="#FFFFFF" fill-opacity="1"/></g><g><rect x="10.817626953125" y="6.1361083984375" width="1.100000023841858" height="1.4663499593734741" rx="0" fill="#FFFFFF" fill-opacity="1"/></g><g><rect x="9.6817626953125" y="7.742431640625" width="1.100000023841858" height="1.4663499593734741" rx="0" fill="#FFFFFF" fill-opacity="1"/></g><g filter="url(#master_svg1_350_26773/350_23204)"><path d="M9.6800537109375,9.524658203125C9.6800537109375,9.524658203125,11.3346737109375,9.524658203125,11.3346737109375,9.524658203125C11.3346737109375,9.524658203125,11.3346737109375,11.985738203124999,11.3346737109375,11.985738203124999C11.3346737109375,11.985738203124999,9.6800537109375,11.985738203124999,9.6800537109375,11.985738203124999C9.6800537109375,11.985738203124999,9.6800537109375,9.524658203125,9.6800537109375,9.524658203125C9.6800537109375,9.524658203125,9.6800537109375,9.524658203125,9.6800537109375,9.524658203125Z" fill="#FFFFFF" fill-opacity="1"/></g><g><rect x="10.23974609375" y="10.3094482421875" width="0.49872666597366333" height="1.4289860725402832" rx="0" fill="#8F632B" fill-opacity="1"/></g></g></g></g></svg>