<svg xmlns="http://www.w3.org/2000/svg" width="34" height="34" viewBox="0 0 34 34">
  <defs>
    <style>
      .cls-1, .cls-2 {
        fill: #327edc;
      }

      .cls-1 {
        opacity: 0.1;
      }
    </style>
  </defs>
  <g id="组_5153" data-name="组 5153" transform="translate(0.303 0.303)">
    <rect id="矩形_2260" data-name="矩形 2260" class="cls-1" width="34" height="34" rx="4" transform="translate(-0.303 -0.303)"/>
    <path id="路径_9794" data-name="路径 9794" class="cls-2" d="M1.428,91.082,0,96.317V86.272a.939.939,0,0,1,.938-.938H5.4a.932.932,0,0,1,.663.275L7.982,87.53a.186.186,0,0,0,.133.055h6.71a.939.939,0,0,1,.938.938v1.314H3.057a1.692,1.692,0,0,0-1.629,1.245Zm16.221-.125a.931.931,0,0,0-.746-.369H3.057a.94.94,0,0,0-.905.692L.207,98.411A.938.938,0,0,0,1.112,99.6H14.958a.94.94,0,0,0,.905-.692l1.945-7.131a.932.932,0,0,0-.16-.816Z" transform="translate(8.137 -76.27)"/>
  </g>
</svg>
