<svg xmlns="http://www.w3.org/2000/svg" width="18" height="18" viewBox="0 0 18 18">
  <defs>
    <style>
      .cls-1, .cls-2 {
        fill: #327edc;
      }

      .cls-1 {
        opacity: 0.1;
      }
    </style>
  </defs>
  <g id="组_19798" data-name="组 19798" transform="translate(0 0)">
    <rect id="矩形_2260" data-name="矩形 2260" class="cls-1" width="18" height="18" rx="2" transform="translate(0 0)"/>
    <path id="路径_9794" data-name="路径 9794" class="cls-2" d="M.941,89.123,0,92.575V85.952a.619.619,0,0,1,.619-.619H3.558A.615.615,0,0,1,4,85.515l1.267,1.267a.123.123,0,0,0,.087.036H9.774a.619.619,0,0,1,.619.619V88.3H2.016a1.116,1.116,0,0,0-1.074.82Zm10.694-.083a.614.614,0,0,0-.492-.243H2.016a.62.62,0,0,0-.6.456l-1.282,4.7a.619.619,0,0,0,.6.781H9.861a.62.62,0,0,0,.6-.456l1.282-4.7a.614.614,0,0,0-.105-.538Z" transform="translate(3.2 -80.835)"/>
  </g>
</svg>
