<svg xmlns="http://www.w3.org/2000/svg" width="30" height="30" viewBox="0 0 30 30"><defs><style>.a{fill:none;opacity:0.09;}.b{fill:#6497ee;}.c{fill:#e5e9f9;}.d{fill:#fff;}</style></defs><g transform="translate(-301.5 -1)"><rect class="a" width="30" height="30" transform="translate(301.5 1)"/><g transform="translate(-587.981 -136.828)"><g transform="translate(893 139)"><g transform="translate(0)"><g transform="translate(0 0.001)"><path class="b" d="M3385.686,3406h-20.018a1.478,1.478,0,0,1-1.478-1.478v-24.7a1.478,1.478,0,0,1,1.478-1.478h14.9l6.6,6.058v20.12A1.478,1.478,0,0,1,3385.686,3406Z" transform="translate(-3364.189 -3378.347)"/></g><g transform="translate(16.347)"><path class="c" d="M3394.514,3384.406l-6.627.1.024-6.159Z" transform="translate(-3387.886 -3378.345)"/></g></g><path class="d" d="M-8536.858,13.176c-.519,0-.939-.251-.939-.56V6.9h-3.589c-.572,0-.8-1-.407-1.344L-8535.7.169a.741.741,0,0,1,.941,0l6.095,5.385A.875.875,0,0,1-8529.2,6.9h-3.451v5.718c0,.309-.42.56-.941.56Z" transform="translate(8546.724 8.872)"/></g></g></g></svg>