<svg xmlns="http://www.w3.org/2000/svg" width="30" height="30" viewBox="0 0 30 30"><defs><style>.a{fill:none;opacity:0.09;}.b{fill:#327edc;}</style></defs><g transform="translate(-301.5 -1)"><rect class="a" width="30" height="30" transform="translate(301.5 1)"/><path class="b" d="M22.988,4.363H16.337a3.556,3.556,0,0,1-3.278-2.18l-.009-.019A3.528,3.528,0,0,0,9.8,0H4.279A3.528,3.528,0,0,0,1.036,2.14l-.071.166A11.9,11.9,0,0,0,0,7V21.374A3.423,3.423,0,0,0,3.423,24.8H22.988a3.423,3.423,0,0,0,3.423-3.423V7.786a3.422,3.422,0,0,0-3.423-3.423M22.366,12.4H11.92a1.7,1.7,0,0,1,0-3.41H22.366a1.7,1.7,0,1,1,0,3.41" transform="translate(303.294 3.602)"/></g></svg>