<svg xmlns="http://www.w3.org/2000/svg" xmlns:xlink="http://www.w3.org/1999/xlink" fill="currentColor" version="1.1" width="30" height="30" viewBox="0 0 30 30"><g><g style="opacity:0.09000000357627869;"></g><g><g><path d="M7.8099609375,10.759765625Q7.8099609375,10.671123425,7.8272539375,10.584184625Q7.8445479375,10.497245625,7.8784699375,10.415350625Q7.9123909375,10.333455625,7.9616389375,10.259752625Q8.0108849375,10.186049625,8.0735649375,10.123369625Q8.1362449375,10.060689625,8.2099479375,10.011442625Q8.2836509375,9.962195625,8.3655459375,9.928274625Q8.4474409375,9.894352625,8.5343799375,9.877058625Q8.6213187375,9.859765625,8.7099609375,9.859765625Q8.7986031375,9.859765625,8.8855419375,9.877058625Q8.9724809375,9.894352625,9.0543759375,9.928274625Q9.1362709375,9.962195625,9.2099739375,10.011443625Q9.2836769375,10.060689625,9.3463569375,10.123369625Q9.4090369375,10.186049625,9.4582839375,10.259752625Q9.5075309375,10.333455625,9.5414519375,10.415350625Q9.5753739375,10.497245625,9.5926679375,10.584184625Q9.6099609375,10.671123425,9.6099609375,10.759765625L9.6099609375,22.859765625L20.8099609375,22.859765625L20.8099609375,10.759765625Q20.8099609375,10.671123425,20.8272609375,10.584184625Q20.8445609375,10.497245625,20.8784609375,10.415350625Q20.9123609375,10.333455625,20.9616609375,10.259752625Q21.0108609375,10.186049625,21.073560937499998,10.123369625Q21.136260937499998,10.060689625,21.2099609375,10.011442625Q21.283660937500002,9.962195625,21.3655609375,9.928274625Q21.4474609375,9.894352625,21.5343609375,9.877058625Q21.6213609375,9.859765625,21.7099609375,9.859765625Q21.7985609375,9.859765625,21.8855609375,9.877058625Q21.9724609375,9.894352625,22.0543609375,9.928274625Q22.136260937499998,9.962195625,22.2099609375,10.011443625Q22.283660937500002,10.060689625,22.346360937500002,10.123369625Q22.4090609375,10.186049625,22.4582609375,10.259752625Q22.5075609375,10.333455625,22.5414609375,10.415350625Q22.5753609375,10.497245625,22.5926609375,10.584184625Q22.6099609375,10.671123425,22.6099609375,10.759765625L22.6099609375,23.759765625Q22.6099609375,23.848365625,22.5926609375,23.935365625Q22.5753609375,24.022265625,22.5414609375,24.104165625Q22.5075609375,24.186065624999998,22.4582609375,24.259765625Q22.4090609375,24.333465625000002,22.346360937500002,24.396165625000002Q22.283660937500002,24.458865625,22.2099609375,24.508065625Q22.136260937499998,24.557365625,22.0543609375,24.591265625Q21.9724609375,24.625165625,21.8855609375,24.642465625Q21.7985609375,24.659765625,21.7099609375,24.659765625L8.7099609375,24.659765625Q8.6213187375,24.659765625,8.5343799375,24.642465625Q8.4474409375,24.625165625,8.3655459375,24.591265625Q8.2836509375,24.557365625,8.2099479375,24.508065625Q8.1362449375,24.458865625,8.0735649375,24.396165625000002Q8.0108849375,24.333465625000002,7.9616379375,24.259765625Q7.9123909375,24.186065624999998,7.8784699375,24.104165625Q7.8445479375,24.022265625,7.8272539375,23.935365625Q7.8099609375,23.848365625,7.8099609375,23.759765625L7.8099609375,10.759765625Z" fill-rule="evenodd" fill="currentColor" fill-opacity="1" style="mix-blend-mode:passthrough"/></g><g><line x1="6.239990234375" y1="7.659570336341858" x2="24.00000762939453" y2="7.659570336341858" fill-opacity="0" stroke-opacity="1" stroke="currentColor" fill="currentColor" stroke-width="1.7999999523162842" stroke-linecap="ROUND" stroke-linejoin="round" style="mix-blend-mode:passthrough"/></g><g><line x1="12.199951171875" y1="5.100000023841858" x2="18.03995132446289" y2="5.100000023841858" fill-opacity="0" stroke-opacity="1" stroke="currentColor" fill="currentColor" stroke-width="1.7999999523162842" stroke-linecap="ROUND" stroke-linejoin="round" style="mix-blend-mode:passthrough"/></g><g transform="matrix(0,1,-1,0,23.8800048828125,-0.2999267578125)"><line x1="12.0899658203125" y1="10.890039086341858" x2="19.0899658203125" y2="10.890039086341858" fill-opacity="0" stroke-opacity="1" stroke="currentColor" fill="currentColor" stroke-width="1.7999999523162842" stroke-linecap="ROUND" stroke-linejoin="round" style="mix-blend-mode:passthrough"/></g><g transform="matrix(0,1,-1,0,28.5699462890625,-4.9898681640625)"><line x1="16.7799072265625" y1="10.890039086341858" x2="23.7799072265625" y2="10.890039086341858" fill-opacity="0" stroke-opacity="1" stroke="currentColor" fill="currentColor" stroke-width="1.7999999523162842" stroke-linecap="ROUND" stroke-linejoin="round" style="mix-blend-mode:passthrough"/></g></g></g></svg>