<svg xmlns="http://www.w3.org/2000/svg" width="54" height="64" viewBox="0 0 54 64"><defs><style>.a,.f{fill:none;}.a{opacity:0.54;}.b{fill:#ecedef;}.c{fill:#f9fbfe;}.d{fill:#e1e3e9;}.e{fill:#ff4550;}.f{stroke:#fff;stroke-linecap:round;stroke-width:1.5px;}.g{fill:#dbdce6;font-size:8px;font-family:MicrosoftYaHei-Bold, Microsoft YaHei;font-weight:700;}</style></defs><g transform="translate(-223 -141)"><rect class="a" width="54" height="64" transform="translate(223 141)"/><g transform="translate(224.651 142.601)"><g transform="translate(0 0)"><g transform="translate(0 0.025)"><path class="b" d="M3363.158,3439.119h-43.8a3.341,3.341,0,0,1-3.429-3.246v-54.279a3.341,3.341,0,0,1,3.429-3.247h31.906l15.325,13.311v44.215A3.344,3.344,0,0,1,3363.158,3439.119Z" transform="translate(-3315.93 -3378.347)"/><path class="c" d="M3357.144,3431.38h-38.221a2.916,2.916,0,0,1-2.992-2.833v-47.366a2.916,2.916,0,0,1,2.992-2.833h27.843l13.374,11.616v38.584A2.918,2.918,0,0,1,3357.144,3431.38Z" transform="translate(-3312.703 -3374.478)"/></g><g transform="translate(35.353)"><path class="d" d="M3353.791,3391.738h-15.308v-13.413Z" transform="translate(-3338.482 -3378.325)"/></g></g><g transform="translate(-5.356 -5.356)"><circle class="e" cx="10" cy="10" r="10" transform="translate(36.706 43.755)"/><path class="f" d="M0,11.4V0" transform="translate(50.711 49.963) rotate(45)"/><path class="f" d="M0,0V11.4" transform="translate(50.711 58.024) rotate(135)"/></g><text class="g" transform="translate(7.35 18.398)"><tspan x="0" y="0">XLS</tspan><tspan x="0" y="10">CSV</tspan></text></g></g></svg>