<?xml version="1.0" standalone="no"?><!DOCTYPE svg PUBLIC "-//W3C//DTD SVG 1.1//EN" "http://www.w3.org/Graphics/SVG/1.1/DTD/svg11.dtd"><svg t="1741746081988" class="icon" viewBox="0 0 1024 1024" version="1.1" xmlns="http://www.w3.org/2000/svg" p-id="5287" xmlns:xlink="http://www.w3.org/1999/xlink" width="200" height="200"><path d="M384 160H192a64 64 0 0 0-64 64v192a64 64 0 0 0 64 64h192a64 64 0 0 0 64-64V224a64 64 0 0 0-64-64z m448 0h-192a64 64 0 0 0-64 64v192a64 64 0 0 0 64 64h192a64 64 0 0 0 64-64V224a64 64 0 0 0-64-64zM384 608H192a64 64 0 0 0-64 64v192a64 64 0 0 0 64 64h192a64 64 0 0 0 64-64v-192a64 64 0 0 0-64-64z m448 0h-192a64 64 0 0 0-64 64v192a64 64 0 0 0 64 64h192a64 64 0 0 0 64-64v-192a64 64 0 0 0-64-64z" fill="#c4c4c4" p-id="5288"></path></svg>