<svg xmlns="http://www.w3.org/2000/svg" width="20" height="20" viewBox="0 0 20 20">
  <g id="组_23095" data-name="组 23095" transform="translate(-705 17)">
    <path id="联合_121" data-name="联合 121" d="M-4286.556,7499.35a.538.538,0,0,1-.533-.542v-.973a.937.937,0,0,1,.406-.771l2.981-2.008a2.663,2.663,0,0,0,1.44.427h.073a2.668,2.668,0,0,0,1.441-.427l2.979,2.008a.931.931,0,0,1,.407.771v.973a.538.538,0,0,1-.533.542Zm10.182-.961v-.435a2.377,2.377,0,0,0-1.043-1.976l-2.165-1.458-.2-.134a2.337,2.337,0,0,0,.326-.075,2.761,2.761,0,0,0,.681-.314l3.047,2.055a.952.952,0,0,1,.418.789v.994a.551.551,0,0,1-.546.555Zm-8.131-5.989v-1.8a2.362,2.362,0,0,1,2.451-2.384,2.475,2.475,0,0,1,2.239,2.541v1.483a2.476,2.476,0,0,1-2.239,2.542l-.106,0A2.366,2.366,0,0,1-4284.5,7492.4Zm5.618-.166v-1.515a4.092,4.092,0,0,0-2.1-3.583,2.323,2.323,0,0,1,.873-.132,2.532,2.532,0,0,1,2.291,2.6v1.517a2.668,2.668,0,0,1-1.25,2.273A4.146,4.146,0,0,0-4278.886,7492.233Z" transform="translate(4996.088 -7500.001)" fill="#2d2d2d"/>
    <rect id="矩形_6328" data-name="矩形 6328" width="20" height="20" transform="translate(705 -17)" fill="none"/>
  </g>
</svg>
