<svg xmlns="http://www.w3.org/2000/svg" width="18" height="18" viewBox="0 0 18 18"><defs><style>.a{fill:none;}.b{fill:#b4b7c9;}</style></defs><g transform="translate(-618 -274)"><rect class="a" width="18" height="18" transform="translate(618 274)"/><path class="b" d="M-4070.343,8584.438a.651.651,0,0,1-.657-.644.648.648,0,0,1,.657-.641h3.729v-2.043h-3.094a1.278,1.278,0,0,1-1.291-1.262v-5.585a1.278,1.278,0,0,1,1.291-1.265h9.026a1.278,1.278,0,0,1,1.291,1.265v2.091a2.586,2.586,0,0,0-1.745-.674,2.54,2.54,0,0,0-2.562,2.386h-.43a1.485,1.485,0,0,0-1.5,1.468v3.536a1.469,1.469,0,0,0,.969,1.367Zm6.213-.753a.621.621,0,0,1-.629-.614v-3.536a.622.622,0,0,1,.629-.616h1.3v-.731a1.675,1.675,0,0,1,1.693-1.654,1.676,1.676,0,0,1,1.693,1.654v.731h1.3a.623.623,0,0,1,.63.616v3.536a.623.623,0,0,1-.63.614Zm2.451-3.116v1.662a.237.237,0,0,0,.242.236h.6a.238.238,0,0,0,.242-.236v-1.662a.24.24,0,0,0-.242-.236h-.6A.239.239,0,0,0-4061.679,8580.568Zm-.431-2.382v.731h1.948v-.731a.965.965,0,0,0-.974-.952A.965.965,0,0,0-4062.11,8578.187Z" transform="translate(4691.258 -8295.719)"/></g></svg>