<?xml version="1.0" standalone="no"?><!DOCTYPE svg PUBLIC "-//W3C//DTD SVG 1.1//EN" "http://www.w3.org/Graphics/SVG/1.1/DTD/svg11.dtd"><svg t="1742954411488" class="icon" viewBox="0 0 1024 1024" version="1.1" xmlns="http://www.w3.org/2000/svg" p-id="21776" xmlns:xlink="http://www.w3.org/1999/xlink" width="256" height="256"><path d="M463.6416 161.28a44.7552 44.7552 0 0 1 40.4032 12.2752l393.7216 393.7152a44.8 44.8 0 0 1 0 63.36l-262.4832 262.4768a44.8 44.8 0 0 1-63.36 0L178.2208 499.3856a44.7232 44.7232 0 0 1-12.8-37.0944V212.4864a51.2 51.2 0 0 1 51.2-51.2h247.0272zM381.856 359.104c24.9984-24.9984 24.9984-65.5232 0-90.5152-24.992-24.992-65.5168-24.992-90.5088 0-24.992 24.992-24.992 65.5168 0 90.5088 24.992 24.992 65.5168 24.992 90.5088 0z" fill="#267ef0" p-id="21777"></path></svg>