<svg xmlns="http://www.w3.org/2000/svg" xmlns:xlink="http://www.w3.org/1999/xlink" fill="none" version="1.1" width="100" height="100" viewBox="0 0 100 100"><g><g><path d="M93.92220203933717,49.999611989593504Q93.92220203933717,51.077811989593506,93.86930203933716,52.15471198959351Q93.81640203933716,53.2316119895935,93.71080203933715,54.3046119895935Q93.60510203933715,55.37771198959351,93.44690203933716,56.444211989593505Q93.28860203933716,57.5107119895935,93.07830203933716,58.56821198959351Q92.86790203933715,59.625711989593505,92.60600203933716,60.67161198959351Q92.34400203933716,61.717511989593504,92.03100203933715,62.74931198959351Q91.71800203933716,63.781111989593505,91.35480203933716,64.7963119895935Q90.99150203933716,65.8115119895935,90.57890203933715,66.80761198959351Q90.16630203933715,67.8038119895935,89.70530203933716,68.77851198959351Q89.24430203933716,69.7532119895935,88.73600203933715,70.7041119895935Q88.22780203933716,71.6550119895935,87.67340203933716,72.57981198959351Q87.11910203933716,73.5046119895935,86.52010203933716,74.4011119895935Q85.92110203933716,75.2976119895935,85.27880203933717,76.1636119895935Q84.63650203933716,77.02971198959351,83.95250203933716,77.8631119895935Q83.26850203933716,78.6966119895935,82.54440203933716,79.49551198959351Q81.82030203933716,80.2944119895935,81.05790203933716,81.05681198959351Q80.29550203933715,81.81921198959351,79.49660203933716,82.5433119895935Q78.69770203933716,83.26741198959351,77.86420203933716,83.95141198959351Q77.03080203933716,84.6354119895935,76.16470203933716,85.27771198959351Q75.29870203933716,85.9200119895935,74.40220203933715,86.51901198959351Q73.50570203933715,87.11801198959351,72.58090203933716,87.67231198959351Q71.65610203933716,88.22671198959351,70.70520203933715,88.7349119895935Q69.75430203933715,89.2432119895935,68.77960203933716,89.7042119895935Q67.80490203933715,90.1652119895935,66.80870203933716,90.5778119895935Q65.81260203933715,90.99041198959351,64.79740203933716,91.3537119895935Q63.78220203933716,91.71691198959351,62.75040203933716,92.0299119895935Q61.718602039337156,92.3429119895935,60.67270203933716,92.6049119895935Q59.62680203933716,92.8668119895935,58.56930203933716,93.07721198959351Q57.511802039337155,93.28751198959351,56.44530203933716,93.44581198959351Q55.37880203933716,93.6040119895935,54.305702039337156,93.7097119895935Q53.232702039337155,93.81531198959351,52.15580203933716,93.8682119895935Q51.07890203933716,93.92111198959351,50.000702039337156,93.92111198959351Q48.92250203933716,93.92111198959351,47.845502039337156,93.8682119895935Q46.76860203933716,93.81531198959351,45.69560203933716,93.7097119895935Q44.62260203933716,93.6040119895935,43.55600203933716,93.44581198959351Q42.48950203933716,93.28751198959351,41.432002039337156,93.07721198959351Q40.37450203933716,92.8668119895935,39.328602039337156,92.6049119895935Q38.28270203933716,92.3429119895935,37.25090203933716,92.0299119895935Q36.21910203933716,91.71691198959351,35.20390203933716,91.3537119895935Q34.18880203933716,90.99041198959351,33.19260203933716,90.5778119895935Q32.19650203933716,90.1652119895935,31.22180203933716,89.7042119895935Q30.247102039337157,89.2432119895935,29.296202039337157,88.7349119895935Q28.34530203933716,88.22671198959351,27.42050203933716,87.67231198959351Q26.495702039337157,87.11801198959351,25.599202039337158,86.51901198959351Q24.702602039337158,85.9200119895935,23.83660203933716,85.27771198959351Q22.97060203933716,84.6354119895935,22.137102039337158,83.95141198959351Q21.30370203933716,83.26741198959351,20.504702039337158,82.5433119895935Q19.705802039337158,81.81921198959351,18.94340203933716,81.05681198959351Q18.18100203933716,80.2944119895935,17.45690203933716,79.49551198959351Q16.73280203933716,78.6966119895935,16.04884203933716,77.8631119895935Q15.364822039337158,77.02971198959351,14.722532039337159,76.1636119895935Q14.080242039337158,75.2976119895935,13.481222039337158,74.4011119895935Q12.88219203933716,73.5046119895935,12.327882039337158,72.57981198959351Q11.773572039337157,71.6550119895935,11.265302039337158,70.7041119895935Q10.757042039337158,69.7532119895935,10.29604203933716,68.77851198959351Q9.835042039337157,67.8038119895935,9.422432039337158,66.80761198959351Q9.009822039337159,65.8115119895935,8.646582039337158,64.7963119895935Q8.283342039337159,63.781111989593505,7.9703520393371585,62.74931198959351Q7.657362039337158,61.717511989593504,7.3953720393371585,60.67161198959351Q7.133392039337158,59.625711989593505,6.923043039337158,58.56821198959351Q6.712693039337158,57.5107119895935,6.554487039337158,56.444211989593505Q6.396280039337158,55.37771198959351,6.290596039337158,54.3046119895935Q6.184913039337158,53.2316119895935,6.132007539337158,52.15471198959351Q6.079102039337158,51.077811989593506,6.079102039337158,49.999611989593504Q6.079102039337158,48.92141198959351,6.132007539337158,47.8444119895935Q6.184913039337158,46.76751198959351,6.290596039337158,45.69451198959351Q6.396280039337158,44.62151198959351,6.554487039337158,43.554911989593506Q6.712693039337158,42.48841198959351,6.923043039337158,41.430911989593504Q7.133392039337158,40.37341198959351,7.3953720393371585,39.3275119895935Q7.657362039337158,38.28161198959351,7.9703520393371585,37.24981198959351Q8.283342039337159,36.218011989593506,8.646582039337158,35.202811989593506Q9.009822039337159,34.18771198959351,9.422432039337158,33.19151198959351Q9.835042039337157,32.19541198959351,10.29604203933716,31.220711989593507Q10.757042039337158,30.246011989593505,11.265302039337158,29.295111989593504Q11.773572039337157,28.344211989593507,12.327882039337158,27.419411989593506Q12.88219203933716,26.494611989593505,13.481222039337158,25.598111989593505Q14.080242039337158,24.701511989593506,14.722532039337159,23.835511989593506Q15.364822039337158,22.969511989593506,16.04884203933716,22.136011989593506Q16.73280203933716,21.302611989593508,17.45690203933716,20.503611989593505Q18.18100203933716,19.704711989593505,18.94340203933716,18.942311989593506Q19.705802039337158,18.179911989593506,20.504702039337158,17.455811989593506Q21.303602039337157,16.731711989593506,22.137102039337158,16.047751989593507Q22.97060203933716,15.363731989593505,23.83660203933716,14.721441989593506Q24.702602039337158,14.079151989593505,25.599202039337158,13.480131989593506Q26.495702039337157,12.881101989593507,27.42050203933716,12.326791989593506Q28.34530203933716,11.772481989593505,29.296202039337157,11.264211989593505Q30.247102039337157,10.755951989593505,31.22180203933716,10.294951989593507Q32.19650203933716,9.833951989593505,33.19260203933716,9.421341989593506Q34.18880203933716,9.008731989593507,35.20390203933716,8.645491989593506Q36.21910203933716,8.282251989593506,37.25090203933716,7.969261989593506Q38.28270203933716,7.656271989593506,39.328602039337156,7.394281989593506Q40.37450203933716,7.132301989593506,41.432002039337156,6.921952989593506Q42.48950203933716,6.711602989593506,43.55600203933716,6.553396989593506Q44.62260203933716,6.395189989593506,45.69560203933716,6.289505989593506Q46.76860203933716,6.183822989593506,47.845502039337156,6.1309174895935055Q48.92250203933716,6.078011989593506,50.000702039337156,6.078011989593506Q51.07890203933716,6.078011989593506,52.15580203933716,6.1309174895935055Q53.232702039337155,6.183822989593506,54.305702039337156,6.289505989593506Q55.37880203933716,6.395189989593506,56.44530203933716,6.553396989593506Q57.511802039337155,6.711602989593506,58.56930203933716,6.921952989593506Q59.62680203933716,7.132301989593506,60.67270203933716,7.394281989593506Q61.718602039337156,7.656271989593506,62.75040203933716,7.969261989593506Q63.78220203933716,8.282251989593506,64.79740203933716,8.645491989593506Q65.81260203933715,9.008731989593507,66.80870203933716,9.421341989593506Q67.80490203933715,9.833951989593505,68.77960203933716,10.294951989593507Q69.75430203933715,10.755951989593505,70.70520203933715,11.264211989593505Q71.65610203933716,11.772481989593505,72.58090203933716,12.326791989593506Q73.50570203933715,12.881101989593507,74.40220203933715,13.480131989593506Q75.29870203933716,14.079151989593505,76.16470203933716,14.721441989593506Q77.03080203933716,15.363731989593505,77.86420203933716,16.047751989593507Q78.69770203933716,16.731711989593506,79.49660203933716,17.455811989593506Q80.29550203933715,18.179911989593506,81.05790203933716,18.942311989593506Q81.82030203933716,19.704711989593505,82.54440203933716,20.503611989593505Q83.26850203933716,21.302511989593505,83.95250203933716,22.136011989593506Q84.63650203933716,22.969511989593506,85.27880203933717,23.835511989593506Q85.92110203933716,24.701511989593506,86.52010203933716,25.598111989593505Q87.11910203933716,26.494611989593505,87.67340203933716,27.419411989593506Q88.22780203933716,28.344211989593507,88.73600203933715,29.295111989593504Q89.24430203933716,30.246011989593505,89.70530203933716,31.220711989593507Q90.16630203933715,32.19541198959351,90.57890203933715,33.19151198959351Q90.99150203933716,34.18771198959351,91.35480203933716,35.202811989593506Q91.71800203933716,36.218011989593506,92.03100203933715,37.24981198959351Q92.34400203933716,38.28161198959351,92.60600203933716,39.3275119895935Q92.86790203933715,40.37341198959351,93.07830203933716,41.430911989593504Q93.28860203933716,42.48841198959351,93.44690203933716,43.554911989593506Q93.60510203933715,44.62151198959351,93.71080203933715,45.69451198959351Q93.81640203933716,46.76751198959351,93.86930203933716,47.8444119895935Q93.92220203933717,48.92141198959351,93.92220203933717,49.999611989593504Z" fill="#59B95A" fill-opacity="1"/></g><g><path d="M27.990194307617188,51.51881120605469C27.30552630761719,52.21921120605469,27.230949307617188,53.26921120605469,27.748392307617188,54.03431120605469L28.006345307617188,54.34291120605469L41.98369030761719,68.00411120605469C42.65809030761719,68.66321120605468,43.68489030761719,68.74631120605468,44.44819030761719,68.25291120605469L44.757390307617186,68.0061112060547L72.11159030761718,41.34927120605469C72.79009030761719,40.67077120605469,72.87489030761719,39.62339120605469,72.36599030761718,38.85268120605469L72.11159030761718,38.54119120605469L67.89409030761719,34.323684206054686C67.22369030761719,33.65330700605469,66.19139030761718,33.56146420605469,65.42189030761719,34.05345320605469L65.10999030761718,34.300064206054685L44.05759030761719,54.64991120605469C43.73759030761718,54.95921120605469,43.26149030761719,55.01141120605469,42.88889030761719,54.80611120605469L42.679690307617186,54.65201120605469L34.993710307617185,47.267311206054686C34.311540307617186,46.61181120605469,33.28024030761719,46.53941120605469,32.52092030761719,47.04361120605469L32.213960307617185,47.29501120605469L27.990194307617188,51.51881120605469Z" fill="#FFFFFF" fill-opacity="1" style="mix-blend-mode:passthrough"/></g></g></svg>