<svg xmlns="http://www.w3.org/2000/svg" xmlns:xlink="http://www.w3.org/1999/xlink" fill="none" version="1.1" width="30" height="30" viewBox="0 0 30 30"><defs><clipPath id="master_svg0_97_5386"><rect x="0" y="0" width="30" height="30" rx="0"/></clipPath></defs><g clip-path="url(#master_svg0_97_5386)"><g><g><path d="M22.599996746673582,8.17458L22.599996746673582,12.8L24.399956746673585,12.8L24.399956746673585,6Q24.399956746673585,5.9113578,24.382656746673582,5.824419Q24.365456746673583,5.73748,24.331456746673584,5.655585Q24.297556746673585,5.57369,24.248356746673586,5.499987Q24.199056746673584,5.426284,24.136356746673584,5.3636040000000005Q24.073756746673585,5.300924,24.000056746673586,5.251677Q23.926356746673584,5.20243,23.844456746673586,5.168509Q23.76255674667358,5.134587,23.675556746673585,5.117293Q23.588656746673585,5.1,23.499956746673583,5.1L16.707936746673585,5.1L16.707936746673585,6.9L21.32899674667358,6.9L12.675090746673584,15.56397L13.948622746673584,16.836L22.599996746673582,8.17458Z" fill-rule="evenodd" fill="currentColor" fill-opacity="1"/></g><g><path d="M7.4,6.9L13.292159999999999,6.9L13.292159999999999,5.1L6.5,5.1Q6.4113578,5.1,6.324419,5.117293Q6.23748,5.134587,6.155585,5.168509Q6.07369,5.20243,5.999987,5.251678Q5.926284,5.300924,5.8636040000000005,5.3636040000000005Q5.800924,5.426284,5.751677,5.499987Q5.70243,5.57369,5.668509,5.655585Q5.634587,5.73748,5.617293,5.824419Q5.6,5.9113578,5.6,6L5.6,23Q5.6,23.0886,5.617293,23.1756Q5.634587,23.2625,5.668509,23.3444Q5.70243,23.4263,5.751678,23.5Q5.800924,23.5737,5.8636040000000005,23.6364Q5.926284,23.6991,5.999987,23.7483Q6.07369,23.7976,6.155585,23.8315Q6.23748,23.8654,6.324419,23.8827Q6.4113578,23.9,6.5,23.9L23.4804,23.9Q23.5691,23.9,23.656,23.8827Q23.7429,23.8654,23.8248,23.8315Q23.9067,23.7976,23.9804,23.7483Q24.0541,23.6991,24.1168,23.6364Q24.1795,23.5737,24.2287,23.5Q24.278,23.4263,24.3119,23.3444Q24.3458,23.2625,24.3631,23.1756Q24.3804,23.0886,24.3804,23L24.3804,16.2L22.5804,16.2L22.5804,22.1L7.4,22.1L7.4,6.9Z" fill-rule="evenodd" fill="currentColor" fill-opacity="1"/></g></g></g></svg>