<svg xmlns="http://www.w3.org/2000/svg" xmlns:xlink="http://www.w3.org/1999/xlink" fill="none" version="1.1" width="24" height="24" viewBox="0 0 24 24"><g><g></g><g><path d="M16.340859375,15.639347076416016L17.130859375,15.639347076416016L19.369659374999998,17.870847076416016L17.879659375,19.360847076416015L15.630859375,17.139347076416016L15.630859375,16.349347076416016L15.360859375,16.069347076416015C14.220859375,17.049347076416016,12.740859375,17.639347076416016,11.130859375,17.639347076416016C7.540859375,17.639347076416016,4.630859375,14.729347076416015,4.630859375,11.139347076416016C4.630859375,7.549347076416016,7.540859375,4.639347076416016,11.130859375,4.639347076416016C14.720859375,4.639347076416016,17.630859375,7.549347076416016,17.630859375,11.139347076416016C17.630859375,12.749347076416015,17.040859375,14.229347076416015,16.060859375,15.369347076416016L16.340859375,15.639347076416016ZM6.180539375,11.139367076416015C6.180539375,13.878557076416016,8.391689375,16.089747076416018,11.130879375,16.089747076416018C13.870069375,16.089747076416018,16.081259375000002,13.878557076416016,16.081259375000002,11.139367076416015C16.081259375000002,8.400177076416016,13.870069375,6.189027076416016,11.130879375,6.189027076416016C8.391689375,6.189027076416016,6.180539375,8.400177076416016,6.180539375,11.139367076416015Z" fill-rule="evenodd" fill="#747683" fill-opacity="1"/></g></g></svg>