<svg xmlns="http://www.w3.org/2000/svg" xmlns:xlink="http://www.w3.org/1999/xlink" fill="none" version="1.1" width="18" height="18" viewBox="0 0 18 18"><defs><clipPath id="master_svg0_86_33272"><rect x="0" y="0" width="18" height="18" rx="0"/></clipPath></defs><g clip-path="url(#master_svg0_86_33272)"><g style="opacity:0.20000000298023224;"></g><g><path d="M9.18750140625,10.081636743621825C10.593501406249999,10.019626743621826,11.64648140625,8.748626743621827,11.64648140625,7.340636743621826C11.64648140625,7.340636743621826,11.64648140625,5.743636743621826,11.64648140625,5.743636743621826C11.64648140625,4.335636743621826,10.593501406249999,3.064636243621826,9.18750140625,3.002624553621826C7.71252140625,2.937637343621826,6.49658140625,4.114626743621827,6.49658140625,5.574626743621826C6.49658140625,5.574626743621826,6.49658140625,7.508636743621826,6.49658140625,7.508636743621826C6.49658140625,8.969636743621827,7.71252140625,10.146636743621826,9.18750140625,10.081636743621825C9.18750140625,10.081636743621825,9.18750140625,10.081636743621825,9.18750140625,10.081636743621825ZM14.89559140625,12.535636743621826C14.89559140625,12.535636743621826,10.622681406249999,10.371636743621826,10.622681406249999,10.371636743621826C10.16174140625,10.657636743621826,9.622681406249999,10.830636743621827,9.04065140625,10.830636743621827C9.04065140625,10.830636743621827,8.95972140625,10.830636743621827,8.95972140625,10.830636743621827C8.37768140625,10.830636743621827,7.83874140625,10.657636743621826,7.37768140625,10.371636743621826C7.37768140625,10.371636743621826,3.10571240625,12.535636743621826,3.10571240625,12.535636743621826C2.82666040625,12.720636743621826,2.65869140625,13.032656743621827,2.65869140625,13.367656743621826C2.65869140625,13.367656743621826,2.65869140625,14.415656743621826,2.65869140625,14.415656743621826C2.65869140625,14.738656743621826,2.92065440625,14.999656743621825,3.24267540625,14.999656743621825C3.24267540625,14.999656743621825,14.75769140625,14.999656743621825,14.75769140625,14.999656743621825C15.08069140625,14.999656743621825,15.34269140625,14.738656743621826,15.34269140625,14.415656743621826C15.34269140625,14.415656743621826,15.34269140625,13.367656743621826,15.34269140625,13.367656743621826C15.34269140625,13.032656743621827,15.17469140625,12.720636743621826,14.89559140625,12.535636743621826C14.89559140625,12.535636743621826,14.89559140625,12.535636743621826,14.89559140625,12.535636743621826Z" fill="#327EDC" fill-opacity="1"/></g></g></svg>