<svg xmlns="http://www.w3.org/2000/svg" width="20" height="20" viewBox="0 0 20 20"><defs><style>.a,.b,.c{fill:none;}.b{stroke:#c0c6d2;}.b,.c{stroke-linecap:round;}.d{fill:#c0c6d2;}.e,.f{stroke:none;}.f{fill:#c0c6d2;}</style></defs><g transform="translate(2 2)"><rect class="a" width="20" height="20" transform="translate(-2 -2)"/><g class="b" transform="translate(-0.12 1)"><rect class="e" width="16.24" height="2"/><rect class="a" x="0.5" y="0.5" width="15.24" height="1"/></g><g class="c" transform="translate(11.8 4.527)"><path class="e" d="M0,0H2V7.712L0,10.848Z"/><path class="f" d="M 1 1.000002861022949 L 1 7.419895172119141 L 1 1.000002861022949 M 0 2.86102294921875e-06 L 2 2.86102294921875e-06 L 2 7.711562156677246 L 0 10.84846210479736 L 0 2.86102294921875e-06 Z"/></g><g class="b" transform="translate(-0.12 7)"><rect class="e" width="8.5" height="2"/><rect class="a" x="0.5" y="0.5" width="7.5" height="1"/></g><g class="b" transform="translate(-0.12 13.375)"><rect class="e" width="8.5" height="2"/><rect class="a" x="0.5" y="0.5" width="7.5" height="1"/></g><path class="d" d="M0,0V4.614L4.834,0Z" transform="translate(11.8 11.513)"/></g></svg>