<svg xmlns="http://www.w3.org/2000/svg" width="54" height="64" viewBox="0 0 54 64"><defs><style>.a{fill:none;opacity:0.54;}.b{fill:#6497ee;}.c{fill:#e5e9f9;}.d{fill:#fff;}</style></defs><g transform="translate(-223 -141)"><rect class="a" width="54" height="64" transform="translate(223 141)"/><g transform="translate(224.651 142.601)"><g transform="translate(0 0)"><g transform="translate(0 0.025)"><path class="b" d="M3363.158,3439.119h-43.8a3.341,3.341,0,0,1-3.429-3.246v-54.279a3.341,3.341,0,0,1,3.429-3.247h31.906l15.325,13.311v44.215A3.344,3.344,0,0,1,3363.158,3439.119Z" transform="translate(-3315.93 -3378.347)"/></g><g transform="translate(35.353)"><path class="c" d="M3353.791,3391.738h-15.308v-13.413Z" transform="translate(-3338.482 -3378.325)"/></g></g><path class="d" d="M20.261,8.961,12.092.681a2.289,2.289,0,0,0-3.259,0L.664,8.961a2.289,2.289,0,0,0,1.63,3.9H6.863v8.765A1.468,1.468,0,0,0,8.33,23.091h4.264a1.468,1.468,0,0,0,1.468-1.468V12.858h4.569a2.289,2.289,0,0,0,1.63-3.9" transform="translate(14.869 21.456)"/></g></g></svg>