<svg xmlns="http://www.w3.org/2000/svg" xmlns:xlink="http://www.w3.org/1999/xlink" fill="none" version="1.1" width="22" height="22" viewBox="0 0 22 22"><defs><clipPath id="master_svg0_350_26780"><rect x="0" y="0" width="22" height="22" rx="0"/></clipPath><filter id="master_svg1_350_26780/350_25503" filterUnits="objectBoundingBox" color-interpolation-filters="sRGB" x="-0.2452509999017878" y="-0.11541223432823366" width="1.4905019998035756" height="1.4616489373129347"><feFlood flood-opacity="0" result="BackgroundImageFix"/><feColorMatrix in="SourceAlpha" type="matrix" values="0 0 0 0 0 0 0 0 0 0 0 0 0 0 0 0 0 0 127 0"/><feOffset dy="0.8632835149765015" dx="0"/><feGaussianBlur stdDeviation="0.43164175748825073"/><feColorMatrix type="matrix" values="0 0 0 0 0.22745098173618317 0 0 0 0 0.6352941393852234 0 0 0 0 0.5215686559677124 0 0 0 1 0"/><feBlend mode="normal" in2="BackgroundImageFix" result="effect1_dropShadow"/><feBlend mode="normal" in="SourceGraphic" in2="effect1_dropShadow" result="shape"/></filter></defs><g clip-path="url(#master_svg0_350_26780)"><g><g><g><g><path d="M17.8467560546875,20.6799462890625C17.8467560546875,20.6799462890625,4.1522660546875,20.6799462890625,4.1522660546875,20.6799462890625C3.5596960546875,20.6799462890625,3.0799560546875,20.2168462890625,3.0799560546875,19.6457462890625C3.0799560546875,19.6457462890625,3.0799560546875,2.3545962890625,3.0799560546875,2.3545962890625C3.0799560546875,1.7830782890624999,3.5596960546875,1.3199462890625,4.1522660546875,1.3199462890625C4.1522660546875,1.3199462890625,14.0799560546875,1.3199462890625,14.0799560546875,1.3199462890625C14.0799560546875,1.3199462890625,18.9199560546875,5.7199462890625,18.9199560546875,5.7199462890625C18.9199560546875,5.7199462890625,18.9199560546875,19.6457462890625,18.9199560546875,19.6457462890625C18.9199560546875,20.2168462890625,18.4395560546875,20.6799462890625,17.8467560546875,20.6799462890625C17.8467560546875,20.6799462890625,17.8467560546875,20.6799462890625,17.8467560546875,20.6799462890625Z" fill="#45D2AB" fill-opacity="1"/></g></g><g><g><path d="M18.9199560546875,5.7199462890625C18.9199560546875,5.7199462890625,14.0799560546875,5.7199462890625,14.0799560546875,5.7199462890625C14.0799560546875,5.7199462890625,14.0799560546875,1.3199462890625,14.0799560546875,1.3199462890625C14.0799560546875,1.3199462890625,18.9199560546875,5.7199462890625,18.9199560546875,5.7199462890625C18.9199560546875,5.7199462890625,18.9199560546875,5.7199462890625,18.9199560546875,5.7199462890625Z" fill="#85F4D6" fill-opacity="1"/></g></g></g><g filter="url(#master_svg1_350_26780/350_25503)"><path d="M14.0800390625,7.83631546875C14.0800390625,7.72724446875,14.0296590625,7.62373046875,13.9425790625,7.5567443687499996C13.8554890625,7.48883230875,13.7432590625,7.46423986875,13.6345790625,7.48996416875C13.6345790625,7.48996416875,9.1221390625,8.55845046875,9.1221390625,8.55845046875C8.9597490625,8.59703046875,8.8450190625,8.73996046875,8.8450190625,8.90470046875C8.8450190625,8.90470046875,8.8450190625,13.00082046875,8.8450190625,13.00082046875C8.8450190625,13.00082046875,8.0330590625,13.00082046875,8.0330590625,13.00082046875C7.4854950625,13.00082046875,7.0400390625,13.44029046875,7.0400390625,13.98050046875C7.0400390625,14.520400468750001,7.4854950625,14.95998046875,8.0330590625,14.95998046875C8.0330590625,14.95998046875,8.5567390625,14.95998046875,8.5567390625,14.95998046875C9.1143190625,14.95998046875,9.5671790625,14.51207046875,9.5671790625,13.96198046875C9.5671790625,13.96198046875,9.5671790625,13.89284046875,9.5671790625,13.89284046875C9.5671790625,13.89284046875,9.5675890625,13.89150046875,9.5675890625,13.89150046875C9.5675890625,13.89150046875,9.5675890625,10.619270468749999,9.5675890625,10.619270468749999C9.5675890625,10.619270468749999,13.3580890625,9.73384046875,13.3580890625,9.73384046875C13.3580890625,9.73384046875,13.3580890625,12.288980468750001,13.3580890625,12.288980468750001C13.3580890625,12.288980468750001,12.3650690625,12.288980468750001,12.3650690625,12.288980468750001C11.8178190625,12.288980468750001,11.3722590625,12.727420468750001,11.3722590625,13.26784046875C11.3722590625,13.807530468749999,11.8178190625,14.24721046875,12.3650690625,14.24721046875C12.3650690625,14.24721046875,13.0691890625,14.24721046875,13.0691890625,14.24721046875C13.6267590625,14.24721046875,14.0796190625,13.80054046875,14.0796190625,13.25045046875C14.0796190625,13.25045046875,14.0796190625,13.127380468750001,14.0796190625,13.127380468750001C14.0796190625,13.127380468750001,14.0800390625,13.12430046875,14.0800390625,13.12430046875C14.0800390625,13.12430046875,14.0800390625,7.83631546875,14.0800390625,7.83631546875C14.0800390625,7.83631546875,14.0800390625,7.83631546875,14.0800390625,7.83631546875ZM9.5675890625,9.887050468750001C9.5675890625,9.887050468750001,9.5675890625,9.18560046875,9.5675890625,9.18560046875C9.5675890625,9.18560046875,13.3580890625,8.28782746875,13.3580890625,8.28782746875C13.3580890625,8.28782746875,13.3580890625,9.00142046875,13.3580890625,9.00142046875C13.3580890625,9.00142046875,9.5675890625,9.887050468750001,9.5675890625,9.887050468750001C9.5675890625,9.887050468750001,9.5675890625,9.887050468750001,9.5675890625,9.887050468750001Z" fill="#FFFFFF" fill-opacity="1"/></g></g></g></svg>