<svg xmlns="http://www.w3.org/2000/svg" xmlns:xlink="http://www.w3.org/1999/xlink" fill="none" version="1.1" width="22" height="22" viewBox="0 0 22 22"><defs><clipPath id="master_svg0_350_26771"><rect x="0" y="0" width="22" height="22" rx="0"/></clipPath><filter id="master_svg1_350_26771/350_24914" filterUnits="objectBoundingBox" color-interpolation-filters="sRGB" x="-0.33333331326442955" y="-0.24444443303861704" width="1.6666666265288592" height="1.7333333156726973"><feFlood flood-opacity="0" result="BackgroundImageFix"/><feColorMatrix in="SourceAlpha" type="matrix" values="0 0 0 0 0 0 0 0 0 0 0 0 0 0 0 0 0 0 127 0"/><feOffset dy="0.8799999952316284" dx="0"/><feGaussianBlur stdDeviation="0.6599999666213989"/><feColorMatrix type="matrix" values="0 0 0 0 0.8432540893554688 0 0 0 0 0.36125704646110535 0 0 0 0 0.17830923199653625 0 0 0 1 0"/><feBlend mode="normal" in2="BackgroundImageFix" result="effect1_dropShadow"/><feBlend mode="normal" in="SourceGraphic" in2="effect1_dropShadow" result="shape"/></filter></defs><g clip-path="url(#master_svg0_350_26771)"><g><g><g><g><path d="M17.8467560546875,20.6799462890625C17.8467560546875,20.6799462890625,4.1522660546875,20.6799462890625,4.1522660546875,20.6799462890625C3.5596960546875,20.6799462890625,3.0799560546875,20.2168462890625,3.0799560546875,19.6457462890625C3.0799560546875,19.6457462890625,3.0799560546875,2.3545962890625,3.0799560546875,2.3545962890625C3.0799560546875,1.7830782890624999,3.5596960546875,1.3199462890625,4.1522660546875,1.3199462890625C4.1522660546875,1.3199462890625,14.0799560546875,1.3199462890625,14.0799560546875,1.3199462890625C14.0799560546875,1.3199462890625,18.9199560546875,5.7199462890625,18.9199560546875,5.7199462890625C18.9199560546875,5.7199462890625,18.9199560546875,19.6457462890625,18.9199560546875,19.6457462890625C18.9199560546875,20.2168462890625,18.4395560546875,20.6799462890625,17.8467560546875,20.6799462890625Z" fill="#FC733F" fill-opacity="1"/></g></g><g><g><path d="M18.9199560546875,5.7199462890625C18.9199560546875,5.7199462890625,14.0799560546875,5.7199462890625,14.0799560546875,5.7199462890625C14.0799560546875,5.7199462890625,14.0799560546875,1.3199462890625,14.0799560546875,1.3199462890625C14.0799560546875,1.3199462890625,18.9199560546875,5.7199462890625,18.9199560546875,5.7199462890625Z" fill="#FFB496" fill-opacity="1"/></g></g></g><g filter="url(#master_svg1_350_26771/350_24914)"><path d="M7.0400390625,14.240041875C7.0400390625,14.726051875,7.4340280625,15.120041875,7.9200390625,15.120041875L14.0800390625,15.120041875C14.5660490625,15.120041875,14.9600390625,14.726051875,14.9600390625,14.240041875L14.9600390625,12.738181875L13.5987490625,11.363161875Q13.3426890625,11.104521875,12.9806890625,11.094941875Q12.6186990625,11.085361875,12.3495790625,11.330111875L10.0826390625,13.391781875Q9.6341190625,13.799691875,9.0307890625,13.783731875Q8.4274590625,13.767761875,8.0006940625,13.336681875L7.0400390625,12.366321875L7.0400390625,14.240041875ZM7.0400390625,11.501911875L8.4285790625,12.904481875Q8.6846390625,13.163121875,9.0466390625,13.172701875Q9.408629062500001,13.182281875000001,9.6777490625,12.937531875000001L11.9446890625,10.875861875Q12.3932090625,10.467951875,12.9965390625,10.483911875Q13.5998690625,10.499881875,14.0266290625,10.930951875L14.9600390625,11.873771875L14.9600390625,8.800043875C14.9600390625,8.314033875,14.5660490625,7.920043945,14.0800390625,7.920043945L7.9200390625,7.920043945C7.4340280625,7.920043945,7.0400390625,8.314033875,7.0400390625,8.800043875L7.0400390625,11.501911875ZM9.8120290625,10.320021875Q9.8120290625,10.398811875,9.7968090625,10.476091875Q9.7815890625,10.553371875,9.7517390625,10.626161875000001Q9.7218890625,10.698961875,9.6785490625,10.764471875Q9.6352090625,10.829991875000001,9.5800590625,10.885701875Q9.5248990625,10.941421875,9.4600390625,10.985191875Q9.3951790625,11.028971875,9.3231090625,11.059121875Q9.2510490625,11.089271875,9.1745390625,11.104651875Q9.0980290625,11.120021874999999,9.0200290625,11.120021874999999Q8.9420190625,11.120021874999999,8.8655190625,11.104651875Q8.7890090625,11.089271875,8.7169390625,11.059121875Q8.6448790625,11.028971875,8.5800190625,10.985191875Q8.5151590625,10.941421875,8.4599990625,10.885701875Q8.4048390625,10.829991875000001,8.3614990625,10.764471875Q8.3181690625,10.698961875,8.2883190625,10.626161875000001Q8.2584590625,10.553371875,8.2432490625,10.476091875Q8.2280290625,10.398811875,8.2280290625,10.320021875Q8.2280290625,10.241221875,8.2432490625,10.163941874999999Q8.2584590625,10.086671875,8.2883190625,10.013871875Q8.3181690625,9.941081875,8.3614990625,9.875561875Q8.4048390625,9.810051875,8.4599990625,9.754331875Q8.5151590625,9.698621875,8.5800190625,9.654841875Q8.6448790625,9.611071875,8.7169390625,9.580911875Q8.7890090625,9.550761875,8.8655190625,9.535391875Q8.9420190625,9.520021875,9.0200290625,9.520021875Q9.0980290625,9.520021875,9.1745390625,9.535391875Q9.2510490625,9.550761875,9.3231090625,9.580911875Q9.3951790625,9.611071875,9.4600390625,9.654841875Q9.5248990625,9.698621875,9.5800590625,9.754331875Q9.6352090625,9.810051875,9.6785490625,9.875561875Q9.7218890625,9.941081875,9.7517390625,10.013871875Q9.7815890625,10.086671875,9.7968090625,10.163941874999999Q9.8120290625,10.241221875,9.8120290625,10.320021875Z" fill-rule="evenodd" fill="#FFFFFF" fill-opacity="1"/></g></g></g></svg>