<svg xmlns="http://www.w3.org/2000/svg" xmlns:xlink="http://www.w3.org/1999/xlink" fill="none" version="1.1" width="22" height="22" viewBox="0 0 22 22"><defs><clipPath id="master_svg0_350_26774"><rect x="0" y="0" width="22" height="22" rx="0"/></clipPath><linearGradient x1="0.2088623046875" y1="0" x2="0.3900791556406048" y2="0.9688236775141064" id="master_svg1_64_4331"><stop offset="0%" stop-color="#FFFFFF" stop-opacity="1"/><stop offset="100%" stop-color="#FFFFFF" stop-opacity="0.6000000238418579"/></linearGradient><filter id="master_svg2_350_26774/350_23592" filterUnits="objectBoundingBox" color-interpolation-filters="sRGB" x="0" y="0" width="1" height="1"><feFlood flood-opacity="0" result="BackgroundImageFix"/><feBlend mode="normal" in="SourceGraphic" in2="BackgroundImageFix" result="shape"/><feColorMatrix in="SourceAlpha" type="matrix" result="hardAlpha" values="0 0 0 0 0 0 0 0 0 0 0 0 0 0 0 0 0 0 127 0"/><feOffset dy="0.21054688096046448" dx="0"/><feGaussianBlur stdDeviation="0.2887499928474426"/><feComposite in2="hardAlpha" operator="arithmetic" k2="-1" k3="1"/><feColorMatrix type="matrix" values="0 0 0 0 1 0 0 0 0 1 0 0 0 0 1 0 0 0 0.5 0"/><feBlend mode="normal" in2="shape" result="effect1_innerShadow"/></filter><linearGradient x1="0.7476187944412231" y1="-0.5487476587295532" x2="0.07699567174200657" y2="0.7877456811251263" id="master_svg3_66_2605"><stop offset="0%" stop-color="#76B3FF" stop-opacity="1"/><stop offset="98.09518456459045%" stop-color="#327EDC" stop-opacity="1"/></linearGradient></defs><g clip-path="url(#master_svg0_350_26774)"><g><g><g><path d="M1.9765527248382568,9.818344560775756L1.9765527248382568,3.837934560775757C1.9765527248382568,3.1089185607757566,2.5675367248382566,2.517934560775757,3.296552724838257,2.517934560775757L8.490182724838256,2.517934560775757C8.816132724838257,2.517934560775757,9.115382724838256,2.698096560775757,9.267902724838258,2.9861565607757568L9.652082724838257,3.711744560775757C9.804602724838258,3.9998045607757566,10.103842724838257,4.1799645607757565,10.429792724838256,4.1799645607757565L18.700752724838257,4.1799645607757565C19.429452724838256,4.1799645607757565,20.020352724838258,4.7609045607757565,20.020752724838257,5.489614560775757Q20.021752724838258,7.051714560775757,20.023452724838258,9.824684560775758C20.023452724838258,10.058274560775757,19.888752724838255,10.247664560775757,19.722652724838255,10.247664560775757L2.277333724838257,10.664284560775757C2.111217724838257,10.664284560775757,1.9765527248382568,10.474904560775757,1.9765527248382568,10.241314560775756L1.9765527248382568,9.818344560775756Z" fill-rule="evenodd" fill="#327EDC" fill-opacity="1"/></g><g><path d="M3.179677724838257,9.702436904525758L3.179677724838257,6.766586904525757C3.179677724838257,6.280575904525757,3.5736667248382568,5.886586904525757,4.059677724838257,5.886586904525757L17.940277724838257,5.886586904525757C18.426277724838258,5.886586904525757,18.820277724838256,6.280575904525757,18.820277724838256,6.766586904525757L18.820277724838256,9.702436904525758C18.820277724838256,10.003506904525757,18.685677724838257,10.247566904525756,18.519477724838257,10.247566904525756L3.480458724838257,10.247566904525756C3.3143417248382567,10.247566904525756,3.179677724838257,10.003506904525757,3.179677724838257,9.702436904525758Z" fill="url(#master_svg1_64_4331)" fill-opacity="1"/></g><g filter="url(#master_svg2_350_26774/350_23592)"><path d="M3.2995427248382567,18.479958974838254L18.700452724838257,18.479958974838254C19.429252724838257,18.479958974838254,20.02015272483826,17.889278974838255,20.020452724838258,17.160438974838257L20.023452724838258,8.292958974838257L1.9765527248382568,8.292958974838257L1.9795449548382569,17.160438974838257C1.9797908948382568,17.889278974838255,2.570702724838257,18.479958974838254,3.2995427248382567,18.479958974838254" fill="url(#master_svg3_66_2605)" fill-opacity="1"/></g></g></g></g></svg>