<svg xmlns="http://www.w3.org/2000/svg" xmlns:xlink="http://www.w3.org/1999/xlink" fill="none" version="1.1" width="22" height="22" viewBox="0 0 22 22"><defs><clipPath id="master_svg0_350_26778"><rect x="0" y="0" width="22" height="22" rx="0"/></clipPath><filter id="master_svg1_350_26778/350_23109" filterUnits="objectBoundingBox" color-interpolation-filters="sRGB" x="-0.42856982511287683" y="-0.2666692134350885" width="1.8571396502257538" height="1.800007658367453"><feFlood flood-opacity="0" result="BackgroundImageFix"/><feColorMatrix in="SourceAlpha" type="matrix" values="0 0 0 0 0 0 0 0 0 0 0 0 0 0 0 0 0 0 127 0"/><feOffset dy="0.8799999952316284" dx="0"/><feGaussianBlur stdDeviation="0.6599999666213989"/><feColorMatrix type="matrix" values="0 0 0 0 0.09034334868192673 0 0 0 0 0.6408731341362 0 0 0 0 0.3961932361125946 0 0 0 1 0"/><feBlend mode="normal" in2="BackgroundImageFix" result="effect1_dropShadow"/><feBlend mode="normal" in="SourceGraphic" in2="effect1_dropShadow" result="shape"/></filter></defs><g clip-path="url(#master_svg0_350_26778)"><g><g><g><g><path d="M17.8467560546875,20.6799462890625C17.8467560546875,20.6799462890625,4.1522660546875,20.6799462890625,4.1522660546875,20.6799462890625C3.5596960546875,20.6799462890625,3.0799560546875,20.2168462890625,3.0799560546875,19.6457462890625C3.0799560546875,19.6457462890625,3.0799560546875,2.3545962890625,3.0799560546875,2.3545962890625C3.0799560546875,1.7830782890624999,3.5596960546875,1.3199462890625,4.1522660546875,1.3199462890625C4.1522660546875,1.3199462890625,14.0799560546875,1.3199462890625,14.0799560546875,1.3199462890625C14.0799560546875,1.3199462890625,18.9199560546875,5.7199462890625,18.9199560546875,5.7199462890625C18.9199560546875,5.7199462890625,18.9199560546875,19.6457462890625,18.9199560546875,19.6457462890625C18.9199560546875,20.2168462890625,18.4395560546875,20.6799462890625,17.8467560546875,20.6799462890625C17.8467560546875,20.6799462890625,17.8467560546875,20.6799462890625,17.8467560546875,20.6799462890625Z" fill="#21BA76" fill-opacity="1"/></g></g><g><g><path d="M18.9199560546875,5.7199462890625C18.9199560546875,5.7199462890625,14.0799560546875,5.7199462890625,14.0799560546875,5.7199462890625C14.0799560546875,5.7199462890625,14.0799560546875,1.3199462890625,14.0799560546875,1.3199462890625C14.0799560546875,1.3199462890625,18.9199560546875,5.7199462890625,18.9199560546875,5.7199462890625C18.9199560546875,5.7199462890625,18.9199560546875,5.7199462890625,18.9199560546875,5.7199462890625Z" fill="#65ECB0" fill-opacity="1"/></g></g></g><g filter="url(#master_svg1_350_26778/350_23109)"><path d="M11.49805103149414,11.219830977172851L13.990481031494141,8.495053977172851C14.12596103149414,8.346936977172852,14.10490103149414,8.126110977172852,13.943431031494141,8.001825677172851C13.781971031494141,7.8775405771728515,13.541241031494142,7.896860177172852,13.405751031494141,8.044977977172852L10.99984103149414,10.675180977172852L8.59401803149414,8.045066977172851C8.458543031494141,7.896961977172851,8.21783603149414,7.877643877172852,8.056383031494141,8.001918577172852C7.894930331494141,8.12619297717285,7.873871231494141,8.346999977172851,8.009346031494141,8.49510497717285L10.50168103149414,11.219790977172853L8.00916673149414,13.944670977172851C7.873679631494141,14.09278097717285,7.894741531494141,14.313610977172852,8.05620803149414,14.437890977172852C8.21767503149414,14.56218097717285,8.458403031494141,14.54286097717285,8.593889031494141,14.394740977172852L10.99989103149414,11.764440977172852L13.405931031494141,14.394790977172851C13.54140103149414,14.542890977172853,13.78211103149414,14.562210977172851,13.943561031494141,14.43794097717285C14.10501103149414,14.313660977172852,14.126081031494142,14.092860977172851,13.99060103149414,13.944750977172852L11.49805103149414,11.219830977172851Z" fill-rule="evenodd" fill="#FFFFFF" fill-opacity="1"/></g></g></g></svg>