<svg xmlns="http://www.w3.org/2000/svg" xmlns:xlink="http://www.w3.org/1999/xlink" fill="none" version="1.1" width="22" height="22" viewBox="0 0 22 22"><defs><clipPath id="master_svg0_350_26776"><rect x="0" y="0" width="22" height="22" rx="0"/></clipPath><filter id="master_svg1_350_26776/350_23347" filterUnits="objectBoundingBox" color-interpolation-filters="sRGB" x="-0.5454545006726951" y="-0.2105263090349808" width="2.09090900134539" height="1.6315789413644273"><feFlood flood-opacity="0" result="BackgroundImageFix"/><feColorMatrix in="SourceAlpha" type="matrix" values="0 0 0 0 0 0 0 0 0 0 0 0 0 0 0 0 0 0 127 0"/><feOffset dy="0.8799999952316284" dx="0"/><feGaussianBlur stdDeviation="0.6599999666213989"/><feColorMatrix type="matrix" values="0 0 0 0 0.6260926723480225 0 0 0 0 0.6725397706031799 0 0 0 0 0.7480159997940063 0 0 0 1 0"/><feBlend mode="normal" in2="BackgroundImageFix" result="effect1_dropShadow"/><feBlend mode="normal" in="SourceGraphic" in2="effect1_dropShadow" result="shape"/></filter></defs><g clip-path="url(#master_svg0_350_26776)"><g><g><g><g><path d="M17.8467560546875,20.6799462890625C17.8467560546875,20.6799462890625,4.1522660546875,20.6799462890625,4.1522660546875,20.6799462890625C3.5596960546875,20.6799462890625,3.0799560546875,20.2168462890625,3.0799560546875,19.6457462890625C3.0799560546875,19.6457462890625,3.0799560546875,2.3545962890625,3.0799560546875,2.3545962890625C3.0799560546875,1.7830782890624999,3.5596960546875,1.3199462890625,4.1522660546875,1.3199462890625C4.1522660546875,1.3199462890625,14.0799560546875,1.3199462890625,14.0799560546875,1.3199462890625C14.0799560546875,1.3199462890625,18.9199560546875,5.7199462890625,18.9199560546875,5.7199462890625C18.9199560546875,5.7199462890625,18.9199560546875,19.6457462890625,18.9199560546875,19.6457462890625C18.9199560546875,20.2168462890625,18.4395560546875,20.6799462890625,17.8467560546875,20.6799462890625C17.8467560546875,20.6799462890625,17.8467560546875,20.6799462890625,17.8467560546875,20.6799462890625Z" fill="#BFC9D3" fill-opacity="1"/></g></g><g><g><path d="M18.9199560546875,5.7199462890625C18.9199560546875,5.7199462890625,14.0799560546875,5.7199462890625,14.0799560546875,5.7199462890625C14.0799560546875,5.7199462890625,14.0799560546875,1.3199462890625,14.0799560546875,1.3199462890625C14.0799560546875,1.3199462890625,18.9199560546875,5.7199462890625,18.9199560546875,5.7199462890625C18.9199560546875,5.7199462890625,18.9199560546875,5.7199462890625,18.9199560546875,5.7199462890625Z" fill="#E0E8F1" fill-opacity="1"/></g></g></g><g filter="url(#master_svg1_350_26776/350_23347)"><path d="M10.1881653515625,12.271775585937501Q10.1016153515625,11.812655585937499,10.2114853515625,11.4553555859375Q10.321345351562499,11.0978755859375,10.5492153515625,10.8048755859375Q10.7772453515625,10.511695585937499,11.0561553515625,10.257755585937499Q11.3352453515625,10.0036355859375,11.5938353515625,9.7606055859375Q11.8526053515625,9.5173955859375,12.0204153515625,9.2556055859375Q12.1883953515625,8.9938055859375,12.1883953515625,8.6827255859375Q12.1883953515625,8.3209955859375,12.0361353515625,8.0353255859375Q11.8840453515625,7.7494755859375,11.5789953515625,7.5877995859375Q11.2739453515625,7.4261185859375,10.7908453515625,7.4261185859375Q9.8317153515625,7.4261185859375,8.9644333515625,8.326445585937499L8.3599853515625,7.7835855859375Q8.7065453515625,7.4300405859375,9.0827793515625,7.1668825859375005Q9.459015351562499,6.9037245859375,9.9064353515625,6.7519355859375Q10.3540253515625,6.5999755859375,10.8971853515625,6.5999755859375Q11.6024953515625,6.5999755859375,12.1195053515625,6.8459085859375Q12.636515351562501,7.0916705859375,12.9182553515625,7.5386805859375Q13.1999853515625,7.9856955859375,13.1999853515625,8.6013755859375Q13.1999853515625,9.0185355859375,13.0298853515625,9.3420755859375Q12.8597853515625,9.6654355859375,12.5932453515625,9.9313255859375Q12.326695351562499,10.1972055859375,12.043195351562499,10.444505585937499Q11.7598753515625,10.6918055859375,11.5217653515625,10.956835585937501Q11.2838353515625,11.2216955859375,11.1616053515625,11.5411355859375Q11.0395553515625,11.8605755859375,11.110385351562499,12.271775585937501L10.1881653515625,12.271775585937501ZM10.6700253515625,14.9599755859375Q10.3681553515625,14.9599755859375,10.1561953515625,14.7665755859375Q9.9444053515625,14.573165585937499,9.9444053515625,14.246055585937501Q9.9444053515625,13.9189355859375,10.1584953515625,13.716495585937501Q10.3725753515625,13.5140555859375,10.6700253515625,13.5140555859375Q10.9674853515625,13.5140555859375,11.1813953515625,13.716495585937501Q11.3954753515625,13.9189355859375,11.3954753515625,14.246055585937501Q11.3954753515625,14.573165585937499,11.1813953515625,14.7665755859375Q10.9674853515625,14.9599755859375,10.6700253515625,14.9599755859375Z" fill="#FFFFFF" fill-opacity="1"/></g></g></g></svg>