<svg xmlns="http://www.w3.org/2000/svg" xmlns:xlink="http://www.w3.org/1999/xlink" width="216" height="168" viewBox="0 0 216 168"><defs><style>.a,.c{fill:none;}.a{stroke:#707070;}.b{clip-path:url(#a);}.d{fill:#d0e2ed;}.e{fill:#edf4f9;}.f{fill:#e2edf4;}.g{fill:#eff5f9;}.h{fill:#fff;}.i{fill:#4589ff;}.j{fill:#5d98ff;}.k{fill:#1055cc;}.l{fill:#2e70e2;}.m{fill:#5cb0ff;}.n{fill:#badcff;}.o{fill:#8dc7ff;}.p{fill:#e2f1ff;}.q{fill:#d4e3ed;}.r{fill:#f6f9fc;}.s{fill:#b9d1e1;}.t{fill:#e5eef4;}.u{fill:#0dbc9c;}.v{fill:#008f68;}</style><clipPath id="a"><rect class="a" width="216" height="168" transform="translate(-0.564 150.477)"/></clipPath></defs><g class="b" transform="translate(0.564 -150.477)"><g transform="translate(-58.024 152.232)"><path class="c" d="M0,165.887a165.887,165.887,0,0,1,331.774,0"/><g transform="translate(108.235 138.357)"><rect class="d" width="32.022" height="0.926" transform="translate(2.438 5.415)"/><rect class="e" width="36.898" height="5.415"/><rect class="e" width="32.022" height="21.521" transform="translate(2.438 6.009)"/><rect class="d" width="10.752" height="3.929" rx="1.964" transform="translate(12.996 11.053)"/></g><g transform="translate(186.468 131.029)"><rect class="e" width="47.307" height="28.831" transform="translate(2.564 5.972)"/><g transform="translate(2.564 5.972)"><path class="f" d="M47.307,0H0V13.994L13.243,28.831H47.307Z"/></g><g transform="translate(25.884)"><rect class="f" width="3.386" height="12.443" rx="1.593" transform="translate(17.534)"/><rect class="d" width="3.386" height="12.443" rx="1.593" transform="translate(14.147)"/><rect class="f" width="3.386" height="12.443" rx="1.593" transform="translate(10.761 1.467)"/><rect class="d" width="3.386" height="12.443" rx="1.593" transform="translate(7.374)"/><rect class="d" width="3.386" height="12.443" rx="1.593" transform="translate(0 1.737)"/></g><rect class="d" width="47.307" height="1.629" transform="translate(2.564 17.207)"/><path class="e" d="M49.87,0H2.564L0,11.235H52.434Z" transform="translate(0 5.972)"/></g><g transform="translate(135.099 97.195)"><path class="g" d="M11.817.044.3,5.307a.52.52,0,0,0,0,.939l17.456,7.924a.48.48,0,0,0,.407,0L29.79,8.6a.52.52,0,0,0-.017-.939L12.208.04A.478.478,0,0,0,11.817.044Z" transform="translate(0 0)"/><path class="h" d="M16.91,7.9,3.428,6.968,0,.163.3,0,3.641,6.631l13.291.917Z" transform="translate(11.947 0.295)"/></g><g transform="translate(103.743 20.252)"><g transform="translate(27.371)"><rect class="i" width="68.825" height="18.488" transform="translate(0 18.488)"/><path class="j" d="M54.96,0H13.866A13.866,13.866,0,0,0,0,13.866v4.622H68.825V13.864A13.864,13.864,0,0,0,54.96,0Z"/></g><g transform="translate(29.289 2.178)"><path class="k" d="M15.955.346A13.015,13.015,0,0,0,12.983,0h0A12.983,12.983,0,0,0,0,12.983V33.357H5.944V12.983A12.985,12.985,0,0,1,15.955.346Z"/><path class="l" d="M10.011,0A12.985,12.985,0,0,0,0,12.637V33.011H20.022V12.637A12.985,12.985,0,0,0,10.011,0Z" transform="translate(5.944 0.346)"/></g><rect class="i" width="35.234" height="1.71" transform="translate(0 35.265)"/><rect class="l" width="36.601" height="1.71" transform="translate(18.654 35.265)"/><g transform="translate(77.429 27.181)"><circle class="m" cx="3.019" cy="3.019" r="3.019" transform="translate(0 0)"/><circle class="n" cx="2.02" cy="2.02" r="2.02" transform="translate(0.999 0.999)"/><path class="o" d="M0,0V7.033L3.646,3.586,7.42,7.172V0Z" transform="translate(23.113 2.577)"/><rect class="o" width="27.514" height="0.883" transform="translate(3.019 2.577)"/></g><g transform="translate(61.966 12.523)"><path class="p" d="M0,0H12.9" transform="translate(0 1.083)"/><rect class="p" width="12.899" height="2.165" transform="translate(0)"/></g><g transform="translate(66.106 36.975)"><path class="i" d="M4.618,0,0,2.752V44.678l4.618-3.136Z" transform="translate(0 7.258)"/><path class="k" d="M4.618,0H0V10.011L4.618,7.258Z"/><path class="l" d="M4.618,59.2V0L0,3.136V59.2Z" transform="translate(0 48.8)"/></g></g><path class="g" d="M0,14.484,4.147,7.846s6.586-4.279,12.318-4S31.572,2.586,34.242,0L29.55,7.031s-7.184,3.654-12.8,3.876S4.54,11.821,0,14.484Z" transform="translate(200.476 94.997)"/><g transform="translate(95.066 65.616)"><path class="q" d="M11.446,22.338l25.738-9.176L25.35,0,0,9.257Z"/><path class="r" d="M8.206,10.258,24.27,4.5,25.35,0,0,9.257Z"/><rect class="s" width="6.485" height="0.502" transform="translate(11.622 16.46) rotate(-22.095)"/><rect class="s" width="6.485" height="0.502" transform="translate(12.908 18.268) rotate(-22.095)"/></g><g transform="translate(95.066 26.786)"><path class="r" d="M14.168,0A172.469,172.469,0,0,0,42.59,11.983S22.455,20.607,0,7.8L5.041,6.138A21.475,21.475,0,0,0,14.168,0Z"/><path class="t" d="M0,9.809S7.866,6.09,12.252,0c0,0,7.236,6.306,12.872,7.705A41.877,41.877,0,0,1,0,9.809Z" transform="translate(17.465 4.278)"/></g><g transform="translate(169.427 68.273)"><path class="q" d="M20.175,0,15.182,8.69,0,10.78l10.27,6.442L30.81,6.41Z" transform="translate(8.116 2.639)"/><g transform="translate(0 0)"><path class="s" d="M0,.891,2.482.549C2.232.376,1.959.191,1.668,0Z" transform="translate(8.116 12.527)"/><path class="s" d="M1.548,0,0,.827q.384.241.784.5Z" transform="translate(26.743 2.639)"/><path class="r" d="M16.2.28,0,9.085c3.127-.462,7.2,1.749,9.784,3.442l16.96-9.062C18.982-1.4,16.2.28,16.2.28Z" transform="translate(0 0)"/><path class="r" d="M17.744.5q-.4-.262-.784-.5L0,9.062c.292.191.564.376.814.549l12.7-1.748Z" transform="translate(9.784 3.465)"/><g transform="translate(7.074 1.857)"><rect class="q" width="11.168" height="0.276" transform="translate(0 5.286) rotate(-28.25)"/><rect class="q" width="11.168" height="0.276" transform="translate(2.08 6.129) rotate(-28.25)"/><rect class="q" width="11.168" height="0.276" transform="translate(4.306 7.004) rotate(-28.25)"/><rect class="q" width="11.168" height="0.276" transform="translate(6.448 7.828) rotate(-28.25)"/><rect class="q" width="4.769" height="0.276" transform="translate(8.7 8.661) rotate(-28.25)"/></g></g></g><g transform="translate(136.862 125.848)"><g transform="translate(45.169 34.201)"><path class="u" d="M0,5.827l0,.011H3.495C4.366,1.889,8.816,1.073,11.287.93a.248.248,0,0,0,.04-.488A10.33,10.33,0,0,0,4.15.825a10.786,10.786,0,0,0-1.636,5Z" transform="translate(0 0)"/><path class="v" d="M0,5H2.511A10.785,10.785,0,0,1,4.147,0,8.241,8.241,0,0,0,0,5Z" transform="translate(0.003 0.825)"/></g><g transform="translate(13.008 36.921)"><path class="u" d="M8.594.66C5.482-.665,1.923.3.068,1a.1.1,0,0,0,.057.2C4.011.569,7.907,3.117,7.907,3.117h3.786l-.009-.011H9.777A17.764,17.764,0,0,0,8.594.66Z" transform="translate(0 0)"/><path class="v" d="M0,0A17.763,17.763,0,0,1,1.183,2.446H3.091A7.54,7.54,0,0,0,0,0Z" transform="translate(8.594 0.66)"/></g><g transform="translate(39.932 24.702)"><path class="u" d="M18.02.053C10.911-.388,6.011,2,2.691,5.007,2.22,6.991.926,9.243.528,11.166.215,12.677.256,13.876,0,15.326H3.324c.5-8.262,11.1-13.208,14.8-14.686A.306.306,0,0,0,18.02.053Z" transform="translate(3.681 0)"/><path class="v" d="M0,10.318H4.208C4.071,7.024,5.238,3.542,6.372,0A22.859,22.859,0,0,0,0,10.318Z" transform="translate(0 5.007)"/></g><g transform="translate(0 23.437)"><path class="u" d="M.22,2.552a.411.411,0,0,0,.228.774c17.4-2.06,22.927,13.266,22.927,13.266h4.656a42.048,42.048,0,0,0-.864-6.115C17.1-4.422,4.606.24.22,2.552Z" transform="translate(0 0)"/><path class="v" d="M0,0A42.049,42.049,0,0,1,.865,6.115H3.44A45.739,45.739,0,0,0,0,0Z" transform="translate(27.166 10.477)"/></g><g transform="translate(6.03 5.789)"><path class="u" d="M29.069,22.162C25.269,11.741,17.74,2.851.464.006A.4.4,0,0,0,.219.753c6.111,3.08,21.3,12.768,22.7,33.5h9.3v-.011H27.661A69.607,69.607,0,0,1,29.069,22.162Z" transform="translate(0 0)"/><path class="v" d="M0,12.077H4.562A60.155,60.155,0,0,0,1.408,0,69.607,69.607,0,0,0,0,12.077Z" transform="translate(27.66 22.162)"/></g><path class="u" d="M.233,40.028A42.818,42.818,0,0,1,19.2.05a.281.281,0,0,1,.4.371A82.751,82.751,0,0,0,7.866,40.028Z" transform="translate(35.418 0)"/></g><g transform="translate(205.79 12.385)"><path class="r" d="M10.334,0S22.391,13.907,28.918,16.271l-10.4,19.188s-3.484.547-18.515-17Z"/><rect class="q" width="12.222" height="0.409" transform="translate(5.19 18.137) rotate(-61.118)"/><rect class="q" width="12.309" height="0.409" transform="translate(7.231 20.908) rotate(-61.118)"/><rect class="q" width="12.543" height="0.409" transform="translate(12.299 25.884) rotate(-61.118)"/><rect class="q" width="5.718" height="0.409" transform="translate(15.016 27.685) rotate(-61.118)"/><rect class="q" width="12.587" height="0.409" transform="translate(9.647 23.761) rotate(-61.118)"/></g></g></g></svg>