<svg viewBox="0 0 1024 1024" xmlns="http://www.w3.org/2000/svg" width="200" height="200">
    <path d="M420.864 139.178667l3.797333-0.426667L426.666667 138.666667l2.986666 0.128 4.309334 0.725333 2.901333 0.810667 2.56 0.981333 2.986667 1.493333 3.498666 2.304 3.413334 2.944a32.170667 32.170667 0 0 1 3.84 4.693334l2.346666 4.053333 1.493334 3.669333 1.152 4.394667 0.426666 3.584 0.085334 2.218667v682.666666a32 32 0 1 1-64 0V247.893333L235.946667 406.613333a32 32 0 0 1-45.226667-45.226666l213.333333-213.333334a32.170667 32.170667 0 0 1 4.693334-3.925333l4.053333-2.304 3.669333-1.493333 4.394667-1.152z" />
</svg>
