<svg xmlns="http://www.w3.org/2000/svg" xmlns:xlink="http://www.w3.org/1999/xlink" fill="currentColor" version="1.1" width="30" height="30" viewBox="0 0 30 30"><g><g style="opacity:0.09000000357627869;"></g><g><path d="M16.4785,5.638291Q16.606,5.51159,16.675,5.345654Q16.744,5.179719,16.744,5Q16.744,4.9113578,16.7267,4.824419Q16.709400000000002,4.73748,16.6755,4.655585Q16.6416,4.57369,16.5923,4.499987Q16.543100000000003,4.426284,16.4804,4.3636040000000005Q16.4177,4.300924,16.344,4.251677Q16.2703,4.20243,16.1884,4.168509Q16.1065,4.134587,16.0196,4.117293Q15.9327,4.1,15.844,4.1Q15.6657,4.1,15.5008,4.1679960000000005Q15.336,4.2359919999999995,15.2095,4.361709L5.8711839999999995,13.64452Q4.1,15.4092,4.1,17.8906Q4.1,20.372,5.871186,22.1367Q7.641,23.9,10.12821,23.9Q12.61541,23.9,14.38523,22.1367L24.6416,11.91787Q25.9,10.66412,25.9,8.89592Q25.9,7.12772,24.6416,5.873967Q23.3846,4.621584,21.6132,4.621584Q19.841900000000003,4.621584,18.584899999999998,5.873967L8.73443,15.6883Q8.03697,16.383200000000002,8.03697,17.369Q8.03697,18.354799999999997,8.73443,19.0497Q10.41667,20.7258,12.0989,19.0497L21.0514,10.13007L21.0519,10.12958Q21.179,10.00292,21.2478,9.83719Q21.3167,9.67147,21.3167,9.49202Q21.3167,9.403369999999999,21.2994,9.31643Q21.2821,9.2295,21.2482,9.1476Q21.2142,9.06571,21.165,8.992Q21.1157,8.9183,21.0531,8.85562Q20.9904,8.79294,20.9167,8.74369Q20.843,8.69445,20.7611,8.66052Q20.6792,8.6266,20.5922,8.60931Q20.5053,8.59202,20.4167,8.59202Q20.2381,8.59202,20.073,8.66021Q19.908,8.7284,19.781399999999998,8.85445L10.82845,17.7746Q10.41667,18.1849,10.00488,17.7746Q9.83697,17.607300000000002,9.83697,17.369Q9.83697,17.130699999999997,10.00488,16.9634L19.8553,7.1491Q21.6132,5.397605,23.3712,7.1491Q24.1,7.87524,24.1,8.89592Q24.1,9.916599999999999,23.3712,10.64274L13.11477,20.8615Q11.87177,22.1,10.12821,22.1Q8.38465,22.1,7.141640000000001,20.8615Q5.9,19.624499999999998,5.9,17.8906Q5.9,16.1567,7.141640000000001,14.91965L16.4785,5.638291L16.4785,5.638291Z" fill-rule="evenodd" fill="currentColor" fill-opacity="1" style="mix-blend-mode:passthrough"/></g></g></svg>