<svg xmlns="http://www.w3.org/2000/svg" xmlns:xlink="http://www.w3.org/1999/xlink" fill="red" version="1.1" width="24" height="24" viewBox="0 0 24 24"><defs><clipPath id="master_svg0_66_011336"><rect x="0" y="0" width="24" height="24" rx="0"/></clipPath></defs><g clip-path="url(#master_svg0_66_011336)"><g><g transform="matrix(0.7071067690849304,-0.7071067690849304,0.7071067690849304,0.7071067690849304,-1.8490633829424041,11.535965429146017)"><path d="M12.2506103515625,14L12.2506103515625,10.66667L12.2506103515625,8L13.7506103515625,8L13.7506103515625,10.66667L13.7506103515625,14L12.2506103515625,14Z" fill-rule="evenodd" fill="#c4c4c4" fill-opacity="1"/></g><g transform="matrix(0.7071067690849304,0.7071067690849304,-0.7071067690849304,0.7071067690849304,10.707152925439004,-9.849353231482382)"><path d="M16.4927978515625,14L16.4927978515625,10.66667L16.4927978515625,8L17.9927978515625,8L17.9927978515625,10.66667L17.9927978515625,14L16.4927978515625,14Z" fill-rule="evenodd" fill="#c4c4c4" fill-opacity="1"/></g><g><path d="M7.7442626953125,8.75L10.9942626953125,8.75L10.9942626953125,7.25L6.2442626953125,7.25L6.2442626953125,18.75L17.7442626953125,18.75L17.7442626953125,14L16.2442626953125,14L16.2442626953125,17.25L7.7442626953125,17.25L7.7442626953125,8.75Z" fill-rule="evenodd" fill="#c4c4c4" fill-opacity="1"/></g></g></g></svg>