<svg xmlns="http://www.w3.org/2000/svg" xmlns:xlink="http://www.w3.org/1999/xlink" fill="none" version="1.1" width="30" height="30" viewBox="0 0 30 30"><g><g style="opacity:0.09000000357627869;"></g><g><g><path d="M25.9,24L25.9,19L24.1,19L24.1,23.1L6.9,23.1L6.9,19L5.1,19L5.1,24Q5.1,24.088639999999998,5.117293,24.17558Q5.134587,24.262520000000002,5.168509,24.34441Q5.20243,24.42631,5.251678,24.50001Q5.300924,24.57372,5.3636040000000005,24.636400000000002Q5.426284,24.69907,5.499987,24.74832Q5.57369,24.79757,5.655585,24.83149Q5.73748,24.86541,5.824419,24.88271Q5.9113578,24.9,6,24.9L25,24.9Q25.0886,24.9,25.1756,24.88271Q25.2625,24.86541,25.3444,24.83149Q25.4263,24.79757,25.5,24.74832Q25.5737,24.69907,25.6364,24.636400000000002Q25.6991,24.57372,25.7483,24.50001Q25.7976,24.42631,25.8315,24.34441Q25.8654,24.262520000000002,25.8827,24.17558Q25.9,24.088639999999998,25.9,24Z" fill-rule="evenodd" fill="#2D2D2D" fill-opacity="1"/></g><g transform="matrix(1,0,0,-1,0,40)"><path d="M15.00077,19.251155L7.50077,24.25115L8.49923,25.74885L15.5,21.08167L22.500799999999998,25.74885L23.499200000000002,24.25115L15.99923,19.251155Q15.888349999999999,19.177234,15.76081,19.138617Q15.63326,19.1,15.5,19.1Q15.36674,19.1,15.23919,19.138617Q15.111650000000001,19.177234,15.00077,19.251155Z" fill-rule="evenodd" fill="#2D2D2D" fill-opacity="1"/></g><g transform="matrix(0,-1,-1,0,34.5,34.5)"><line x1="14.5" y1="19.100000023841858" x2="29.5" y2="19.100000023841858" fill-opacity="0" stroke-opacity="1" stroke="#2D2D2D" fill="none" stroke-width="1.7999999523162842" stroke-linejoin="round"/></g></g></g></svg>