<svg xmlns="http://www.w3.org/2000/svg" width="30" height="30" viewBox="0 0 30 30"><defs><style>.a{fill:none;opacity:0.09;}.b{fill:#327edc;}</style></defs><g transform="translate(-301.5 -1)"><rect class="a" width="30" height="30" transform="translate(301.5 1)"/><path class="b" d="M-7457.5-627.5a1,1,0,0,1-1-1,1,1,0,0,1,1-1h13a1,1,0,0,1,1,1,1,1,0,0,1-1,1Zm.144-3.545a.635.635,0,0,1-.635-.635v-1.967a.646.646,0,0,1,.182-.447l10.563-10.716a.634.634,0,0,1,.9,0l1.967,1.965a.634.634,0,0,1,0,.895l-10.565,10.72a.627.627,0,0,1-.451.189Z" transform="translate(7767 652)"/></g></svg>