<svg xmlns="http://www.w3.org/2000/svg" width="22" height="22" viewBox="0 0 22 22"><defs><style>.a{fill:none;}.b,.c{fill:#327edc;}.b{opacity:0.8;}.d{fill:#fff;}</style></defs><g transform="translate(-18 -212)"><rect class="a" width="22" height="22" transform="translate(18 212)"/><g transform="translate(0 1)"><path class="b" d="M16.31,11.12H3.7A1.7,1.7,0,0,1,2,9.42V1.7A1.7,1.7,0,0,1,3.7,0H7.77A1.7,1.7,0,0,1,9.026.555l1.5,1.647H16.31a1.7,1.7,0,0,1,1.7,1.7V9.42a1.7,1.7,0,0,1-1.7,1.7" transform="translate(19 214)"/><path class="c" d="M16.935,17.429H3.074a1.321,1.321,0,0,1-1.293-1.053L.028,7.9A1.32,1.32,0,0,1,1.32,6.309H18.688A1.32,1.32,0,0,1,19.981,7.9l-1.754,8.48a1.319,1.319,0,0,1-1.292,1.053" transform="translate(19 214)"/><path class="d" d="M16.347,6.31H4.51V4.989A1.125,1.125,0,0,1,5.635,3.864h9.587a1.126,1.126,0,0,1,1.125,1.125Z" transform="translate(18.576 214)"/></g></g></svg>