<svg xmlns="http://www.w3.org/2000/svg" width="20" height="20" viewBox="0 0 20 20"><defs><style>.a{fill:none;}.b{fill:#fff;stroke-linecap:round;}.c,.d{stroke:none;}.d{fill:#2d2d2d;}</style></defs><g transform="translate(2 2)"><rect class="a" width="20" height="20" transform="translate(-2 -2)"/><g class="b" transform="translate(4900 -8496)"><path class="c" d="M -4884.5009765625 8508.5009765625 L -4895.5 8508.5009765625 L -4895.5 8508.4990234375 L -4884.5009765625 8508.4990234375 L -4884.5009765625 8508.5009765625 Z"/><path class="d" d="M -4884.0009765625 8509.0009765625 L -4896 8509.0009765625 L -4896 8507.9990234375 L -4884.0009765625 8507.9990234375 L -4884.0009765625 8509.0009765625 Z M -4899.00048828125 8509.0009765625 L -4900 8509.0009765625 L -4900 8507.9990234375 L -4899.00048828125 8507.9990234375 L -4899.00048828125 8509.0009765625 Z M -4884.0009765625 8506 L -4896 8506 L -4896 8505.0009765625 L -4884.0009765625 8505.0009765625 L -4884.0009765625 8506 Z M -4899.00048828125 8506 L -4900 8506 L -4900 8505.0009765625 L -4899.00048828125 8505.0009765625 L -4899.00048828125 8506 Z M -4884.0009765625 8503 L -4896 8503 L -4896 8502 L -4884.0009765625 8502 L -4884.0009765625 8503 Z M -4899.00048828125 8503 L -4900 8503 L -4900 8502 L -4899.00048828125 8502 L -4899.00048828125 8503 Z M -4884.0009765625 8499.9990234375 L -4896 8499.9990234375 L -4896 8499 L -4884.0009765625 8499 L -4884.0009765625 8499.9990234375 Z M -4899.00048828125 8499.9990234375 L -4900 8499.9990234375 L -4900 8499 L -4899.00048828125 8499 L -4899.00048828125 8499.9990234375 Z"/></g></g></svg>