<svg xmlns="http://www.w3.org/2000/svg" xmlns:xlink="http://www.w3.org/1999/xlink" fill="none" version="1.1" width="30" height="30" viewBox="0 0 30 30"><g><rect x="0.5" y="0.5" width="29" height="29" rx="3.5" fill-opacity="0" stroke-opacity="1" stroke="#327EDC" fill="none" stroke-width="1"/><g transform="matrix(0,-1,1,0,-16,30)" style="opacity:0.33000001311302185;"></g><g transform="matrix(0,-1,1,0,-12.790834903717041,28.29021978378296)"><g><path d="M8.054125440032958,25.4982588916111L8.051108440032959,25.5012088916111L8.042990440032959,25.509228891611098L8.042585440032958,25.5096288916111Q7.901933440032959,25.650278891611098,7.825812940032959,25.834048891611097Q7.749692440032959,26.0178288916111,7.749692440032959,26.2167388916111Q7.749692440032959,26.4156488916111,7.825812940032959,26.5994188916111Q7.901933440032959,26.7831888916111,8.042585440032958,26.923838891611098Q8.06412844003296,26.9453888916111,8.086942440032958,26.9655788916111L16.85243244003296,35.2669788916111L16.85262244003296,35.267178891611096Q16.92289244003296,35.3336788916111,17.004612440032957,35.3854788916111Q17.086332440032958,35.4373788916111,17.17648244003296,35.4725788916111Q17.26662244003296,35.507778891611096,17.36184244003296,35.5249788916111Q17.45707244003296,35.5422788916111,17.55384244003296,35.5409788916111Q17.65060244003296,35.5396788916111,17.745322440032957,35.5197788916111Q17.84009244003296,35.4999788916111,17.92919244003296,35.4622788916111Q18.01839244003296,35.4246788916111,18.09859244003296,35.3706788916111Q18.17889244003296,35.3165788916111,18.24739244003296,35.2481788916111Q18.31699244003296,35.1784788916111,18.37169244003296,35.0966788916111Q18.42639244003296,35.0147788916111,18.464092440032957,34.9237788916111Q18.501792440032958,34.8327788916111,18.52099244003296,34.7361788916111Q18.540292440032957,34.6395788916111,18.540292440032957,34.5410788916111Q18.540292440032957,34.4425788916111,18.52099244003296,34.3459788916111Q18.501792440032958,34.2493788916111,18.464092440032957,34.1583788916111Q18.42639244003296,34.0673788916111,18.37169244003296,33.985478891611095Q18.31699244003296,33.9035788916111,18.24739244003296,33.833978891611096Q18.23769244003296,33.8243788916111,18.22789244003296,33.8149788916111L10.19280244003296,26.2053688916111L14.237902440032958,22.2560588916111L14.246432440032958,22.2476288916111Q14.316072440032958,22.1779888916111,14.37079244003296,22.0960988916111Q14.425512440032959,22.014208891611098,14.463202440032958,21.9232088916111Q14.50089244003296,21.8322188916111,14.520102440032959,21.7356188916111Q14.539322440032958,21.639018891611098,14.539322440032958,21.5405288916111Q14.539322440032958,21.4420358916111,14.520102440032959,21.3454368916111Q14.50089244003296,21.2488378916111,14.463202440032958,21.157843891611098Q14.425512440032959,21.0668498916111,14.37079244003296,20.9849568916111Q14.316072440032958,20.9030648916111,14.246432440032958,20.833420891611098Q14.17732244003296,20.7643108916111,14.09614244003296,20.7098908916111Q14.014952440032959,20.655469891611098,13.92477244003296,20.6177983916111Q13.83459244003296,20.580126291611098,13.738812440032959,20.5606285916111Q13.643042440032959,20.5411308416111,13.545312440032959,20.5405452876111Q13.44758244003296,20.5399597376111,13.35158244003296,20.558308591611098Q13.25558244003296,20.5766573916111,13.164952440032959,20.6132460916111Q13.074332440032958,20.6498348916111,12.99250244003296,20.7032788916111Q12.91067244003296,20.756722891611098,12.840742440032958,20.8249988916111L8.054125440032958,25.4982588916111Z" fill-rule="evenodd" fill="#327EDC" fill-opacity="1"/></g></g></g></svg>