<svg xmlns="http://www.w3.org/2000/svg" xmlns:xlink="http://www.w3.org/1999/xlink" fill="none" version="1.1" width="30" height="30" viewBox="0 0 30 30"><g><g style="opacity:0.09000000357627869;"></g><g><g><path d="M6.9,6.922936L6.9,22.231Q6.9,21.600099999999998,6.3,21.600099999999998L23.7,21.600099999999998Q23.1,21.600099999999998,23.1,22.231L23.1,8.61456Q23.1,8.72616,23.178,8.8362Q23.3592,9.09163,23.7,9.09163L14.06086,9.09163Q13.28023,9.09163,12.966190000000001,8.31644L12.453610000000001,7.051158Q12.59493,7.4,13.027239999999999,7.4L6.3,7.4Q6.640774,7.4,6.82195,7.144574Q6.9,7.034539,6.9,6.922936L6.9,6.922936ZM5.1,6.922936Q5.1,6.4609753,5.353785,6.103185Q5.710701,5.6,6.3,5.6L13.027239999999999,5.6Q13.80781,5.6,14.1219,6.375302L14.63449,7.6405899999999995Q14.49312,7.291626,14.06086,7.291626L23.7,7.291626Q24.9,7.291625,24.9,8.61456L24.9,22.231Q24.9,23.4001,23.7,23.4001L6.3,23.4001Q5.1,23.4001,5.1,22.231L5.1,6.922936L5.1,6.922936Z" fill="#2D2D2D" fill-opacity="1"/></g><g><line x1="10" y1="14.600000023841858" x2="20" y2="14.600000023841858" fill-opacity="0" stroke-opacity="1" stroke="#2D2D2D" fill="none" stroke-width="1.7999999523162842" stroke-linejoin="round"/></g></g></g></svg>