<svg xmlns="http://www.w3.org/2000/svg" width="30" height="30" viewBox="0 0 30 30"><defs><style>.a,.b{fill:none;}.a{opacity:0.09;}.b{stroke:#2d2d2d;stroke-linecap:round;stroke-linejoin:round;stroke-width:1.195px;}</style></defs><g transform="translate(-301.5 -1)"><rect class="a" width="30" height="30" transform="translate(301.5 1)"/><g transform="translate(308.5 9.162)"><path class="b" d="M13.936,14.062H1.229a.671.671,0,0,1-.632-.7V1.3A.671.671,0,0,1,1.229.6h3.3a.625.625,0,0,1,.543.342L6.407,2.755a.623.623,0,0,0,.542.342h6.987a.671.671,0,0,1,.632.7v9.558A.671.671,0,0,1,13.936,14.062Z" transform="translate(0.221 -0.491)"/><path class="b" d="M5.478,6.881H9.257a1.724,1.724,0,0,1,0,3.448h-3.8" transform="translate(0 -0.461)"/><path class="b" d="M5.845,5.5,4.463,6.882,5.72,8.139" transform="translate(0 -0.461)"/></g></g></svg>