<svg xmlns="http://www.w3.org/2000/svg" xmlns:xlink="http://www.w3.org/1999/xlink" fill="none" version="1.1" width="15.999984741210938" height="16" viewBox="0 0 15.999984741210938 16"><defs><linearGradient x1="0.2088623046875" y1="0" x2="0.390079161407166" y2="0.9688236753745587" id="master_svg0_64_4331"><stop offset="0%" stop-color="#FFFFFF" stop-opacity="1"/><stop offset="100%" stop-color="#FFFFFF" stop-opacity="0.6000000238418579"/></linearGradient><filter id="master_svg1_66_2677" filterUnits="objectBoundingBox" color-interpolation-filters="sRGB" x="0" y="0" width="1" height="1"><feFlood flood-opacity="0" result="BackgroundImageFix"/><feBlend mode="normal" in="SourceGraphic" in2="BackgroundImageFix" result="shape"/><feColorMatrix in="SourceAlpha" type="matrix" result="hardAlpha" values="0 0 0 0 0 0 0 0 0 0 0 0 0 0 0 0 0 0 127 0"/><feOffset dy="0.1822916716337204" dx="0"/><feGaussianBlur stdDeviation="0.25"/><feComposite in2="hardAlpha" operator="arithmetic" k2="-1" k3="1"/><feColorMatrix type="matrix" values="0 0 0 0 1 0 0 0 0 1 0 0 0 0 1 0 0 0 0.5 0"/><feBlend mode="normal" in2="shape" result="effect1_innerShadow"/></filter><linearGradient x1="0.7476187944412231" y1="-0.5487476587295532" x2="0.08048891489030774" y2="0.7911228089325393" id="master_svg2_66_2605"><stop offset="0%" stop-color="#76B3FF" stop-opacity="1"/><stop offset="98.09518456459045%" stop-color="#327EDC" stop-opacity="1"/></linearGradient></defs><g><g><g><path d="M0.1875,6.97695L0.1875,1.022461C0.1875,0.820219,0.30409200000000003,0.65625,0.447917,0.65625L6.28754,0.65625C6.38101,0.65625,6.46732,0.7267404,6.51368,0.840881L6.95863,1.93646C7.00499,2.0506,7.09129,2.12099,7.18477,2.12099L15.5521,2.12099C15.6959,2.12099,15.8125,2.28496,15.8125,2.4872L15.8125,6.98244C15.8125,7.18468,15.6959,7.34865,15.5521,7.34865L0.447917,7.70937C0.304093,7.70937,0.1875,7.5454,0.1875,7.34316L0.1875,6.97695Z" fill-rule="evenodd" fill="#327EDC" fill-opacity="1"/></g><g><path d="M1.2291679382324219,6.8766459765625L1.2291679382324219,4.0448429765625C1.2291679382324219,3.7841829765625,1.3457609382324218,3.5728759765625,1.4895849382324218,3.5728759765625L14.510367938232422,3.5728759765625C14.654267938232422,3.5728759765625,14.770867938232422,3.7841829765625,14.770867938232422,4.0448429765625L14.770867938232422,6.8766459765625C14.770867938232422,7.1373059765625,14.654267938232422,7.3486159765625,14.510367938232422,7.3486159765625L1.4895849382324218,7.3486159765625C1.3457609382324218,7.3486159765625,1.2291679382324219,7.1373059765625,1.2291679382324219,6.8766459765625Z" fill="url(#master_svg0_64_4331)" fill-opacity="1"/></g><g filter="url(#master_svg1_66_2677)"><path d="M0.1875,14.27741C0.1875,14.4061,0.304093,14.51042,0.447917,14.51042L15.5521,14.51042C15.6959,14.51042,15.8125,14.4061,15.8125,14.27741L15.8125,5.65625L0.1875,5.65625L0.1875,14.27741Z" fill="url(#master_svg2_66_2605)" fill-opacity="1"/></g></g></g></svg>