<svg xmlns="http://www.w3.org/2000/svg" xmlns:xlink="http://www.w3.org/1999/xlink" fill="none" version="1.1" width="18" height="18" viewBox="0 0 18 18"><g><g></g><g><path d="M12.553017578125,11.843017578125L13.343017578125,11.843017578125L16.532917578125,14.885217578125L15.042917578125,16.375217578125L11.843017578125,13.343017578125L11.843017578125,12.553017578125L11.573017578125,12.273017578125C10.433017578125,13.253017578125,8.953017578125,13.843017578125,7.343017578125,13.843017578125C3.753017578125,13.843017578125,0.843017578125,10.933017578125,0.843017578125,7.343017578125C0.843017578125,3.753017578125,3.753017578125,0.843017578125,7.343017578125,0.843017578125C10.933017578125,0.843017578125,13.843017578125,3.753017578125,13.843017578125,7.343017578125C13.843017578125,8.953017578125,13.253017578125,10.433017578125,12.273017578125,11.573017578125L12.553017578125,11.843017578125ZM2.843017578125,7.343017578125C2.843017578125,9.833017578125,4.853017578125,11.843017578125,7.343017578125,11.843017578125C9.833017578125,11.843017578125,11.843017578125,9.833017578125,11.843017578125,7.343017578125C11.843017578125,4.853017578125,9.833017578125,2.843017578125,7.343017578125,2.843017578125C4.853017578125,2.843017578125,2.843017578125,4.853017578125,2.843017578125,7.343017578125Z" fill-rule="evenodd" fill="#C0C6D2" fill-opacity="1"/></g></g></svg>