<svg xmlns="http://www.w3.org/2000/svg" xmlns:xlink="http://www.w3.org/1999/xlink" fill="none" version="1.1" width="30" height="30" viewBox="0 0 30 30"><g transform="matrix(-1,0,0,-1,60,60)"><g style="opacity:0.09000000357627869;"></g><g><g transform="matrix(-1,0,0,-1,104,104)"><line x1="52" y1="51.10000002384186" x2="67" y2="51.10000002384186" fill-opacity="0" stroke-opacity="1" stroke="#2D2D2D" fill="none" stroke-width="1.7999999523162842" stroke-linejoin="round"/></g><g transform="matrix(-1,0,0,-1,106,100)"><path d="M60.98099,49.264729L52.480985,55.26473L53.519015,56.73527L61.5,51.10163L69.481,56.73527L70.519,55.26473L62.01902,49.264729Q61.96241,49.224773,61.90036,49.193951Q61.838300000000004,49.16313,61.77226,49.14217Q61.70622,49.12121,61.63776,49.110605Q61.56929,49.1,61.5,49.1Q61.43071,49.1,61.36224,49.110605Q61.29377,49.12121,61.22774,49.14217Q61.161699999999996,49.16313,61.09964,49.193951Q61.03759,49.224773,60.98099,49.264729Z" fill-rule="evenodd" fill="#2D2D2D" fill-opacity="1"/></g><g transform="matrix(0,-1,1,0,-3.366666793823242,94.63333320617676)"><line x1="45.63333320617676" y1="48.10000002384186" x2="58.63333320617676" y2="48.10000002384186" fill-opacity="0" stroke-opacity="1" stroke="#2D2D2D" fill="none" stroke-width="1.7999999523162842" stroke-linejoin="round"/></g></g></g></svg>