<?xml version="1.0" standalone="no"?><!DOCTYPE svg PUBLIC "-//W3C//DTD SVG 1.1//EN" "http://www.w3.org/Graphics/SVG/1.1/DTD/svg11.dtd"><svg t="1745209095595" class="icon" viewBox="0 0 1024 1024" version="1.1" xmlns="http://www.w3.org/2000/svg" p-id="2487" xmlns:xlink="http://www.w3.org/1999/xlink" width="256" height="256"><path d="M512 0C229.376 0 0 229.376 0 512s229.376 512 512 512 512-229.376 512-512S794.624 0 512 0z m211.968 519.68c-4.096 15.872-16.896 28.672-32.768 32.768-15.872 4.096-32.768-0.512-44.544-11.776l-91.648-91.648v276.992c0 23.552-18.944 42.496-42.496 42.496s-42.496-18.944-42.496-42.496V450.56l-91.648 91.648c-18.432 16.896-46.592 16.384-64-1.536s-17.92-46.08-1.536-64l163.84-163.84c6.144-5.632 13.312-9.216 20.992-11.264 17.408-7.68 37.888-4.096 51.2 9.216l163.84 163.84c10.752 11.776 15.36 28.672 11.264 45.056z" fill="#327edc" p-id="2488"></path></svg>