<svg xmlns="http://www.w3.org/2000/svg" xmlns:xlink="http://www.w3.org/1999/xlink" fill="none" version="1.1" width="40" height="40" viewBox="0 0 40 40"><defs><filter id="master_svg0_542_55776" filterUnits="objectBoundingBox" color-interpolation-filters="sRGB" x="-0.24525100011622905" y="-0.11541224209303468" width="1.490502000232458" height="1.4616489683721388"><feFlood flood-opacity="0" result="BackgroundImageFix"/><feColorMatrix in="SourceAlpha" type="matrix" values="0 0 0 0 0 0 0 0 0 0 0 0 0 0 0 0 0 0 127 0"/><feOffset dy="0.9417638778686523" dx="0"/><feGaussianBlur stdDeviation="0.47088193893432617"/><feColorMatrix type="matrix" values="0 0 0 0 0.18334385752677917 0 0 0 0 0.6758651733398438 0 0 0 0 0.7301588654518127 0 0 0 1 0"/><feBlend mode="normal" in2="BackgroundImageFix" result="effect1_dropShadow"/><feBlend mode="normal" in="SourceGraphic" in2="effect1_dropShadow" result="shape"/></filter></defs><g><g><ellipse cx="20" cy="19.999998092651367" rx="20" ry="19.999998092651367" fill="#D5FBFF" fill-opacity="1"/></g><g><g><g><g><path d="M27.4691853515625,30.56091796875C27.4691853515625,30.56091796875,12.5297753515625,30.56091796875,12.5297753515625,30.56091796875C11.8833373515625,30.56091796875,11.3599853515625,30.05571796875,11.3599853515625,29.43271796875C11.3599853515625,29.43271796875,11.3599853515625,10.56962796875,11.3599853515625,10.56962796875C11.3599853515625,9.94615296875,11.8833373515625,9.44091796875,12.5297753515625,9.44091796875C12.5297753515625,9.44091796875,23.3599853515625,9.44091796875,23.3599853515625,9.44091796875C23.3599853515625,9.44091796875,28.6399853515625,14.24091796875,28.6399853515625,14.24091796875C28.6399853515625,14.24091796875,28.6399853515625,29.43271796875,28.6399853515625,29.43271796875C28.6399853515625,30.05571796875,28.1158853515625,30.56091796875,27.4691853515625,30.56091796875Z" fill="#45C4D2" fill-opacity="1"/></g></g><g><g><path d="M28.6399853515625,14.24091796875C28.6399853515625,14.24091796875,23.3599853515625,14.24091796875,23.3599853515625,14.24091796875C23.3599853515625,14.24091796875,23.3599853515625,9.44091796875,23.3599853515625,9.44091796875C23.3599853515625,9.44091796875,28.6399853515625,14.24091796875,28.6399853515625,14.24091796875Z" fill="#2297A3" fill-opacity="1"/></g></g></g><g filter="url(#master_svg0_542_55776)"><path d="M23.35999267578125,16.5498618125C23.35999267578125,16.4308758125,23.30504267578125,16.3179508125,23.21003267578125,16.2448752125C23.11502267578125,16.1707893625,22.99260267578125,16.1439613125,22.87404267578125,16.1720241125C22.87404267578125,16.1720241125,17.95137267578125,17.3376428125,17.95137267578125,17.3376428125C17.77422267578125,17.3797328125,17.64906267578125,17.5356528125,17.64906267578125,17.7153628125C17.64906267578125,17.7153628125,17.64906267578125,22.1838728125,17.64906267578125,22.1838728125C17.64906267578125,22.1838728125,16.76328267578125,22.1838728125,16.76328267578125,22.1838728125C16.16594467578125,22.1838728125,15.67999267578125,22.6632928125,15.67999267578125,23.2526128125C15.67999267578125,23.8415928125,16.16594467578125,24.3211328125,16.76328267578125,24.3211328125C16.76328267578125,24.3211328125,17.33457267578125,24.3211328125,17.33457267578125,24.3211328125C17.94284267578125,24.3211328125,18.43687267578125,23.8325028125,18.43687267578125,23.2324128125C18.43687267578125,23.2324128125,18.43687267578125,23.1569728125,18.43687267578125,23.1569728125C18.43687267578125,23.1569728125,18.43732267578125,23.1555128125,18.43732267578125,23.1555128125C18.43732267578125,23.1555128125,18.43732267578125,19.5858128125,18.43732267578125,19.5858128125C18.43732267578125,19.5858128125,22.57241267578125,18.619892812499998,22.57241267578125,18.619892812499998C22.57241267578125,18.619892812499998,22.57241267578125,21.4073128125,22.57241267578125,21.4073128125C22.57241267578125,21.4073128125,21.48911267578125,21.4073128125,21.48911267578125,21.4073128125C20.89211267578125,21.4073128125,20.40605267578125,21.8856128125,20.40605267578125,22.4751628125C20.40605267578125,23.0639228125,20.89211267578125,23.5435728125,21.48911267578125,23.5435728125C21.48911267578125,23.5435728125,22.25724267578125,23.5435728125,22.25724267578125,23.5435728125C22.86550267578125,23.5435728125,23.35953267578125,23.0562828125,23.35953267578125,22.4561928125C23.35953267578125,22.4561928125,23.35953267578125,22.321932812500002,23.35953267578125,22.321932812500002C23.35953267578125,22.321932812500002,23.35999267578125,22.3185728125,23.35999267578125,22.3185728125C23.35999267578125,22.3185728125,23.35999267578125,16.5498618125,23.35999267578125,16.5498618125ZM18.43732267578125,18.7870328125C18.43732267578125,18.7870328125,18.43732267578125,18.0218128125,18.43732267578125,18.0218128125C18.43732267578125,18.0218128125,22.57241267578125,17.0424208125,22.57241267578125,17.0424208125C22.57241267578125,17.0424208125,22.57241267578125,17.8208828125,22.57241267578125,17.8208828125C22.57241267578125,17.8208828125,18.43732267578125,18.7870328125,18.43732267578125,18.7870328125Z" fill="#FFFFFF" fill-opacity="1"/></g></g></g></svg>