<svg xmlns="http://www.w3.org/2000/svg" xmlns:xlink="http://www.w3.org/1999/xlink" fill="none" version="1.1" width="40" height="40" viewBox="0 0 40 40"><defs><filter id="master_svg0_542_56516" filterUnits="objectBoundingBox" color-interpolation-filters="sRGB" x="-0.5454545454545454" y="-0.21052630478215342" width="2.090909090909091" height="1.6315789143464603"><feFlood flood-opacity="0" result="BackgroundImageFix"/><feColorMatrix in="SourceAlpha" type="matrix" values="0 0 0 0 0 0 0 0 0 0 0 0 0 0 0 0 0 0 127 0"/><feOffset dy="0.9600000381469727" dx="0"/><feGaussianBlur stdDeviation="0.7200000286102295"/><feColorMatrix type="matrix" values="0 0 0 0 0.6260926723480225 0 0 0 0 0.6725397706031799 0 0 0 0 0.7480159997940063 0 0 0 1 0"/><feBlend mode="normal" in2="BackgroundImageFix" result="effect1_dropShadow"/><feBlend mode="normal" in="SourceGraphic" in2="effect1_dropShadow" result="shape"/></filter></defs><g><g><ellipse cx="20" cy="19.999998092651367" rx="20" ry="19.999998092651367" fill="#ECECEC" fill-opacity="1"/></g><g><g><g><g><path d="M27.4691853515625,30.56287109375C27.4691853515625,30.56287109375,12.5297753515625,30.56287109375,12.5297753515625,30.56287109375C11.8833373515625,30.56287109375,11.3599853515625,30.05767109375,11.3599853515625,29.43467109375C11.3599853515625,29.43467109375,11.3599853515625,10.57158109375,11.3599853515625,10.57158109375C11.3599853515625,9.94810609375,11.8833373515625,9.44287109375,12.5297753515625,9.44287109375C12.5297753515625,9.44287109375,23.3599853515625,9.44287109375,23.3599853515625,9.44287109375C23.3599853515625,9.44287109375,28.6399853515625,14.24287109375,28.6399853515625,14.24287109375C28.6399853515625,14.24287109375,28.6399853515625,29.43467109375,28.6399853515625,29.43467109375C28.6399853515625,30.05767109375,28.1158853515625,30.56287109375,27.4691853515625,30.56287109375Z" fill="#909AA5" fill-opacity="1"/></g></g><g><g><path d="M28.6399853515625,14.24287109375C28.6399853515625,14.24287109375,23.3599853515625,14.24287109375,23.3599853515625,14.24287109375C23.3599853515625,14.24287109375,23.3599853515625,9.44287109375,23.3599853515625,9.44287109375C23.3599853515625,9.44287109375,28.6399853515625,14.24287109375,28.6399853515625,14.24287109375Z" fill="#6D7782" fill-opacity="1"/></g></g></g><g filter="url(#master_svg0_542_56516)"><path d="M19.1143751171875,21.390545Q19.0199551171875,20.889685,19.1398151171875,20.499895000000002Q19.2596651171875,20.109935,19.5082451171875,19.790285Q19.7570051171875,19.470465,20.0612751171875,19.193425Q20.365725117187502,18.916205,20.6478351171875,18.651085000000002Q20.9301251171875,18.385765,21.1131851171875,18.100175Q21.2964351171875,17.814585,21.2964351171875,17.475215Q21.2964351171875,17.080595,21.1303351171875,16.768955Q20.9644251171875,16.457135,20.6316451171875,16.280755Q20.2988651171875,16.104372,19.7718451171875,16.104372Q18.7255151171875,16.104372,17.7793931171875,17.086555L17.1199951171875,16.494345Q17.4980601171875,16.108651000000002,17.9084981171875,15.821569Q18.3189351171875,15.534488,18.8070251171875,15.368899Q19.2953151171875,15.203125,19.8878451171875,15.203125Q20.6572751171875,15.203125,21.2212851171875,15.471415Q21.785305117187498,15.739519,22.0926451171875,16.227165Q22.3999951171875,16.714815,22.3999951171875,17.386475Q22.3999951171875,17.841555,22.2144351171875,18.194505Q22.0288651171875,18.547265,21.7380951171875,18.837325Q21.4473151171875,19.127375,21.1380451171875,19.397154999999998Q20.8289651171875,19.666935,20.5692151171875,19.956065Q20.3096551171875,20.245005,20.1763051171875,20.593485Q20.0431551171875,20.941965,20.1204251171875,21.390545L19.1143751171875,21.390545ZM19.6400451171875,24.323124999999997Q19.3107251171875,24.323124999999997,19.0794951171875,24.112144999999998Q18.8484551171875,23.901155,18.8484551171875,23.544305Q18.8484551171875,23.187455,19.0820051171875,22.966605Q19.3155451171875,22.745755,19.6400451171875,22.745755Q19.9645351171875,22.745755,20.1978951171875,22.966605Q20.4314351171875,23.187455,20.4314351171875,23.544305Q20.4314351171875,23.901155,20.1978951171875,24.112144999999998Q19.9645351171875,24.323124999999997,19.6400451171875,24.323124999999997Z" fill="#FFFFFF" fill-opacity="1"/></g></g></g></svg>