<svg xmlns="http://www.w3.org/2000/svg" xmlns:xlink="http://www.w3.org/1999/xlink" fill="none" version="1.1" width="40" height="40" viewBox="0 0 40 40"><defs><filter id="master_svg0_542_55122" filterUnits="objectBoundingBox" color-interpolation-filters="sRGB" x="-0.4285755036214422" y="-0.2666659249220688" width="1.8571510072428845" height="1.7999977747662064"><feFlood flood-opacity="0" result="BackgroundImageFix"/><feColorMatrix in="SourceAlpha" type="matrix" values="0 0 0 0 0 0 0 0 0 0 0 0 0 0 0 0 0 0 127 0"/><feOffset dy="0.9600000381469727" dx="0"/><feGaussianBlur stdDeviation="0.7200000286102295"/><feColorMatrix type="matrix" values="0 0 0 0 0.09034334868192673 0 0 0 0 0.6408731341362 0 0 0 0 0.3961932361125946 0 0 0 1 0"/><feBlend mode="normal" in2="BackgroundImageFix" result="effect1_dropShadow"/><feBlend mode="normal" in="SourceGraphic" in2="effect1_dropShadow" result="shape"/></filter></defs><g><g><ellipse cx="20" cy="19.999998092651367" rx="20" ry="19.999998092651367" fill="#D7FFED" fill-opacity="1"/></g><g><g><g><g><path d="M27.4692853515625,30.5604296875C27.4692853515625,30.5604296875,12.5297753515625,30.5604296875,12.5297753515625,30.5604296875C11.8833373515625,30.5604296875,11.3599853515625,30.0552296875,11.3599853515625,29.4322296875C11.3599853515625,29.4322296875,11.3599853515625,10.5691396875,11.3599853515625,10.5691396875C11.3599853515625,9.9456646875,11.8833373515625,9.4404296875,12.5297753515625,9.4404296875C12.5297753515625,9.4404296875,23.3599853515625,9.4404296875,23.3599853515625,9.4404296875C23.3599853515625,9.4404296875,28.6399853515625,14.2404296875,28.6399853515625,14.2404296875C28.6399853515625,14.2404296875,28.6399853515625,29.4322296875,28.6399853515625,29.4322296875C28.6399853515625,30.0552296875,28.1158853515625,30.5604296875,27.4692853515625,30.5604296875C27.4692853515625,30.5604296875,27.4692853515625,30.5604296875,27.4692853515625,30.5604296875Z" fill="#2BCE85" fill-opacity="1"/></g></g><g><g><path d="M28.6399853515625,14.2404296875C28.6399853515625,14.2404296875,23.3599853515625,14.2404296875,23.3599853515625,14.2404296875C23.3599853515625,14.2404296875,23.3599853515625,9.4404296875,23.3599853515625,9.4404296875C23.3599853515625,9.4404296875,28.6399853515625,14.2404296875,28.6399853515625,14.2404296875C28.6399853515625,14.2404296875,28.6399853515625,14.2404296875,28.6399853515625,14.2404296875Z" fill="#17AB69" fill-opacity="1"/></g></g></g><g filter="url(#master_svg0_542_55122)"><path d="M20.543388354492187,20.24096542251587L23.26247835449219,17.26838642251587C23.41027835449219,17.10680342251587,23.387308354492188,16.86590242251587,23.211158354492188,16.73031852251587C23.035018354492188,16.59473472251587,22.772408354492185,16.61581072251587,22.624598354492186,16.777393422515868L19.99988835449219,19.64679542251587L17.375345354492186,16.77757942251587C17.227554354492188,16.61601062251587,16.96496435449219,16.59493622251587,16.788834354492188,16.730508722515868C16.612703954492186,16.86608142251587,16.589730454492187,17.10696142251587,16.73752115449219,17.26853042251587L19.45642835449219,20.24091542251587L16.737414354492188,23.21341542251587C16.589609654492186,23.37500542251587,16.612586954492187,23.61590542251587,16.78873135449219,23.75148542251587C16.964877354492188,23.887065422515867,17.227490354492186,23.86599542251587,17.37529235449219,23.70441542251587L19.999938354492187,20.835085422515867L22.62469835449219,23.70455542251587C22.772498354492186,23.866125422515868,23.035078354492185,23.88719542251587,23.211208354492186,23.75162542251587C23.38734835449219,23.616045422515867,23.410318354492187,23.37516542251587,23.262528354492186,23.21359542251587L20.543388354492187,20.24096542251587Z" fill-rule="evenodd" fill="#FFFFFF" fill-opacity="1"/></g></g></g></svg>