<svg xmlns="http://www.w3.org/2000/svg" xmlns:xlink="http://www.w3.org/1999/xlink" fill="none" version="1.1" width="40" height="40" viewBox="0 0 40 40"><defs><filter id="master_svg0_542_56186" filterUnits="objectBoundingBox" color-interpolation-filters="sRGB" x="-1.5955360480367513" y="-0.7151342626600758" width="4.191072096073503" height="3.1454027879802275"><feFlood flood-opacity="0" result="BackgroundImageFix"/><feColorMatrix in="SourceAlpha" type="matrix" values="0 0 0 0 0 0 0 0 0 0 0 0 0 0 0 0 0 0 127 0"/><feOffset dy="0.9600000381469727" dx="0"/><feGaussianBlur stdDeviation="0.7200000286102295"/><feColorMatrix type="matrix" values="0 0 0 0 0.5607843399047852 0 0 0 0 0.38823530077934265 0 0 0 0 0.16862745583057404 0 0 0 1 0"/><feBlend mode="normal" in2="BackgroundImageFix" result="effect1_dropShadow"/><feBlend mode="normal" in="SourceGraphic" in2="effect1_dropShadow" result="shape"/></filter></defs><g><g><ellipse cx="20" cy="19.999998092651367" rx="20" ry="19.999998092651367" fill="#FFEFDC" fill-opacity="1"/></g><g><g><g><g><path d="M27.4691853515625,30.56189453125C27.4691853515625,30.56189453125,12.5297753515625,30.56189453125,12.5297753515625,30.56189453125C11.8833373515625,30.56189453125,11.3599853515625,30.05669453125,11.3599853515625,29.43369453125C11.3599853515625,29.43369453125,11.3599853515625,10.57060453125,11.3599853515625,10.57060453125C11.3599853515625,9.94712953125,11.8833373515625,9.44189453125,12.5297753515625,9.44189453125C12.5297753515625,9.44189453125,23.3599853515625,9.44189453125,23.3599853515625,9.44189453125C23.3599853515625,9.44189453125,28.6399853515625,14.24189453125,28.6399853515625,14.24189453125C28.6399853515625,14.24189453125,28.6399853515625,29.43369453125,28.6399853515625,29.43369453125C28.6399853515625,30.05669453125,28.1158853515625,30.56189453125,27.4691853515625,30.56189453125Z" fill="#BC8846" fill-opacity="1"/></g></g><g><g><path d="M28.6399853515625,14.24189453125C28.6399853515625,14.24189453125,23.3599853515625,14.24189453125,23.3599853515625,14.24189453125C23.3599853515625,14.24189453125,23.3599853515625,9.44189453125,23.3599853515625,9.44189453125C23.3599853515625,9.44189453125,28.6399853515625,14.24189453125,28.6399853515625,14.24189453125Z" fill="#9D6927" fill-opacity="1"/></g></g></g><g><g><rect x="18.56195068359375" y="9.44189453125" width="1.2000000476837158" height="1.5996545553207397" rx="0" fill="#FFFFFF" fill-opacity="1"/></g><g><rect x="19.80108642578125" y="11.03955078125" width="1.2000000476837158" height="1.5996545553207397" rx="0" fill="#FFFFFF" fill-opacity="1"/></g><g><rect x="18.56195068359375" y="12.9453125" width="1.2000000476837158" height="1.5996545553207397" rx="0" fill="#FFFFFF" fill-opacity="1"/></g><g><rect x="19.80108642578125" y="14.69580078125" width="1.2000000476837158" height="1.5996545553207397" rx="0" fill="#FFFFFF" fill-opacity="1"/></g><g><rect x="18.56195068359375" y="16.4482421875" width="1.2000000476837158" height="1.5996545553207397" rx="0" fill="#FFFFFF" fill-opacity="1"/></g><g filter="url(#master_svg0_542_56186)"><path d="M18.55999755859375,18.392578125C18.55999755859375,18.392578125,20.365037558593748,18.392578125,20.365037558593748,18.392578125C20.365037558593748,18.392578125,20.365037558593748,21.077388125,20.365037558593748,21.077388125C20.365037558593748,21.077388125,18.55999755859375,21.077388125,18.55999755859375,21.077388125C18.55999755859375,21.077388125,18.55999755859375,18.392578125,18.55999755859375,18.392578125Z" fill="#FFFFFF" fill-opacity="1"/></g><g><rect x="19.170654296875" y="19.24853515625" width="0.5440654754638672" height="1.5588940382003784" rx="0" fill="#8F632B" fill-opacity="1"/></g></g></g></g></svg>