<svg xmlns="http://www.w3.org/2000/svg" xmlns:xlink="http://www.w3.org/1999/xlink" fill="none" version="1.1" width="40" height="40" viewBox="0 0 40 40"><defs><filter id="master_svg0_542_55309" filterUnits="objectBoundingBox" color-interpolation-filters="sRGB" x="-0.375" y="-0.26666666666666666" width="1.75" height="1.8"><feFlood flood-opacity="0" result="BackgroundImageFix"/><feColorMatrix in="SourceAlpha" type="matrix" values="0 0 0 0 0 0 0 0 0 0 0 0 0 0 0 0 0 0 127 0"/><feOffset dy="0.9600000381469727" dx="0"/><feGaussianBlur stdDeviation="0.7200000286102295"/><feColorMatrix type="matrix" values="0 0 0 0 0.13180898129940033 0 0 0 0 0.4072897732257843 0 0 0 0 0.7480159997940063 0 0 0 1 0"/><feBlend mode="normal" in2="BackgroundImageFix" result="effect1_dropShadow"/><feBlend mode="normal" in="SourceGraphic" in2="effect1_dropShadow" result="shape"/></filter></defs><g><g><ellipse cx="20" cy="19.999998092651367" rx="20" ry="19.999998092651367" fill="#E5F1FF" fill-opacity="1"/></g><g><g><g><g><path d="M27.4691853515625,30.5604296875C27.4691853515625,30.5604296875,12.5297753515625,30.5604296875,12.5297753515625,30.5604296875C11.8833373515625,30.5604296875,11.3599853515625,30.0552296875,11.3599853515625,29.4322296875C11.3599853515625,29.4322296875,11.3599853515625,10.5691396875,11.3599853515625,10.5691396875C11.3599853515625,9.9456646875,11.8833373515625,9.4404296875,12.5297753515625,9.4404296875C12.5297753515625,9.4404296875,23.3599853515625,9.4404296875,23.3599853515625,9.4404296875C23.3599853515625,9.4404296875,28.6399853515625,14.2404296875,28.6399853515625,14.2404296875C28.6399853515625,14.2404296875,28.6399853515625,29.4322296875,28.6399853515625,29.4322296875C28.6399853515625,30.0552296875,28.1158853515625,30.5604296875,27.4691853515625,30.5604296875Z" fill="#327EDC" fill-opacity="1"/></g></g><g><g><path d="M28.6399853515625,14.2404296875C28.6399853515625,14.2404296875,23.3599853515625,14.2404296875,23.3599853515625,14.2404296875C23.3599853515625,14.2404296875,23.3599853515625,9.4404296875,23.3599853515625,9.4404296875C23.3599853515625,9.4404296875,28.6399853515625,14.2404296875,28.6399853515625,14.2404296875Z" fill="#1E63B7" fill-opacity="1"/></g></g></g><g filter="url(#master_svg0_542_55309)"><path d="M23.38990314453125,23.840075C23.29916314453125,23.840075,23.207693144531248,23.812155,23.13005314453125,23.756315C23.13005314453125,23.756315,20.03879314453125,21.532425,20.03879314453125,21.532425C20.03879314453125,21.532425,16.86503614453125,23.759725,16.86503614453125,23.759725C16.72819714453125,23.855745,16.54865614453125,23.867775,16.40089814453125,23.787865C16.25265524453125,23.709105,16.15997314453125,23.553155,16.15997314453125,23.383355C16.15997314453125,23.383355,16.15997314453125,17.097798,16.15997314453125,17.097798C16.15997314453125,16.84515,16.36159314453125,16.640625,16.61003914453125,16.640625C16.85800014453125,16.640625,17.05962014453125,16.84515,17.05962014453125,17.097798C17.05962014453125,17.097798,17.05962014453125,22.512145,17.05962014453125,22.512145C17.05962014453125,22.512145,19.78670314453125,20.598095,19.78670314453125,20.598095C19.94223314453125,20.490505,20.14821314453125,20.491185,20.30204314453125,20.601275C20.30204314453125,20.601275,22.94008314453125,22.499205,22.94008314453125,22.499205C22.94008314453125,22.499205,22.94008314453125,17.097798,22.94008314453125,17.097798C22.94008314453125,16.84515,23.14146314453125,16.640625,23.38990314453125,16.640625C23.63835314453125,16.640625,23.83997314453125,16.84515,23.83997314453125,17.097798C23.83997314453125,17.097798,23.83997314453125,23.383355,23.83997314453125,23.383355C23.83997314453125,23.554065,23.746073144531252,23.711145000000002,23.596383144531252,23.789234999999998C23.531353144531252,23.823505,23.460513144531248,23.840075,23.38990314453125,23.840075Z" fill="#FFFFFF" fill-opacity="1"/></g></g></g></svg>