<svg xmlns="http://www.w3.org/2000/svg" xmlns:xlink="http://www.w3.org/1999/xlink" fill="none" version="1.1" width="40" height="40" viewBox="0 0 40 40"><defs><filter id="master_svg0_542_56478" filterUnits="objectBoundingBox" color-interpolation-filters="sRGB" x="-0.3333333333333333" y="-0.2758713773371118" width="1.6666666666666667" height="1.8276141320113355"><feFlood flood-opacity="0" result="BackgroundImageFix"/><feColorMatrix in="SourceAlpha" type="matrix" values="0 0 0 0 0 0 0 0 0 0 0 0 0 0 0 0 0 0 127 0"/><feOffset dy="0.9600000381469727" dx="0"/><feGaussianBlur stdDeviation="0.7200000286102295"/><feColorMatrix type="matrix" values="0 0 0 0 0.14047971367835999 0 0 0 0 0.42538946866989136 0 0 0 0 0.777777910232544 0 0 0 1 0"/><feBlend mode="normal" in2="BackgroundImageFix" result="effect1_dropShadow"/><feBlend mode="normal" in="SourceGraphic" in2="effect1_dropShadow" result="shape"/></filter></defs><g><g><ellipse cx="20" cy="19.999998092651367" rx="20" ry="19.999998092651367" fill="#E5F1FF" fill-opacity="1"/></g><g><g><g><g><path d="M27.4691853515625,30.5623828125C27.4691853515625,30.5623828125,12.5297753515625,30.5623828125,12.5297753515625,30.5623828125C11.8833373515625,30.5623828125,11.3599853515625,30.0571828125,11.3599853515625,29.4341828125C11.3599853515625,29.4341828125,11.3599853515625,10.5710928125,11.3599853515625,10.5710928125C11.3599853515625,9.9476178125,11.8833373515625,9.4423828125,12.5297753515625,9.4423828125C12.5297753515625,9.4423828125,23.3599853515625,9.4423828125,23.3599853515625,9.4423828125C23.3599853515625,9.4423828125,28.6399853515625,14.2423828125,28.6399853515625,14.2423828125C28.6399853515625,14.2423828125,28.6399853515625,29.4341828125,28.6399853515625,29.4341828125C28.6399853515625,30.0571828125,28.1158853515625,30.5623828125,27.4691853515625,30.5623828125Z" fill="#327EDC" fill-opacity="1"/></g></g><g><g><path d="M28.6399853515625,14.2423828125C28.6399853515625,14.2423828125,23.3599853515625,14.2423828125,23.3599853515625,14.2423828125C23.3599853515625,14.2423828125,23.3599853515625,9.4423828125,23.3599853515625,9.4423828125C23.3599853515625,9.4423828125,28.6399853515625,14.2423828125,28.6399853515625,14.2423828125Z" fill="#1E63B7" fill-opacity="1"/></g></g></g><g filter="url(#master_svg0_542_56478)"><g><rect x="15.67999267578125" y="17.12255859375" width="8.640000343322754" height="1.2000000476837158" rx="0.6000000238418579" fill="#FFFFFF" fill-opacity="1"/></g><g><rect x="15.67999267578125" y="20.00244140625" width="8.640000343322754" height="1.2000000476837158" rx="0.6000000238418579" fill="#FFFFFF" fill-opacity="1"/></g><g><rect x="15.67999267578125" y="22.88232421875" width="3.8400001525878906" height="1.2000000476837158" rx="0.6000000238418579" fill="#FFFFFF" fill-opacity="1"/></g></g></g></g></svg>