<svg xmlns="http://www.w3.org/2000/svg" xmlns:xlink="http://www.w3.org/1999/xlink" fill="none" version="1.1" width="40" height="40" viewBox="0 0 40 40"><defs><filter id="master_svg0_542_56853" filterUnits="objectBoundingBox" color-interpolation-filters="sRGB" x="-0.3333333333333333" y="-0.24444444984074964" width="1.6666666666666667" height="1.733333349522249"><feFlood flood-opacity="0" result="BackgroundImageFix"/><feColorMatrix in="SourceAlpha" type="matrix" values="0 0 0 0 0 0 0 0 0 0 0 0 0 0 0 0 0 0 127 0"/><feOffset dy="0.9600000381469727" dx="0"/><feGaussianBlur stdDeviation="0.7200000286102295"/><feColorMatrix type="matrix" values="0 0 0 0 0.8432540893554688 0 0 0 0 0.36125704646110535 0 0 0 0 0.17830923199653625 0 0 0 1 0"/><feBlend mode="normal" in2="BackgroundImageFix" result="effect1_dropShadow"/><feBlend mode="normal" in="SourceGraphic" in2="effect1_dropShadow" result="shape"/></filter></defs><g><g><ellipse cx="20" cy="19.999998092651367" rx="20" ry="19.999998092651367" fill="#FFE6DD" fill-opacity="1"/></g><g><g><g><g><path d="M27.4691853515625,30.56384765625C27.4691853515625,30.56384765625,12.5297753515625,30.56384765625,12.5297753515625,30.56384765625C11.8833373515625,30.56384765625,11.3599853515625,30.05864765625,11.3599853515625,29.43564765625C11.3599853515625,29.43564765625,11.3599853515625,10.57255765625,11.3599853515625,10.57255765625C11.3599853515625,9.94908265625,11.8833373515625,9.44384765625,12.5297753515625,9.44384765625C12.5297753515625,9.44384765625,23.3599853515625,9.44384765625,23.3599853515625,9.44384765625C23.3599853515625,9.44384765625,28.6399853515625,14.24384765625,28.6399853515625,14.24384765625C28.6399853515625,14.24384765625,28.6399853515625,29.43564765625,28.6399853515625,29.43564765625C28.6399853515625,30.05864765625,28.1158853515625,30.56384765625,27.4691853515625,30.56384765625Z" fill="#FC733F" fill-opacity="1"/></g></g><g><g><path d="M28.6399853515625,14.24384765625C28.6399853515625,14.24384765625,23.3599853515625,14.24384765625,23.3599853515625,14.24384765625C23.3599853515625,14.24384765625,23.3599853515625,9.44384765625,23.3599853515625,9.44384765625C23.3599853515625,9.44384765625,28.6399853515625,14.24384765625,28.6399853515625,14.24384765625Z" fill="#D45220" fill-opacity="1"/></g></g></g><g filter="url(#master_svg0_542_56853)"><path d="M15.67999267578125,21.49435125L15.67999267578125,23.53859125C15.67999267578125,24.06878125,16.10979967578125,24.49859125,16.63999267578125,24.49859125L23.35999267578125,24.49859125C23.89018267578125,24.49859125,24.31999267578125,24.06878125,24.31999267578125,23.53859125L24.31999267578125,21.90002125L22.83504267578125,20.40008125Q22.555702675781248,20.117931249999998,22.160792675781252,20.10748125Q21.76589267578125,20.09703125,21.47231267578125,20.36402125L18.99928267578125,22.61312125Q18.50998267578125,23.05812125,17.85181267578125,23.040701249999998Q17.19363267578125,23.02328125,16.72807267578125,22.55302125L15.67999267578125,21.49435125L15.67999267578125,21.49435125ZM15.67999267578125,20.55135125L17.19485267578125,22.08152125Q17.47419267578125,22.36368125,17.86909267578125,22.374131249999998Q18.26400267578125,22.38458125,18.55758267578125,22.11758125L21.03061267578125,19.86848125Q21.51991267578125,19.42349125,22.17808267578125,19.44091125Q22.83626267578125,19.45832125,23.30182267578125,19.92858125L24.31999267578125,20.95702125L24.31999267578125,17.60404325C24.31999267578125,17.07384925,23.89018267578125,16.644042969,23.35999267578125,16.644042969L16.63999267578125,16.644042969C16.10979967578125,16.644042969,15.67999267578125,17.07384925,15.67999267578125,17.60404325L15.67999267578125,20.55135125L15.67999267578125,20.55135125ZM18.70389267578125,19.26189125Q18.70389267578125,19.347841250000002,18.68729267578125,19.43215125Q18.67069267578125,19.51645125,18.63812267578125,19.59586125Q18.60556267578125,19.67528125,18.55828267578125,19.74675125Q18.51100267578125,19.81822125,18.45083267578125,19.87900125Q18.39066267578125,19.93978125,18.31990267578125,19.98753125Q18.24915267578125,20.03529125,18.17053267578125,20.06818125Q18.09191267578125,20.10107125,18.00845267578125,20.11784125Q17.92498267578125,20.13461125,17.83989267578125,20.13461125Q17.75479267578125,20.13461125,17.67133267578125,20.11784125Q17.58787267578125,20.10107125,17.50925267578125,20.06818125Q17.43063267578125,20.03529125,17.35988267578125,19.98753125Q17.28912267578125,19.93978125,17.22895267578125,19.87900125Q17.16878267578125,19.81822125,17.12150267578125,19.74675125Q17.07422267578125,19.67528125,17.04166267578125,19.59586125Q17.00909267578125,19.51645125,16.99249267578125,19.43215125Q16.97589267578125,19.347841250000002,16.97589267578125,19.26189125Q16.97589267578125,19.17593125,16.99249267578125,19.09163125Q17.00909267578125,19.00732125,17.04166267578125,18.92791125Q17.07422267578125,18.84849125,17.12150267578125,18.77702125Q17.16878267578125,18.70555125,17.22895267578125,18.644771249999998Q17.28912267578125,18.58399125,17.35988267578125,18.53624125Q17.43063267578125,18.48849125,17.50925267578125,18.45559125Q17.58787267578125,18.42270125,17.67133267578125,18.405931250000002Q17.75479267578125,18.38916125,17.83989267578125,18.38916125Q17.92498267578125,18.38916125,18.00845267578125,18.405931250000002Q18.09191267578125,18.42270125,18.17053267578125,18.45559125Q18.24915267578125,18.48849125,18.31990267578125,18.53624125Q18.39066267578125,18.58399125,18.45083267578125,18.644771249999998Q18.51100267578125,18.70555125,18.55828267578125,18.77702125Q18.60556267578125,18.84849125,18.63812267578125,18.92791125Q18.67069267578125,19.00732125,18.68729267578125,19.09163125Q18.70389267578125,19.17593125,18.70389267578125,19.26189125Z" fill-rule="evenodd" fill="#FFFFFF" fill-opacity="1"/></g></g></g></svg>