<svg xmlns="http://www.w3.org/2000/svg" xmlns:xlink="http://www.w3.org/1999/xlink" fill="none" version="1.1" width="40" height="40" viewBox="0 0 40 40"><g><g><ellipse cx="20" cy="19.999998092651367" rx="20" ry="19.999998092651367" fill="#FFEEEE" fill-opacity="1"/></g><g><g><g><g><path d="M27.4691853515625,30.5604296875C27.4691853515625,30.5604296875,12.5297753515625,30.5604296875,12.5297753515625,30.5604296875C11.8833373515625,30.5604296875,11.3599853515625,30.0552296875,11.3599853515625,29.4322296875C11.3599853515625,29.4322296875,11.3599853515625,10.5691396875,11.3599853515625,10.5691396875C11.3599853515625,9.9456646875,11.8833373515625,9.4404296875,12.5297753515625,9.4404296875C12.5297753515625,9.4404296875,23.3599853515625,9.4404296875,23.3599853515625,9.4404296875C23.3599853515625,9.4404296875,28.6399853515625,14.2404296875,28.6399853515625,14.2404296875C28.6399853515625,14.2404296875,28.6399853515625,29.4322296875,28.6399853515625,29.4322296875C28.6399853515625,30.0552296875,28.1158853515625,30.5604296875,27.4691853515625,30.5604296875Z" fill="#EA615E" fill-opacity="1"/></g></g><g><g><path d="M28.6399853515625,14.2404296875C28.6399853515625,14.2404296875,23.3599853515625,14.2404296875,23.3599853515625,14.2404296875C23.3599853515625,14.2404296875,23.3599853515625,9.4404296875,23.3599853515625,9.4404296875C23.3599853515625,9.4404296875,28.6399853515625,14.2404296875,28.6399853515625,14.2404296875Z" fill="#CB3935" fill-opacity="1"/></g></g></g><g><path d="M23.56049314453125,17.5580125C23.47564314453125,17.5914625,23.385343144531248,17.6069525,23.29470314453125,17.604142500000002C23.01664314453125,17.604142500000002,22.67316314453125,17.4759825,22.19337314453125,17.2629925C22.36137314453125,17.2506725,22.52970314453125,17.243962500000002,22.69838314453125,17.2429125C22.97780314453125,17.2429125,23.05958314453125,17.2429125,23.33150314453125,17.313322499999998C23.60343314453125,17.3855025,23.60922314453125,17.5280925,23.56254314453125,17.5580125M18.72617314453125,17.6023725C18.833163144531248,17.4076825,18.94357314453125,17.2010225,19.05636314453125,16.9841425C19.332033144531252,16.4525325,19.50514314453125,16.0370925,19.63701314453125,15.6938325C19.90894314453125,16.2117025,20.28581314453125,16.6651725,20.74038314453125,17.0302725C20.05478314453125,17.1608925,19.38076314453125,17.3534725,18.72617314453125,17.6023725ZM19.61963314453125,12.5692365C19.77502314453125,12.5692365,19.86055314453125,12.964603499999999,19.86839314453125,13.3318025C19.88236314453125,13.6162925,19.81898314453125,13.8993425,19.68574314453125,14.1485925C19.60021314453125,13.8151925,19.55727314453125,13.4719325,19.55761314453125,13.1272545C19.55761314453125,13.1272545,19.551823144531248,12.5692365,19.62168314453125,12.5692365M16.62267314453125,19.6331125C16.70820314453125,19.3901725,17.05202814453125,18.9106625,17.55498314453125,18.487122499999998C17.61836314453125,18.4322025,17.68004314453125,18.3744525,17.73933314453125,18.3146025C17.21116314453125,19.1817525,16.85370714453125,19.5229025,16.62267314453125,19.630982500000002M23.71009314453125,17.0524525C23.55470314453125,16.8957825,23.21496314453125,16.8155025,22.70008314453125,16.807402500000002C22.29219314453125,16.807402500000002,21.884313144531248,16.8398025,21.48221314453125,16.8999925C21.28082314453125,16.788742499999998,21.09170314453125,16.6549725,20.918943144531248,16.5004025C20.46233314453125,16.0511725,20.11305314453125,15.4980625,19.89939314453125,14.8851225C19.89939314453125,14.8851225,19.93824314453125,14.7224725,19.93824314453125,14.7224725C19.93824314453125,14.7224725,20.18086314453125,13.3078715,20.11680314453125,12.8301135C20.11169314453125,12.7832905,20.10044314453125,12.7375215,20.08374314453125,12.6935125C20.08374314453125,12.6935125,20.06432314453125,12.6375305,20.06432314453125,12.6375305C19.99855314453125,12.4829825,19.86839314453125,12.31644312,19.66427314453125,12.32453365C19.66427314453125,12.32453365,19.54398314453125,12.3203125,19.54398314453125,12.3203125C19.31874314453125,12.3203125,19.13201314453125,12.4407255,19.08362314453125,12.6174665C18.93403314453125,13.1751465,19.08941314453125,14.0081225,19.363383144531248,15.0858125C19.363383144531248,15.0858125,19.29319314453125,15.2621925,19.29319314453125,15.2621925C19.09078314453125,15.7469825,18.86894314453125,16.2229725,18.629053144531248,16.6891225C18.629053144531248,16.6891225,18.60179314453125,16.7454425,18.60179314453125,16.7454425C18.37076314453125,17.2070025,18.16289314453125,17.5981525,17.97241314453125,17.9294425C17.97241314453125,17.9294425,17.77818314453125,18.0319025,17.77818314453125,18.0319025C17.76284314453125,18.0417525,17.42856314453125,18.2223625,17.35087314453125,18.2727225C16.68469114453125,18.6758325,16.24204714453125,19.139512500000002,16.16810297453125,19.5046025C16.14663494453125,19.6232425,16.16230999453125,19.7714625,16.28089414453125,19.8418825C16.28089414453125,19.8418825,16.47103614453125,19.9362325,16.47103614453125,19.9362325C16.55043314453125,19.9784825,16.63834814453125,20.0006525,16.72762614453125,20.0003125C17.20128314453125,20.0003125,17.75296314453125,19.3982725,18.51047314453125,18.0456425C19.40802314453125,17.748842500000002,20.32670314453125,17.5238625,21.25902314453125,17.3756525C21.92724314453125,17.758692500000002,22.74472314453125,18.0237925,23.26335314453125,18.0237925C23.34104314453125,18.0255525,23.41874314453125,18.017802500000002,23.49643314453125,17.9995125C23.59184314453125,17.9762725,23.67533314453125,17.9178225,23.73155314453125,17.835092500000002C23.82935314453125,17.656592500000002,23.86240314453125,17.4481725,23.82492314453125,17.2471425C23.80686314453125,17.1721625,23.76835314453125,17.103852500000002,23.71417314453125,17.0503425" fill="#FFFFFF" fill-opacity="1"/></g><g><path d="M11.3599853515625,21.92041015625C11.3599853515625,21.92041015625,28.6399853515625,21.93296085625,28.6399853515625,21.93296085625C28.6399853515625,21.93296085625,28.6399853515625,27.680410156249998,28.6399853515625,27.680410156249998C28.6399853515625,27.680410156249998,11.3599853515625,27.66786015625,11.3599853515625,27.66786015625C11.3599853515625,27.66786015625,11.3599853515625,21.92041015625,11.3599853515625,21.92041015625Z" fill="#B14A48" fill-opacity="1"/></g><g><g><path d="M15.73152420703125,25.28511109375C15.73152420703125,25.28511109375,15.73152420703125,26.72037109375,15.73152420703125,26.72037109375C15.73152420703125,26.72037109375,15.20001220703125,26.72037109375,15.20001220703125,26.72037109375C15.20001220703125,26.72037109375,15.20001220703125,22.88037109375,15.20001220703125,22.88037109375C15.20001220703125,22.88037109375,16.36950220703125,22.88037109375,16.36950220703125,22.88037109375C16.81457220703125,22.88037109375,17.15974220703125,22.98049809375,17.405292207031252,23.18019709375C17.65056220703125,23.38044509375,17.77349220703125,23.66605809375,17.77349220703125,24.03812109375C17.77349220703125,24.41493109375,17.62991220703125,24.72032109375,17.342792207031252,24.95405109375C17.05564220703125,25.18805109375,16.69643220703125,25.29823109375,16.26602220703125,25.28511109375C16.26602220703125,25.28511109375,15.73152420703125,25.28511109375,15.73152420703125,25.28511109375ZM15.73152420703125,23.31685909375C15.73152420703125,23.31685909375,15.73152420703125,24.84862109375,15.73152420703125,24.84862109375C15.73152420703125,24.84862109375,16.22325220703125,24.84862109375,16.22325220703125,24.84862109375C16.54776220703125,24.84862109375,16.79422220703125,24.780571093749998,16.96263220703125,24.64418109375C17.13072220703125,24.50780109375,17.21507220703125,24.31228109375,17.21507220703125,24.05792109375C17.21507220703125,23.56370209375,16.90131220703125,23.31685909375,16.27379220703125,23.31685909375C16.27379220703125,23.31685909375,15.73152420703125,23.31685909375,15.73152420703125,23.31685909375Z" fill="#FFFFFF" fill-opacity="1"/></g><g><path d="M18.5311279296875,26.72037109375C18.5311279296875,26.72037109375,18.5311279296875,22.88037109375,18.5311279296875,22.88037109375C18.5311279296875,22.88037109375,19.7059979296875,22.88037109375,19.7059979296875,22.88037109375C20.3299379296875,22.88037109375,20.8488879296875,23.04994209375,21.2628379296875,23.38853909375C21.6764879296875,23.72741409375,21.8834779296875,24.18204109375,21.8834779296875,24.75212109375C21.8834779296875,25.34703109375,21.6764879296875,25.82396109375,21.2628379296875,26.18237109375C20.8488879296875,26.54104109375,20.3158779296875,26.72037109375,19.6635279296875,26.72037109375C19.6635279296875,26.72037109375,18.5311279296875,26.72037109375,18.5311279296875,26.72037109375ZM19.0626249296875,23.32160309375C19.0626249296875,23.32160309375,19.0626249296875,26.28165109375,19.0626249296875,26.28165109375C19.0626249296875,26.28165109375,19.6608579296875,26.28165109375,19.6608579296875,26.28165109375C20.1836779296875,26.28165109375,20.5916379296875,26.148621093750002,20.8850779296875,25.88254109375C21.1784879296875,25.61646109375,21.3253579296875,25.24384109375,21.3253579296875,24.76439109375C21.3253579296875,24.28523109375,21.1745979296875,23.92489109375,20.8730879296875,23.68362609375C20.5719179296875,23.44237409375,20.1756079296875,23.32160309375,19.6847779296875,23.32160309375C19.6847779296875,23.32160309375,19.0626249296875,23.32160309375,19.0626249296875,23.32160309375Z" fill="#FFFFFF" fill-opacity="1"/></g><g><path d="M24.799986796875,23.32160309375C24.799986796875,23.32160309375,23.209963796875,23.32160309375,23.209963796875,23.32160309375C23.209963796875,23.32160309375,23.209963796875,24.60570109375,23.209963796875,24.60570109375C23.209963796875,24.60570109375,24.683046796875,24.60570109375,24.683046796875,24.60570109375C24.683046796875,24.60570109375,24.683046796875,25.04219109375,24.683046796875,25.04219109375C24.683046796875,25.04219109375,23.209963796875,25.04219109375,23.209963796875,25.04219109375C23.209963796875,25.04219109375,23.209963796875,26.72037109375,23.209963796875,26.72037109375C23.209963796875,26.72037109375,22.678466796875,26.72037109375,22.678466796875,26.72037109375C22.678466796875,26.72037109375,22.678466796875,22.88037109375,22.678466796875,22.88037109375C22.678466796875,22.88037109375,24.799986796875,22.88037109375,24.799986796875,22.88037109375C24.799986796875,22.88037109375,24.799986796875,23.32160309375,24.799986796875,23.32160309375Z" fill="#FFFFFF" fill-opacity="1"/></g></g></g></g></svg>