<svg xmlns="http://www.w3.org/2000/svg" xmlns:xlink="http://www.w3.org/1999/xlink" fill="none" version="1.1" width="40" height="40" viewBox="0 0 40 40"><defs><filter id="master_svg0_542_56018" filterUnits="objectBoundingBox" color-interpolation-filters="sRGB" x="-0.3916093464975532" y="-0.2395882150073081" width="1.7832186929951064" height="1.7187646450219243"><feFlood flood-opacity="0" result="BackgroundImageFix"/><feColorMatrix in="SourceAlpha" type="matrix" values="0 0 0 0 0 0 0 0 0 0 0 0 0 0 0 0 0 0 127 0"/><feOffset dy="0.9600000381469727" dx="0"/><feGaussianBlur stdDeviation="0.7200000286102295"/><feColorMatrix type="matrix" values="0 0 0 0 0.8373017311096191 0 0 0 0 0.36940184235572815 0 0 0 0 0.19180479645729065 0 0 0 1 0"/><feBlend mode="normal" in2="BackgroundImageFix" result="effect1_dropShadow"/><feBlend mode="normal" in="SourceGraphic" in2="effect1_dropShadow" result="shape"/></filter><filter id="master_svg1_542_56023" filterUnits="objectBoundingBox" color-interpolation-filters="sRGB" x="-0.7832186929951064" y="-0.5989705375182702" width="2.5664373859902128" height="2.4375292900438486"><feFlood flood-opacity="0" result="BackgroundImageFix"/><feColorMatrix in="SourceAlpha" type="matrix" values="0 0 0 0 0 0 0 0 0 0 0 0 0 0 0 0 0 0 127 0"/><feOffset dy="0.9600000381469727" dx="0"/><feGaussianBlur stdDeviation="1.440000057220459"/><feColorMatrix type="matrix" values="0 0 0 0 0.8588235378265381 0 0 0 0 0.40784314274787903 0 0 0 0 0.16862745583057404 0 0 0 1 0"/><feBlend mode="normal" in2="BackgroundImageFix" result="effect1_dropShadow"/><feBlend mode="normal" in="SourceGraphic" in2="effect1_dropShadow" result="shape"/></filter></defs><g><g><ellipse cx="20" cy="19.999998092651367" rx="20" ry="19.999998092651367" fill="#FFE6DD" fill-opacity="1"/></g><g><g><g><g><path d="M27.4691853515625,30.56140625C27.4691853515625,30.56140625,12.5297753515625,30.56140625,12.5297753515625,30.56140625C11.8833373515625,30.56140625,11.3599853515625,30.05620625,11.3599853515625,29.43320625C11.3599853515625,29.43320625,11.3599853515625,10.57011625,11.3599853515625,10.57011625C11.3599853515625,9.94664125,11.8833373515625,9.44140625,12.5297753515625,9.44140625C12.5297753515625,9.44140625,23.3599853515625,9.44140625,23.3599853515625,9.44140625C23.3599853515625,9.44140625,28.6399853515625,14.24140625,28.6399853515625,14.24140625C28.6399853515625,14.24140625,28.6399853515625,29.43320625,28.6399853515625,29.43320625C28.6399853515625,30.05620625,28.1158853515625,30.56140625,27.4691853515625,30.56140625Z" fill="#FC733F" fill-opacity="1"/></g></g><g><g><path d="M28.6399853515625,14.24140625C28.6399853515625,14.24140625,23.3599853515625,14.24140625,23.3599853515625,14.24140625C23.3599853515625,14.24140625,23.3599853515625,9.44140625,23.3599853515625,9.44140625C23.3599853515625,9.44140625,28.6399853515625,14.24140625,28.6399853515625,14.24140625Z" fill="#D45220" fill-opacity="1"/></g></g></g><g filter="url(#master_svg0_542_56018)"><g filter="url(#master_svg1_542_56023)"><path d="M17.01333214453125,21.429899374999998L20.87963314453125,21.429899374999998C22.33252314453125,21.429899374999998,23.51424314453125,20.247719375,23.51424314453125,18.795759375C23.51424314453125,17.343109375,22.33252314453125,16.161621094,20.87963314453125,16.161621094L16.58658414453125,16.161621094C16.35806914453125,16.161621094,16.17291264453125,16.347011375,16.17291264453125,16.574589375C16.17291264453125,16.803105375,16.35806914453125,16.988261375,16.58658414453125,16.988261375L20.87963314453125,16.988261375C21.87619314453125,16.988261375,22.68736314453125,17.798969375,22.68736314453125,18.795759375C22.68736314453125,19.792089375,21.87619314453125,20.602559375,20.87963314453125,20.602559375L17.01333214453125,20.602559375L17.01333214453125,19.301539375C17.01333214453125,19.065529375,16.82184814453125,18.874509375,16.58677014453125,18.874509375C16.35122314453125,18.874509375,16.15997314453125,19.065529375,16.15997314453125,19.301539375L16.15997314453125,23.748809375C16.15997314453125,23.984119375,16.35122314453125,24.175369375000002,16.58677014453125,24.175369375000002C16.82184814453125,24.175369375000002,17.01333214453125,23.984119375,17.01333214453125,23.748809375L17.01333214453125,21.429899374999998Z" fill-rule="evenodd" fill="#FFFFFF" fill-opacity="1"/></g></g></g></g></svg>