<svg xmlns="http://www.w3.org/2000/svg" xmlns:xlink="http://www.w3.org/1999/xlink" fill="none" version="1.1" width="40" height="40" viewBox="0 0 40 40"><defs><clipPath id="master_svg0_542_56988"><rect x="0" y="0" width="40" height="40" rx="0"/></clipPath></defs><g clip-path="url(#master_svg0_542_56988)"><g><g><g><path d="M5.234375,18.06670546875L5.234375,8.28060546875C5.234375,7.08767046875,6.20144,6.12060546875,7.394375,6.12060546875L15.893075,6.12060546875C16.426375,6.12060546875,16.916075,6.41541646875,17.165675,6.88678646875L17.794375000000002,8.07411546875C18.043875,8.54548546875,18.533575,8.84029546875,19.066975,8.84029546875L32.601275,8.84029546875C33.793775,8.84029546875,34.760575,9.79092546875,34.761275,10.983345468749999Q34.762875,13.53952546875,34.765575,18.07710546875C34.765575,18.45930546875,34.545275000000004,18.769205468750002,34.273475000000005,18.769205468750002L5.726563,19.451005468749997C5.454735,19.451005468749997,5.234375,19.14110546875,5.234375,18.75890546875L5.234375,18.06670546875Z" fill-rule="evenodd" fill="#E3940C" fill-opacity="1"/></g><g><path d="M7.203125,17.8769325L7.203125,13.0728125C7.203125,12.2775225,7.847835,11.6328125,8.643125,11.6328125L31.356825,11.6328125C32.152125,11.6328125,32.796925,12.2775225,32.796925,13.0728125L32.796925,17.8769325C32.796925,18.3695825,32.576525000000004,18.7689525,32.304725000000005,18.7689525L7.695313,18.7689525C7.423485,18.7689525,7.203125,18.3695825,7.203125,17.8769325Z" fill="#FFFFFF" fill-opacity="1" style="mix-blend-mode:passthrough"/></g><g><path d="M7.399274999999999,32.2400125L32.600775,32.2400125C33.793375,32.2400125,34.760374999999996,31.2734125,34.760774999999995,30.0807125L34.765575,15.5703125L5.234375,15.5703125L5.23927138,30.0807125C5.23967382,31.2734125,6.206621,32.2400125,7.399274999999999,32.2400125" fill="#FFC60A" fill-opacity="1"/></g></g></g></g></svg>