<svg xmlns="http://www.w3.org/2000/svg" xmlns:xlink="http://www.w3.org/1999/xlink" fill="none" version="1.1" width="40" height="40" viewBox="0 0 40 40"><defs><filter id="master_svg0_542_56710" filterUnits="objectBoundingBox" color-interpolation-filters="sRGB" x="-0.3" y="-0.23094012099755246" width="1.6" height="1.6928203629926573"><feFlood flood-opacity="0" result="BackgroundImageFix"/><feColorMatrix in="SourceAlpha" type="matrix" values="0 0 0 0 0 0 0 0 0 0 0 0 0 0 0 0 0 0 127 0"/><feOffset dy="0.9600000381469727" dx="0"/><feGaussianBlur stdDeviation="0.7200000286102295"/><feColorMatrix type="matrix" values="0 0 0 0 0.3200475871562958 0 0 0 0 0.3839179277420044 0 0 0 0 0.7896826863288879 0 0 0 1 0"/><feBlend mode="normal" in2="BackgroundImageFix" result="effect1_dropShadow"/><feBlend mode="normal" in="SourceGraphic" in2="effect1_dropShadow" result="shape"/></filter></defs><g><g><ellipse cx="20" cy="19.999998092651367" rx="20" ry="19.999998092651367" fill="#E9ECFF" fill-opacity="1"/></g><g><g><g><g><path d="M27.4691853515625,30.563359375C27.4691853515625,30.563359375,12.5297753515625,30.563359375,12.5297753515625,30.563359375C11.8833373515625,30.563359375,11.3599853515625,30.058159375,11.3599853515625,29.435159375C11.3599853515625,29.435159375,11.3599853515625,10.572069375,11.3599853515625,10.572069375C11.3599853515625,9.948594375,11.8833373515625,9.443359375,12.5297753515625,9.443359375C12.5297753515625,9.443359375,23.3599853515625,9.443359375,23.3599853515625,9.443359375C23.3599853515625,9.443359375,28.6399853515625,14.243359375,28.6399853515625,14.243359375C28.6399853515625,14.243359375,28.6399853515625,29.435159375,28.6399853515625,29.435159375C28.6399853515625,30.058159375,28.1158853515625,30.563359375,27.4691853515625,30.563359375Z" fill="#6273DF" fill-opacity="1"/></g></g><g><g><path d="M28.6399853515625,14.243359375C28.6399853515625,14.243359375,23.3599853515625,14.243359375,23.3599853515625,14.243359375C23.3599853515625,14.243359375,23.3599853515625,9.443359375,23.3599853515625,9.443359375C23.3599853515625,9.443359375,28.6399853515625,14.243359375,28.6399853515625,14.243359375Z" fill="#3B4DBC" fill-opacity="1"/></g></g></g><g transform="matrix(0,1,-1,0,40.00360107421875,-9.59637451171875)" filter="url(#master_svg0_542_56710)"><path d="M30.43136779296875,16.64361328125L33.56860779296875,22.07745328125C33.93810779296875,22.717453281250002,33.47622779296875,23.51745328125,32.73721779296875,23.51745328125L26.462757792968752,23.51745328125C25.72374879296875,23.51745328125,25.26186779296875,22.717453281250002,25.63137279296875,22.07745328125L28.76860779296875,16.64361328125C29.13810779296875,16.00361328125,30.061867792968748,16.00361328125,30.43136779296875,16.64361328125" fill="#FFFFFF" fill-opacity="1"/></g></g></g></svg>