<svg xmlns="http://www.w3.org/2000/svg" xmlns:xlink="http://www.w3.org/1999/xlink" fill="none" version="1.1" width="250" height="250" viewBox="0 0 250 250"><defs><clipPath id="master_svg0_620_34090"><rect x="0" y="0" width="250" height="250" rx="0"/></clipPath><filter id="master_svg1_620_34093" filterUnits="objectBoundingBox" color-interpolation-filters="sRGB" x="-0.4845814827709111" y="-0.6534653651995972" width="1.9691629655418221" height="2.7425743071989257"><feFlood flood-opacity="0" result="BackgroundImageFix"/><feColorMatrix in="SourceAlpha" type="matrix" values="0 0 0 0 0 0 0 0 0 0 0 0 0 0 0 0 0 0 127 0"/><feOffset dy="16.5289249420166" dx="0"/><feGaussianBlur stdDeviation="16.5289249420166"/><feColorMatrix type="matrix" values="0 0 0 0 0.3960784375667572 0 0 0 0 0.47843137383461 0 0 0 0 0.5764706134796143 0 0 0 0.27000001072883606 0"/><feBlend mode="normal" in2="BackgroundImageFix" result="effect1_dropShadow"/><feBlend mode="normal" in="SourceGraphic" in2="effect1_dropShadow" result="shape"/></filter><linearGradient x1="0.4996841251850128" y1="-0.02316455729305744" x2="0.4996841251850128" y2="1.0107594728469849" id="master_svg2_620_34095"><stop offset="0%" stop-color="#FDFEFF" stop-opacity="1"/><stop offset="99.6399998664856%" stop-color="#ECF0F5" stop-opacity="1"/></linearGradient></defs><g clip-path="url(#master_svg0_620_34090)"><g><g><path d="M215.11991015625,134.29099096069336Q215.11991015625,136.46739096069336,215.01291015625,138.64109096069336Q214.90491015625,140.81489096069336,214.69091015625,142.98079096069335Q214.47591015625,145.14659096069335,214.15391015625,147.29989096069335Q213.83291015625,149.45189096069336,213.40491015625,151.58689096069335Q212.97791015625,153.72089096069334,212.44491015625,155.83289096069336Q211.91291015625,157.94389096069335,211.27691015625,160.02589096069335Q210.64091015625,162.10889096069337,209.90291015625,164.15789096069335Q209.16491015625,166.20689096069336,208.32591015625,168.21789096069335Q207.48791015625,170.22889096069338,206.55091015625,172.19589096069336Q205.61391015625,174.16289096069335,204.58091015625,176.08289096069336Q203.54791015625,178.00189096069337,202.42191015625,179.86889096069336Q201.29491015625,181.73589096069335,200.07791015625,183.54489096069335Q198.86091015625,185.35489096069335,197.55491015625,187.10289096069337Q196.24991015625,188.85089096069336,194.85991015625,190.53289096069335Q193.46991015625,192.21589096069337,191.99891015625,193.82789096069337Q190.52691015625,195.44089096069337,188.97791015625,196.97989096069335Q187.42791015625,198.51889096069337,185.80491015625,199.97989096069335Q184.18091015625,201.44189096069337,182.48791015625,202.82189096069337Q180.79391015625,204.20289096069337,179.03391015625,205.49989096069336Q177.27391015625,206.79589096069336,175.45191015625,208.00489096069336Q173.62991015625,209.21389096069336,171.75091015625,210.33289096069336Q169.87191015625,211.45189096069336,167.93891015625,212.47789096069337Q166.00691015625,213.50389096069335,164.02591015625,214.43389096069336Q162.04491015625,215.36489096069337,160.02091015625,216.19789096069337Q157.99691015625,217.03089096069337,155.93391015625,217.76389096069335Q153.87091015625,218.49689096069335,151.77391015625,219.12889096069335Q149.67691015625002,219.76089096069336,147.55191015625002,220.28889096069335Q145.42591015624998,220.81789096069335,143.27691015624998,221.24289096069336Q141.12791015624998,221.66689096069337,138.96091015625,221.98689096069336Q136.79291015625,222.30589096069335,134.61271015625,222.51889096069337Q132.43221015625,222.73289096069337,130.24371015625002,222.83889096069336Q128.05521015624998,222.94589096069336,125.86411015625,222.94589096069336Q123.67301015625,222.94589096069336,121.48451015625,222.83889096069336Q119.29601015625,222.73289096069337,117.11551015625,222.51889096069337Q114.93491015625,222.30589096069335,112.76751015625,221.98689096069336Q110.60011015625,221.66689096069337,108.45111015625,221.24289096069336Q106.30201015625,220.81789096069335,104.17661015625,220.28889096069335Q102.05121015625,219.76089096069336,99.95441015624999,219.12889096069335Q97.85761015624999,218.49689096069335,95.79461015625,217.76389096069335Q93.73151015625001,217.03089096069337,91.70721015625,216.19789096069337Q89.68291015625,215.36489096069337,87.70211015625,214.43389096069336Q85.72141015625,213.50389096069335,83.78901015625,212.47789096069337Q81.85661015625,211.45189096069336,79.97721015625001,210.33289096069336Q78.09781015625,209.21389096069336,76.27601015625001,208.00489096069336Q74.45421015625,206.79589096069336,72.69421015625,205.49989096069336Q70.93431015625,204.20289096069337,69.24061015625,202.82189096069337Q67.54681015625,201.44189096069337,65.92331015625,199.97989096069335Q64.29981015625,198.51889096069337,62.75041015625,196.97989096069335Q61.201110156249996,195.44089096069337,59.729610156250004,193.82789096069337Q58.25821015625,192.21589096069337,56.86811015625,190.53289096069335Q55.47811015625,188.85089096069336,54.17281015625,187.10289096069337Q52.867610156249995,185.35489096069335,51.65031015625,183.54489096069335Q50.43301015625,181.73589096069335,49.30651015625,179.86889096069336Q48.18001015625,178.00189096069337,47.14721015625,176.08289096069336Q46.114280156250004,174.16289096069335,45.17746015625,172.19589096069336Q44.24064015625,170.22889096069338,43.40213015625,168.21789096069335Q42.56363015625,166.20689096069336,41.82546015625,164.15789096069335Q41.08730015625,162.10889096069337,40.45125015625,160.02589096069335Q39.81520015625,157.94389096069335,39.28281015625,155.83289096069336Q38.75041015625,153.72089096069334,38.32294015625,151.58689096069335Q37.89548015625,149.45189096069336,37.57397315625,147.29989096069335Q37.25247015625,145.14659096069335,37.03770315625,142.98079096069335Q36.82293615625,140.81489096069336,36.71542315625,138.64109096069336Q36.60791015625,136.46739096069336,36.60791015625,134.29099096069336Q36.60791015625,132.11469096069337,36.71542315625,129.94089096069337Q36.82293615625,127.76719096069336,37.03770315625,125.60129096069336Q37.25247015625,123.43539096069335,37.57397315625,121.28259096069335Q37.89548015625,119.12979096069336,38.32294015625,116.99529096069335Q38.75041015625,114.86069096069336,39.28281015625,112.74959096069335Q39.81520015625,110.63849096069336,40.45125015625,108.55579096069336Q41.08730015625,106.47319096069336,41.82546015625,104.42399096069336Q42.56363015625,102.37489096069336,43.40213015625,100.36419096069335Q44.24064015625,98.35349096069336,45.17746015625,96.38609096069337Q46.114280156250004,94.41869096069337,47.14721015625,92.49929096069336Q48.18001015625,90.57989096069336,49.30651015625,88.71319096069337Q50.43301015625,86.84649096069336,51.65031015625,85.03689096069337Q52.867610156249995,83.22729096069335,54.17281015625,81.47919096069336Q55.47811015625,79.73119096069337,56.86811015625,78.04879096069337Q58.25821015625,76.36649096069335,59.729610156250004,74.75389096069335Q61.201110156249996,73.14129096069337,62.75041015625,71.60239096069336Q64.29981015625,70.06349096069336,65.92331015625,68.60189096069337Q67.54681015625,67.14039096069337,69.24061015625,65.75969096069336Q70.93431015625,64.37899096069336,72.69421015625,63.08259096069336Q74.45421015625,61.78609096069336,76.27601015625001,60.57699096069336Q78.09781015625,59.36789096069336,79.97721015625001,58.24899096069336Q81.85661015625,57.13009096069336,83.78901015625,56.10419096069336Q85.72141015625,55.07825096069336,87.70211015625,54.14773096069336Q89.68291015625,53.21722096069336,91.70721015625,52.38436096069336Q93.73151015625001,51.55150096069336,95.79461015625,50.81831096069336Q97.85761015624999,50.085110960693356,99.95441015624999,49.453350960693356Q102.05121015625,48.82159096069336,104.17661015625,48.29277096069336Q106.30201015625,47.76396096069336,108.45111015625,47.33937096069336Q110.60011015625,46.91479096069336,112.76751015625,46.59544896069336Q114.93491015625,46.27611096069336,117.11551015625,46.06278996069336Q119.29601015625,45.84946896069336,121.48451015625,45.74267996069336Q123.67301015625,45.63589096069336,125.86411015625,45.63589096069336Q128.05521015624998,45.63589096069336,130.24371015625002,45.74267996069336Q132.43221015625,45.84946896069336,134.61271015625,46.06278996069336Q136.79291015625,46.27611096069336,138.96091015625,46.59544896069336Q141.12791015624998,46.91479096069336,143.27691015624998,47.33937096069336Q145.42591015624998,47.76396096069336,147.55191015625002,48.29277096069336Q149.67691015625002,48.82159096069336,151.77391015625,49.453350960693356Q153.87091015625,50.085110960693356,155.93391015625,50.81831096069336Q157.99691015625,51.55150096069336,160.02091015625,52.38436096069336Q162.04491015625,53.21722096069336,164.02591015625,54.14773096069336Q166.00691015625,55.07825096069336,167.93891015625,56.10419096069336Q169.87191015625,57.13009096069336,171.75091015625,58.24899096069336Q173.62991015625,59.36789096069336,175.45191015625,60.57699096069336Q177.27391015625,61.78609096069336,179.03391015625,63.08259096069336Q180.79391015625,64.37899096069336,182.48791015625,65.75969096069336Q184.18091015625,67.14039096069337,185.80491015625,68.60189096069337Q187.42791015625,70.06349096069336,188.97791015625,71.60239096069336Q190.52691015625,73.14129096069337,191.99891015625,74.75389096069335Q193.46991015625,76.36649096069335,194.85991015625,78.04879096069337Q196.24991015625,79.73119096069337,197.55491015625,81.47919096069336Q198.86091015625,83.22729096069335,200.07791015625,85.03689096069337Q201.29491015625,86.84649096069336,202.42191015625,88.71319096069337Q203.54791015625,90.57989096069336,204.58091015625,92.49929096069336Q205.61391015625,94.41869096069337,206.55091015625,96.38609096069337Q207.48791015625,98.35349096069336,208.32591015625,100.36419096069335Q209.16491015625,102.37489096069336,209.90291015625,104.42399096069336Q210.64091015625,106.47319096069336,211.27691015625,108.55579096069336Q211.91291015625,110.63849096069336,212.44491015625,112.74959096069335Q212.97791015625,114.86069096069336,213.40491015625,116.99529096069335Q213.83291015625,119.12979096069336,214.15391015625,121.28259096069335Q214.47591015625,123.43539096069335,214.69091015625,125.60129096069336Q214.90491015625,127.76719096069336,215.01291015625,129.94089096069337Q215.11991015625,132.11469096069337,215.11991015625,134.29099096069336Z" fill="#F2F4F7" fill-opacity="1"/></g><g><path d="M194.233921875,122.72075678100586L194.233921875,176.96585678100587C194.233921875,188.23585678100585,185.067921875,197.40185678100585,173.647921875,197.40185678100585L78.380921875,197.40185678100585C67.111221875,197.40185678100585,57.945184875,188.38585678100586,57.794921875,177.11585678100585C57.794921875,176.96585678100587,57.794921875,176.96585678100587,57.794921875,176.81585678100586L57.794921875,122.72075678100586C57.794921875,122.57055678100586,57.794921875,122.57055678100586,57.794921875,122.42025678100586C57.794921875,122.11975678100586,57.794921875,121.81915678100586,57.945184875,121.51865678100586C58.095447875,121.06785678100586,58.245710875,120.76735678100586,58.395973875,120.31655678100586L83.94072187500001,71.48111678100585C84.842221875,69.52769678100586,86.795621875,68.47585678100586,88.899321875,68.47585678100586L162.978921875,68.47585678100586C165.082921875,68.47585678100586,166.885921875,69.52769678100586,167.937921875,71.48111678100585L193.481921875,120.31655678100586C193.632921875,120.61705678100586,193.782921875,121.06785678100586,193.932921875,121.51865678100586C194.233921875,121.81915678100586,194.233921875,122.26995678100586,194.233921875,122.72075678100586Z" fill="#CFD5DD" fill-opacity="1"/></g><g filter="url(#master_svg1_620_34093)"><path d="M194.233921875,122.72083779296875L194.233921875,182.52553779296875C194.233921875,190.78993779296874,187.621921875,197.40153779296875,179.206921875,197.40153779296875L72.821221875,197.40153779296875C64.556751875,197.40153779296875,57.794921875,190.78993779296874,57.794921875,182.52553779296875L57.794921875,122.42031579296875C57.794921875,122.11978979296875,57.794921875,121.81926379296875,57.945184875,121.51873779296875L92.205121875,121.51873779296875C97.314121875,121.51873779296875,101.521421875,125.57583779296876,101.521421875,130.83503779296876C101.521421875,133.38953779296875,102.573321875,135.79373779296876,104.226221875,137.44663779296874C106.029321875,139.24973779296874,108.133021875,140.15133779296875,110.837721875,140.15133779296875L141.341121875,140.15133779296875C146.450021875,140.15133779296875,150.657421875,136.09423779296876,150.657421875,130.83503779296876C150.657421875,128.28056779296875,151.709221875,125.87636779296875,153.362121875,124.22346779296875C155.16532187500002,122.42031579296875,157.26902187500002,121.51873779296875,159.823921875,121.51873779296875L193.932921875,121.51873779296875C194.233921875,121.81926379296875,194.233921875,122.27005279296876,194.233921875,122.72083779296875Z" fill="url(#master_svg2_620_34095)" fill-opacity="1"/></g><g><path d="M212.83900265625,91.91703228149414C216.24095265625,91.91703228149414,218.99982265625,89.15215228149414,218.99982265625,85.75621228149414C218.99982265625,82.36027228149415,216.24095265625,79.59543228149414,212.83900265625,79.59543228149414C209.43555265625,79.59543228149414,206.67822265625,82.36027228149415,206.67822265625,85.75621228149414C206.67822265625,89.15215228149414,209.43555265625,91.91703228149414,212.83900265625,91.91703228149414Z" fill="#F2F4F7" fill-opacity="1"/></g><g><path d="M206.67855140625,71.93179314086915C209.00162140625,71.93179314086915,210.88592140625,70.05350314086914,210.88592140625,67.72442314086913C210.88592140625,65.39535314086915,209.00162140625,63.51706314086914,206.67855140625,63.51706314086914C204.35398140625,63.51706314086914,202.47119140625,65.39535314086915,202.47119140625,67.72442314086913C202.47119140625,70.05350314086914,204.35398140625,71.93179314086915,206.67855140625,71.93179314086915Z" fill="#F2F4F7" fill-opacity="1"/></g><g><path d="M36.28011390625,85.75610344360352C38.60318390625,85.75610344360352,40.48748390625,83.87781344360351,40.48748390625,81.54873344360351C40.48748390625,79.21966344360352,38.60318390625,77.34137344360352,36.28011390625,77.34137344360352C33.95554390625,77.34137344360352,32.07275390625,79.21966344360352,32.07275390625,81.54873344360351C32.07275390625,83.87781344360351,33.95554390625,85.75610344360352,36.28011390625,85.75610344360352Z" fill="#F2F4F7" fill-opacity="1"/></g><g><path d="M34.6273,170.50455745117188Q34.6273,170.69637745117188,34.6179,170.88795745117187Q34.6085,171.07954745117186,34.5897,171.2704374511719Q34.5709,171.46132745117188,34.5428,171.65106745117188Q34.5146,171.84080745117188,34.477199999999996,172.02892745117188Q34.4398,172.21705745117188,34.3932,172.40312745117188Q34.3466,172.58918745117188,34.2909,172.77278745117187Q34.2352,172.95628745117187,34.1706,173.13688745117187Q34.106,173.31748745117187,34.0326,173.49468745117187Q33.959199999999996,173.67188745117187,33.8771,173.84528745117188Q33.7951,174.01868745117187,33.7047,174.1878874511719Q33.6143,174.35708745117188,33.5157,174.52158745117188Q33.4171,174.6860874511719,33.3105,174.84558745117187Q33.203900000000004,175.00508745117187,33.0897,175.15918745117187Q32.9754,175.31318745117187,32.8537,175.46148745117188Q32.732,175.60978745117188,32.6032,175.75188745117188Q32.4744,175.89398745117188,32.3388,176.02968745117187Q32.2031,176.16528745117188,32.061,176.29408745117186Q31.9189,176.42288745117187,31.7706,176.54458745117188Q31.6223,176.66628745117188,31.4683,176.78058745117187Q31.3142,176.89478745117188,31.1547,177.00138745117187Q30.9952,177.10798745117188,30.8307,177.20658745117188Q30.6662,177.3051874511719,30.497,177.39558745117188Q30.3278,177.48598745117187,30.154400000000003,177.5679874511719Q29.981,177.65008745117188,29.803800000000003,177.72348745117188Q29.6266,177.79688745117187,29.445999999999998,177.86148745117188Q29.2654,177.92608745117187,29.081899999999997,177.98178745117187Q28.898310000000002,178.03748745117187,28.71224,178.08408745117188Q28.52617,178.13068745117187,28.33804,178.16808745117189Q28.14992,178.20548745117188,27.96018,178.23368745117187Q27.77044,178.26178745117187,27.579549999999998,178.28058745117187Q27.38865,178.29938745117187,27.19707,178.30878745117187Q27.00549,178.31818745117187,26.813670000000002,178.31818745117187Q26.621859999999998,178.31818745117187,26.43027,178.30878745117187Q26.23869,178.29938745117187,26.0478,178.28058745117187Q25.85691,178.26178745117187,25.66717,178.23368745117187Q25.47743,178.20548745117188,25.2893,178.16808745117189Q25.10117,178.13068745117187,24.9151,178.08408745117188Q24.72904,178.03748745117187,24.54548,177.98178745117187Q24.36193,177.92608745117187,24.18133,177.86148745117188Q24.00072,177.79688745117187,23.82351,177.72348745117188Q23.6463,177.65008745117188,23.4729,177.5679874511719Q23.299500000000002,177.48598745117187,23.13033,177.39558745117188Q22.96117,177.3051874511719,22.79664,177.20658745117188Q22.63212,177.10798745117188,22.47263,177.00138745117187Q22.31314,176.89478745117188,22.15907,176.78058745117187Q22.00501,176.66628745117188,21.85673,176.54458745117188Q21.70846,176.42288745117187,21.56633,176.29408745117186Q21.42421,176.16528745117188,21.28857,176.02968745117187Q21.15294,175.89398745117188,21.02412,175.75188745117188Q20.89531,175.60978745117188,20.77362,175.46148745117188Q20.65194,175.31318745117187,20.53767,175.15918745117187Q20.42341,175.00508745117187,20.31684,174.84558745117187Q20.21027,174.6860874511719,20.11166,174.52158745117188Q20.01305,174.35708745117188,19.922628,174.1878874511719Q19.832208,174.01868745117187,19.750196,173.84528745117188Q19.668185,173.67188745117187,19.59478,173.49468745117187Q19.521376,173.31748745117187,19.456755,173.13688745117187Q19.392135,172.95628745117187,19.336454,172.77278745117187Q19.280773,172.58919745117188,19.234166,172.40312745117188Q19.187559,172.21705745117188,19.150137,172.02892745117188Q19.112716,171.84080745117188,19.0845712,171.65106745117188Q19.0564261,171.46132745117188,19.037625,171.2704374511719Q19.0188238,171.0795374511719,19.00941191,170.88795745117187Q19,170.69637745117188,19,170.50455745117188Q19,170.31274745117187,19.00941191,170.12115745117188Q19.0188238,169.92957745117187,19.037625,169.73868745117187Q19.0564261,169.54779745117187,19.0845712,169.35805745117187Q19.112716,169.16831745117187,19.150137,168.98018745117187Q19.187559,168.79205745117187,19.234166,168.60598745117187Q19.280773,168.41992745117187,19.336454,168.23636745117187Q19.392135,168.05281745117188,19.456755,167.87221745117188Q19.521376,167.69160745117188,19.59478,167.51439745117187Q19.668185,167.33718745117187,19.750196,167.16378745117188Q19.832208,166.99038745117187,19.922628,166.82121745117186Q20.01305,166.65205745117188,20.11166,166.48752745117187Q20.21027,166.32300745117186,20.31684,166.16351745117188Q20.42341,166.00402745117188,20.53767,165.84995745117186Q20.65194,165.69589745117187,20.77362,165.54761745117187Q20.89531,165.39934745117188,21.02412,165.25721745117187Q21.15294,165.11509745117186,21.28857,164.97945745117187Q21.42421,164.84382745117188,21.56633,164.71500745117189Q21.70846,164.58619745117187,21.85673,164.46450745117187Q22.00501,164.34282745117187,22.15907,164.22855745117187Q22.31314,164.11429745117186,22.47263,164.0077274511719Q22.63212,163.90115745117188,22.79664,163.80254745117188Q22.96117,163.70393745117187,23.13033,163.61351545117188Q23.299500000000002,163.52309545117188,23.4729,163.44108345117186Q23.6463,163.35907245117187,23.82351,163.28566745117186Q24.00072,163.21226345117188,24.18133,163.14764245117186Q24.36193,163.08302245117187,24.54548,163.02734145117188Q24.72904,162.97166045117189,24.9151,162.92505345117186Q25.10117,162.87844645117187,25.2893,162.84102445117188Q25.47743,162.80360345117188,25.66717,162.77545865117187Q25.85691,162.74731355117189,26.0478,162.72851245117187Q26.23869,162.70971125117188,26.43027,162.7002993611719Q26.621859999999998,162.69088745117188,26.813670000000002,162.69088745117188Q27.00549,162.69088745117188,27.19707,162.7002993611719Q27.38866,162.70971125117188,27.579549999999998,162.72851245117187Q27.77044,162.74731355117189,27.96018,162.77545865117187Q28.14992,162.80360345117188,28.33804,162.84102445117188Q28.52617,162.87844645117187,28.71224,162.92505345117186Q28.8983,162.97166045117189,29.081899999999997,163.02734145117188Q29.2654,163.08302245117187,29.445999999999998,163.14764245117186Q29.6266,163.21226345117188,29.803800000000003,163.28566745117186Q29.981,163.35907245117187,30.154400000000003,163.44108345117186Q30.3278,163.52309545117188,30.497,163.61351545117188Q30.6662,163.70393745117187,30.8307,163.80254745117188Q30.9952,163.90115745117188,31.1547,164.0077274511719Q31.3142,164.11429745117186,31.4683,164.22855745117187Q31.6223,164.34282745117187,31.7706,164.46450745117187Q31.9189,164.58619745117187,32.061,164.71500745117189Q32.2031,164.84382745117188,32.3388,164.97945745117187Q32.4744,165.11509745117186,32.6032,165.25721745117187Q32.732,165.39934745117188,32.8537,165.54761745117187Q32.9754,165.69589745117187,33.0897,165.84995745117186Q33.203900000000004,166.00402745117188,33.3105,166.16351745117188Q33.4171,166.32300745117186,33.5157,166.48752745117187Q33.6143,166.65205745117188,33.7047,166.82121745117186Q33.7951,166.99038745117187,33.8771,167.16378745117188Q33.959199999999996,167.33718745117187,34.0326,167.51439745117187Q34.106,167.69160745117188,34.1706,167.87221745117188Q34.2352,168.05281745117188,34.2909,168.23636745117187Q34.3466,168.41992745117187,34.3932,168.60598745117187Q34.4398,168.79205745117187,34.477199999999996,168.98018745117187Q34.5146,169.16831745117187,34.5428,169.35805745117187Q34.5709,169.54779745117187,34.5897,169.73868745117187Q34.6085,169.92957745117187,34.6179,170.12115745117188Q34.6273,170.31274745117187,34.6273,170.50455745117188Z" fill="#F2F4F7" fill-opacity="1"/></g><g><path d="M165.4079625,53.51728904968262L165.1063625,50.26066004968262L162.1138625,50.537798049682614L162.4154625,53.79442904968262L165.4079625,53.51728904968262ZM166.4874625,65.91932904968262Q166.3167625,63.41562904968262,165.9762625,59.642779049682616L162.9831625,59.912859049682616Q163.3206625,63.65292904968262,163.4891625,66.12382904968261L166.4874625,65.91932904968262ZM166.5996625,78.22002904968261Q166.8011625,75.27282904968261,166.7602625,72.15142904968262L163.75526250000001,72.19072904968262Q163.79456249999998,75.18982904968261,163.6013625,78.01502904968262L166.5996625,78.22002904968261ZM164.8046625,90.74552904968262Q165.4740625,87.41442904968261,165.8934625,84.60302904968262L162.9210625,84.15972904968262Q162.51286249999998,86.89622904968262,161.8582625,90.15342904968261L164.8046625,90.74552904968262ZM141.7360625,87.31982904968262Q138.9757625,85.08292904968262,135.2251625,84.71722904968262L134.9335625,87.70822904968261Q137.7852625,87.98632904968261,139.8438625,89.65462904968263L141.7360625,87.31982904968262ZM127.6109025,86.46022904968262Q125.0411325,88.31132904968263,123.6894235,91.41072904968262L126.4441025,92.61212904968261Q127.4560025,90.29192904968261,129.3290325,88.92652904968261Q129.5376825,88.79712904968261,129.7558325,88.68012904968262L128.3354525,86.03172904968261Q128.0048325,86.20902904968261,127.6892725,86.40742904968262L127.6492525,86.43262904968262L127.6109025,86.46022904968262ZM147.71326249999998,99.19272904968261Q147.49416250000002,95.61292904968262,146.0344625,92.61782904968263L143.3329625,93.93442904968262Q144.5309625,96.39262904968263,144.7136625,99.37632904968262L147.71326249999998,99.19272904968261ZM163.2745625,97.35322904968262Q163.3462625,97.13792904968261,163.37686250000002,97.04612904968262L160.5256625,96.09612904968262Q160.4918625,96.19762904968262,160.4231625,96.40392904968262Q159.20126249999998,100.07412904968263,158.4541625,101.82262904968262L161.21766250000002,103.00342904968261Q162.0134625,101.14092904968263,163.2745625,97.35322904968262ZM122.8911725,100.09642904968263Q123.3200765,102.48042904968261,124.3366665,104.71132904968262L127.0713825,103.46512904968262Q126.2033525,101.56022904968262,125.8424325,99.52792904968263L125.8347025,99.48432904968261L125.8244125,99.44132904968262Q125.6530125,98.72422904968262,125.5851725,97.96972904968263L122.5919825,98.23882904968261Q122.6773225,99.18792904968262,122.8911725,100.09642904968263ZM144.9404625,111.97402904968263Q146.3878625,108.86982904968261,147.0998625,105.78702904968262L144.1716625,105.11072904968262Q143.5306625,107.88602904968262,142.2166625,110.70402904968262L144.9404625,111.97402904968263ZM157.2503625,109.41612904968261Q157.5534625,109.09222904968262,157.8437625,108.74502904968261L155.5382625,106.81732904968263Q155.29116249999998,107.11282904968262,155.0340625,107.38622904968261L155.0066625,107.41532904968261L154.9808625,107.44582904968262Q153.4516625,109.25522904968261,151.2647625,110.57762904968263L152.8199625,113.14922904968262Q155.4104625,111.58272904968263,157.2503625,109.41612904968261ZM128.0912925,110.25102904968261Q130.4727025,112.74222904968262,133.4855025,114.24192904968262L134.8247625,111.55162904968262Q132.2821425,110.28592904968261,130.2636625,108.17442904968262L128.0912925,110.25102904968261ZM139.9426625,116.09182904968262Q143.2473625,116.41582904968261,146.6222625,115.64072904968262L145.9496625,112.71172904968262Q143.0525625,113.37712904968262,140.2358625,113.10092904968262L139.9426625,116.09182904968262ZM138.4236625,122.83352904968261Q140.2496625,120.38032904968262,141.7729625,117.81112904968262L139.1879625,116.27842904968261Q137.74496249999999,118.71222904968262,136.0128625,121.03912904968261L138.4236625,122.83352904968261ZM130.9639225,132.58322904968261Q132.7504725,130.12622904968262,134.7849625,127.51892904968261L132.4157125,125.67012904968261Q130.3498725,128.3175290496826,128.5333025,130.81582904968263L130.9639225,132.58322904968261ZM125.6083725,140.30082904968262L127.4493225,137.5737290496826L124.9584865,135.8922290496826L123.1175385,138.61932904968262L125.6083725,140.30082904968262Z" fill-rule="evenodd" fill="#A0ABBA" fill-opacity="1"/></g><g transform="matrix(-0.2284771203994751,-0.9735493063926697,0.9735493063926697,-0.2284771203994751,141.03760225429187,212.4973301121836)"><path d="M155.15367928125,67.47059405517578L155.16599428125,67.48289405517578C155.60998828125,67.92689405517578,156.26889828125,68.05029405517578,156.84498828125,67.79479405517579L173.69503828125,60.43739405517578C174.20953828125,60.21191405517578,174.54073828125001,59.70451405517578,174.54073828125001,59.14428405517578C174.54073828125001,58.58399405517578,174.20953828125,58.07659405517578,173.69503828125,57.85109405517578L156.84678828125,50.49193205517578C156.26183828125,50.238241055175784,155.59763328125,50.366842265175784,155.15365528125,50.82142205517578C154.70793728125,51.27772405517578,154.59515528125,51.94370405517578,154.86297528125,52.521554055175784L156.93485828125,56.98600405517578C157.01657828125,57.16235405517578,157.08779828125,57.34205405517578,157.14851828125,57.52422405517578L169.64693828125,58.98127405517578L157.24927828125,60.426594055175784C157.17200828125,60.72609405517578,157.06719828125,61.020394055175785,156.93485828125,61.30599405517578L154.86295828125,65.77049405517579C154.59516328125,66.34829405517578,154.70967579125,67.01609405517578,155.15367928125,67.47059405517578Z" fill-rule="evenodd" fill="#A0ABBA" fill-opacity="1"/></g></g></g></svg>