<svg xmlns="http://www.w3.org/2000/svg" xmlns:xlink="http://www.w3.org/1999/xlink" fill="currentColor" version="1.1"
     width="14.3662109375" height="13.6728515625" viewBox="0 0 14.3662109375 13.6728515625">
    <g>
        <g>
            <path d="M7.700979809265137,7L7.700979809265137,5L6.700979809265137,5L6.700979809265137,7L4.699999809265137,7L4.699999809265137,8L6.700979809265137,8L6.700979809265137,10L7.700979809265137,10L7.700979809265137,8L9.699999809265137,8L9.699999809265137,7L7.700979809265137,7Z"
                  fill-rule="evenodd" fill="currentColor" fill-opacity="1"/>
        </g>
        <g>
            <path d="M12.4795,13.6729L1.88719,13.6729C0.845749,13.6729,0,12.8285,0,11.787L0,1.88583C0,0.844376,0.845749,0,1.88719,0L4.14661,0C4.62011,0,5.07719,0.17791,5.4248,0.498146L5.76968,0.817001C6.11727,1.13724,6.57436,1.31516,7.04787,1.31516L12.4795,1.31516C13.5223,1.31516,14.3667,2.16089,14.3667,3.20233L14.3667,11.787C14.3667,12.8285,13.5223,13.6729,12.4795,13.6729ZM12.4795,12.6729Q12.8474,12.6729,13.1072,12.4132Q13.3667,12.1539,13.3667,11.787L13.3667,3.20233Q13.3667,2.83508,13.1069,2.57513Q12.847,2.31516,12.4795,2.31516L7.04787,2.31516Q5.91996,2.31516,5.09081,1.55126L4.74725,1.23362Q4.49366,1,4.14661,1L1.88719,1Q1.5199,1,1.25981,1.25983Q1,1.51938,1,1.88583L1,11.787Q1,12.1535,1.25981,12.413Q1.5199,12.6729,1.88719,12.6729L12.4795,12.6729Z"
                  fill-rule="evenodd" fill="currentColor" fill-opacity="1"/>
        </g>
    </g>
</svg>