<svg viewBox="0 0 1024 1024" xmlns="http://www.w3.org/2000/svg" width="200" height="200">
    <path d="M597.333333 138.666667a32 32 0 0 1 32 32v605.354666l158.72-158.634666a32 32 0 0 1 45.226667 45.226666l-213.333333 213.333334a32.170667 32.170667 0 0 1-4.693334 3.925333l-4.053333 2.304-3.669333 1.493333-4.394667 1.152-3.626667 0.426667h-4.352l-5.12-0.768-2.901333-0.810667-2.56-0.981333-2.986667-1.493333-3.498666-2.304-3.413334-2.944a32.170667 32.170667 0 0 1-3.84-4.693334l-2.346666-4.053333-1.493334-3.669333-1.152-4.394667-0.341333-2.474667L565.333333 853.333333V170.666667a32 32 0 0 1 32-32z"/>
</svg>
