<svg xmlns="http://www.w3.org/2000/svg" xmlns:xlink="http://www.w3.org/1999/xlink" width="16" height="16" viewBox="0 0 16 16"><defs><style>.a{fill:url(#a);}.b{fill:#fff;stroke:rgba(0,0,0,0);stroke-miterlimit:10;}</style><linearGradient id="a" x1="0.5" x2="0.5" y2="1" gradientUnits="objectBoundingBox"><stop offset="0" stop-color="#ffbc5e"/><stop offset="1" stop-color="#fca221"/></linearGradient></defs><g transform="translate(-16.037 -140.037)"><rect class="a" width="16" height="16" rx="2" transform="translate(16.037 140.037)"/><path class="b" d="M-6291.471-155.211h-4.421a2.425,2.425,0,0,1-2.4-2.446,2.44,2.44,0,0,1,.644-1.659,2.386,2.386,0,0,1,1.571-.768,2.5,2.5,0,0,1,.8-1.514,2.384,2.384,0,0,1,1.595-.613,2.384,2.384,0,0,1,1.595.613,2.5,2.5,0,0,1,.8,1.514,2.387,2.387,0,0,1,1.571.768,2.441,2.441,0,0,1,.643,1.659A2.426,2.426,0,0,1-6291.471-155.211Zm-1.457-2.232h0l-.485.737a1.588,1.588,0,0,0,1.207.565,1.656,1.656,0,0,0,1.617-1.69,1.657,1.657,0,0,0-1.617-1.691,1.558,1.558,0,0,0-.917.3,1.659,1.659,0,0,0-.375.38l-.938,1.433-.041.063-.006.009a.852.852,0,0,1-.317.282.778.778,0,0,1-.355.084.842.842,0,0,1-.821-.858.842.842,0,0,1,.821-.858.811.811,0,0,1,.722.47l.483-.735a1.591,1.591,0,0,0-1.206-.567,1.656,1.656,0,0,0-1.616,1.691,1.656,1.656,0,0,0,1.616,1.69,1.555,1.555,0,0,0,.7-.166,1.658,1.658,0,0,0,.6-.534l.876-1.336.1-.159a.875.875,0,0,1,.2-.2.792.792,0,0,1,.465-.15.841.841,0,0,1,.821.858.841.841,0,0,1-.821.858.81.81,0,0,1-.721-.471Z" transform="translate(6317.664 306.748)"/></g></svg>