<svg xmlns="http://www.w3.org/2000/svg" fill="none" version="1.1" width="30" height="30" viewBox="0 0 30 30"><g><rect x="0.5" y="0.5" width="29" height="29" rx="3.5" fill-opacity="0" stroke-opacity="1" stroke="#327EDC" fill="none" stroke-width="1"/><g transform="matrix(0,-1,1,0,-16,30)" style="opacity:0.33000001311302185;"></g><g transform="matrix(0.7071067690849304,-0.7071067690849304,0.7071067690849304,0.7071067690849304,-9.142135381698608,7.928932309150696)"><path d="M12.00024,15Q11.90175,15,11.805150000000001,15.0192147Q11.708549999999999,15.0384294,11.617560000000001,15.0761205Q11.52657,15.113811,11.44467,15.16853Q11.36278,15.223249,11.293140000000001,15.292893Q11.22349,15.362537,11.16877,15.44443Q11.114049999999999,15.526322,11.076360000000001,15.617316Q11.03867,15.708311,11.019459999999999,15.80491Q11.00024,15.901509,11.00024,16L11.00024,21L6.00025,21Q5.901754,21,5.805155,21.01921Q5.708556,21.038429999999998,5.617562,21.07612Q5.526567,21.11381,5.444675,21.16853Q5.362782,21.22325,5.293138,21.29289Q5.223494,21.36254,5.168775,21.44443Q5.114057,21.52632,5.0763656,21.61732Q5.0386745,21.70831,5.0194598,21.80491Q5.000245094,21.901510000000002,5.000245094,22Q5.000245094,22.098489999999998,5.0194598,22.19509Q5.0386745,22.29169,5.0763656,22.38268Q5.114057,22.47368,5.168775,22.55557Q5.223494,22.63746,5.293138,22.70711Q5.362782,22.77675,5.444675,22.83147Q5.526567,22.88619,5.617562,22.92388Q5.708556,22.961570000000002,5.805155,22.98078Q5.901754,23,6.00025,23L11.00024,23L11.00024,28Q11.00024,28.0985,11.019459999999999,28.1951Q11.03867,28.2917,11.076360000000001,28.3827Q11.114049999999999,28.4737,11.16877,28.5556Q11.22349,28.6375,11.293140000000001,28.7071Q11.36278,28.776699999999998,11.44467,28.8315Q11.52657,28.886200000000002,11.617560000000001,28.9239Q11.708549999999999,28.9616,11.805150000000001,28.980800000000002Q11.90175,29,12.00024,29Q12.09874,29,12.19533,28.980800000000002Q12.29193,28.9616,12.38293,28.9239Q12.47392,28.886200000000002,12.555810000000001,28.8315Q12.63771,28.776699999999998,12.70735,28.7071Q12.77699,28.6375,12.831710000000001,28.5556Q12.88643,28.4737,12.92412,28.3827Q12.96181,28.2917,12.98103,28.1951Q13.00024,28.0985,13.00024,28L13.00024,23L18.0002,23Q18.0987,23,18.1953,22.98078Q18.2919,22.961570000000002,18.3829,22.92388Q18.4739,22.88619,18.555799999999998,22.83147Q18.637700000000002,22.77675,18.7073,22.70711Q18.777,22.63746,18.831699999999998,22.55557Q18.886400000000002,22.47368,18.9241,22.38268Q18.9618,22.29169,18.981,22.19509Q19.0002,22.098489999999998,19.0002,22Q19.0002,21.901510000000002,18.981,21.80491Q18.9618,21.70831,18.9241,21.61732Q18.886400000000002,21.52632,18.831699999999998,21.44443Q18.777,21.36254,18.7073,21.29289Q18.637700000000002,21.22325,18.555799999999998,21.16853Q18.4739,21.11381,18.3829,21.07612Q18.2919,21.038429999999998,18.1953,21.01921Q18.0987,21,18.0002,21L13.00024,21L13.00024,16Q13.00024,15.901509,12.98103,15.80491Q12.96181,15.708311,12.92412,15.617316Q12.88643,15.526322,12.831710000000001,15.44443Q12.77699,15.362537,12.70735,15.292893Q12.63771,15.223249,12.555810000000001,15.16853Q12.47392,15.113811,12.38293,15.0761205Q12.29193,15.0384294,12.19533,15.0192147Q12.09874,15,12.00024,15Z" fill-rule="evenodd" fill="#327EDC" fill-opacity="1"/></g></g></svg>