<svg width="36" height="36" viewBox="0 0 36 36" fill="none" xmlns="http://www.w3.org/2000/svg">
<path d="M6.75 14.6251V10.1251C6.75 9.52837 6.98705 8.95607 7.40901 8.53412C7.83097 8.11216 8.40326 7.87511 9 7.87511H13.3875C13.7638 7.87142 14.135 7.96217 14.4672 8.13906C14.7993 8.31594 15.0818 8.57331 15.2888 8.88761L16.2 10.2376C16.4049 10.5487 16.6838 10.8041 17.0117 10.9808C17.3396 11.1575 17.7063 11.25 18.0787 11.2501H27C27.5967 11.2501 28.169 11.4872 28.591 11.9091C29.0129 12.3311 29.25 12.9034 29.25 13.5001V24.7501C29.25 25.3468 29.0129 25.9191 28.591 26.3411C28.169 26.7631 27.5967 27.0001 27 27.0001H9C8.40326 27.0001 7.83097 26.7631 7.40901 26.3411C6.98705 25.9191 6.75 25.3468 6.75 24.7501V23.6251" stroke="#252F43" stroke-width="2" stroke-linecap="round" stroke-linejoin="round"/>
<path d="M6.75 19.125H18" stroke="#252F43" stroke-width="2" stroke-linecap="round" stroke-linejoin="round"/>
<path d="M14.625 22.5L18 19.125L14.625 15.75" stroke="#252F43" stroke-width="2" stroke-linecap="round" stroke-linejoin="round"/>
</svg>
