<svg width="27" height="27" viewBox="0 0 27 27" fill="none" xmlns="http://www.w3.org/2000/svg">
<path d="M3.375 13.5C3.375 15.5025 3.96882 17.4601 5.08137 19.1251C6.19392 20.7902 7.77523 22.0879 9.62533 22.8543C11.4754 23.6206 13.5112 23.8211 15.4753 23.4305C17.4393 23.0398 19.2434 22.0755 20.6595 20.6595C22.0755 19.2434 23.0398 17.4393 23.4305 15.4753C23.8211 13.5112 23.6206 11.4754 22.8543 9.62533C22.0879 7.77523 20.7902 6.19392 19.1251 5.08137C17.4601 3.96882 15.5025 3.375 13.5 3.375C10.6694 3.38565 7.95259 4.49013 5.9175 6.4575L3.375 9" stroke="#252F43" stroke-width="2" stroke-linecap="round" stroke-linejoin="round"/>
<path d="M3.375 3.375V9H9" stroke="#252F43" stroke-width="2" stroke-linecap="round" stroke-linejoin="round"/>
</svg>
