<svg width="20" height="20" viewBox="0 0 20 20" fill="none" xmlns="http://www.w3.org/2000/svg">
<path d="M10.2617 5.02441H15.9287C16.2494 5.02447 16.5235 5.1388 16.752 5.36719C16.9803 5.59558 17.0946 5.86974 17.0947 6.19043V15.0244C17.0946 15.3451 16.9803 15.6193 16.752 15.8477C16.5235 16.076 16.2494 16.1904 15.9287 16.1904H3.59473C3.27407 16.1903 2.99986 16.076 2.77148 15.8477C2.54312 15.6193 2.42879 15.3451 2.42871 15.0244V4.02441C2.42871 3.70358 2.54301 3.42867 2.77148 3.2002C2.99984 2.9719 3.27413 2.85752 3.59473 2.85742H8.09473L10.2617 5.02441ZM3.59473 4.02441V15.0244H15.9287V6.19043H9.78027L7.61426 4.02441H3.59473ZM10 10H12.5V11H10V13.5H9V11H6.5V10H9V7.5H10V10Z" fill="white"/>
</svg>
