<svg width="28" height="28" viewBox="0 0 28 28" fill="none" xmlns="http://www.w3.org/2000/svg">
<path d="M10.4561 4.73633C11.4509 4.73643 12.3971 5.16673 13.0479 5.91895L14.8984 8.0459H22.7881C24.2662 8.0459 25.4639 9.24379 25.4639 10.7197V20.5889C25.4639 22.067 24.2662 23.2646 22.7881 23.2646H5.20898C3.73325 23.2644 2.53516 22.0669 2.53516 20.5889V7.41016C2.53519 5.93439 3.73327 4.73656 5.20898 4.73633H10.4561ZM6.5 10.1113C5.82499 10.1113 5.27734 10.659 5.27734 11.334C5.27757 12.0088 5.82512 12.5557 6.5 12.5557H11.5C12.1748 12.5556 12.7215 12.0088 12.7217 11.334C12.7217 10.659 12.175 10.1114 11.5 10.1113H6.5Z" fill="white"/>
</svg>
