<svg width="20" height="20" viewBox="0 0 20 20" fill="none" xmlns="http://www.w3.org/2000/svg">
<path d="M1.66675 7.50008V4.16675C1.66675 3.72472 1.84234 3.3008 2.1549 2.98824C2.46746 2.67567 2.89139 2.50008 3.33341 2.50008H6.58341C6.86215 2.49735 7.13713 2.56457 7.38316 2.6956C7.6292 2.82662 7.83845 3.01727 7.99175 3.25008L8.66675 4.25008C8.81851 4.48052 9.0251 4.66968 9.268 4.80058C9.51089 4.93148 9.78249 5.00003 10.0584 5.00008H16.6667C17.1088 5.00008 17.5327 5.17567 17.8453 5.48824C18.1578 5.8008 18.3334 6.22472 18.3334 6.66675V15.0001C18.3334 15.4421 18.1578 15.866 17.8453 16.1786C17.5327 16.4912 17.1088 16.6667 16.6667 16.6667H3.33341C2.89139 16.6667 2.46746 16.4912 2.1549 16.1786C1.84234 15.866 1.66675 15.4421 1.66675 15.0001V14.1667" stroke="#252F43" stroke-width="2" stroke-linecap="round" stroke-linejoin="round"/>
<path d="M1.66675 10.833H10.0001" stroke="#252F43" stroke-width="2" stroke-linecap="round" stroke-linejoin="round"/>
<path d="M7.5 13.333L10 10.833L7.5 8.33301" stroke="#252F43" stroke-width="2" stroke-linecap="round" stroke-linejoin="round"/>
</svg>
