<svg xmlns="http://www.w3.org/2000/svg" xmlns:xlink="http://www.w3.org/1999/xlink" fill="none" version="1.1" width="26" height="26" viewBox="0 0 26 26"><defs><clipPath id="master_svg0_35_4812"><rect x="0" y="0" width="26" height="26" rx="0"/></clipPath></defs><g clip-path="url(#master_svg0_35_4812)"><g transform="matrix(-1,0,0,-1,38,30)"><path d="M24.445050000000002,14.16796L18.445285,18.16796L19.554715,19.83204L24.99979,16.20185L30.4453,19.83206L31.5547,18.16794L25.55445,14.16794Q25.49318,14.127097,25.42659,14.095668Q25.36,14.064239,25.28953,14.042903Q25.21906,14.021566,25.14622,14.010783Q25.07338,14,24.99974,14Q24.92611,14.000001,24.853270000000002,14.010788Q24.78043,14.021574,24.70996,14.042913Q24.639490000000002,14.064252,24.5729,14.095683Q24.50631,14.127115,24.445050000000002,14.16796Z" fill-rule="evenodd" fill="#327EDC" fill-opacity="1"/></g><g transform="matrix(0,1,-1,0,18.500244140625,-7.500244140625)"><path d="M22.125244140625,6.5L13.000244140625,6.5L13.000244140625,4.5L22.125244140625,4.5L22.125244140625,6.5Z" fill-rule="evenodd" fill="#327EDC" fill-opacity="1"/></g><g><line x1="5.5" y1="18.5" x2="20.5" y2="18.5" fill-opacity="0" stroke-opacity="1" stroke="#327EDC" fill="none" stroke-width="2"/></g></g></svg>