<svg width="28" height="28" viewBox="0 0 28 28" fill="none" xmlns="http://www.w3.org/2000/svg">
<path d="M18.4365 3C19.1383 3 19.8065 3.30169 20.2705 3.82812L23.7783 7.80762C24.1717 8.25405 24.3887 8.82881 24.3887 9.42383V22.5557C24.3886 23.9056 23.2943 25 21.9443 25H6.05566C4.70567 25 3.61138 23.9056 3.61133 22.5557V5.44434C3.61138 4.09435 4.70567 3 6.05566 3H18.4365ZM14.8291 9.56152C14.3702 9.10376 13.6269 9.10376 13.168 9.56152L9.8418 12.8848C9.63971 13.0869 9.51794 13.3564 9.5 13.6416C9.48212 13.9268 9.56903 14.2088 9.74414 14.4346L9.8418 14.5449C10.0619 14.7649 10.3607 14.8887 10.6719 14.8887C10.983 14.8886 11.2819 14.7649 11.502 14.5449L12.8262 13.2207V18.6084C12.8262 18.9196 12.9499 19.2184 13.1699 19.4385C13.39 19.6585 13.6888 19.7821 14 19.7822C14.3112 19.7822 14.61 19.6585 14.8301 19.4385C15.0502 19.2184 15.1738 18.9197 15.1738 18.6084V13.2246L16.4961 14.5449C16.7072 14.7552 16.9903 14.8775 17.2881 14.8867C17.5862 14.8958 17.8769 14.791 18.1006 14.5938C18.3241 14.3966 18.4648 14.1219 18.4932 13.8252C18.5214 13.5283 18.4353 13.231 18.2529 12.9951L18.1553 12.8848L14.8291 9.56152Z" fill="white"/>
</svg>
