<svg width="14" height="14" viewBox="0 0 14 14" fill="none" xmlns="http://www.w3.org/2000/svg">
<path d="M2.16667 11.8333C1.84583 11.8333 1.57118 11.7191 1.34271 11.4906C1.11424 11.2622 1 10.9875 1 10.6667V3.66667C1 3.34583 1.11424 3.07118 1.34271 2.84271C1.57118 2.61424 1.84583 2.5 2.16667 2.5H5.66667L6.83333 3.66667H11.5C11.8208 3.66667 12.0955 3.7809 12.324 4.00937C12.5524 4.23785 12.6667 4.5125 12.6667 4.83333V10.6667C12.6667 10.9875 12.5524 11.2622 12.324 11.4906C12.0955 11.7191 11.8208 11.8333 11.5 11.8333H2.16667ZM2.16667 10.6667H11.5V4.83333H6.35208L5.18542 3.66667H2.16667V10.6667ZM2.16667 10.6667V3.66667V4.83333V10.6667Z" fill="currentColor"/>
</svg>
