<svg width="14" height="14" viewBox="0 0 14 14" fill="none" xmlns="http://www.w3.org/2000/svg">
<path d="M8.75833 10.075L9.575 9.25833L7.41667 7.1V4.41667H6.25V7.56667L8.75833 10.075ZM6.83333 13.1667C6.02639 13.1667 5.26806 13.0135 4.55833 12.7073C3.84861 12.401 3.23125 11.9854 2.70625 11.4604C2.18125 10.9354 1.76562 10.3181 1.45937 9.60833C1.15312 8.89861 1 8.14028 1 7.33333C1 6.52639 1.15312 5.76806 1.45937 5.05833C1.76562 4.34861 2.18125 3.73125 2.70625 3.20625C3.23125 2.68125 3.84861 2.26562 4.55833 1.95937C5.26806 1.65312 6.02639 1.5 6.83333 1.5C7.64028 1.5 8.39861 1.65312 9.10833 1.95937C9.81806 2.26562 10.4354 2.68125 10.9604 3.20625C11.4854 3.73125 11.901 4.34861 12.2073 5.05833C12.5135 5.76806 12.6667 6.52639 12.6667 7.33333C12.6667 8.14028 12.5135 8.89861 12.2073 9.60833C11.901 10.3181 11.4854 10.9354 10.9604 11.4604C10.4354 11.9854 9.81806 12.401 9.10833 12.7073C8.39861 13.0135 7.64028 13.1667 6.83333 13.1667ZM6.83333 12C8.12639 12 9.22743 11.5455 10.1365 10.6365C11.0455 9.72743 11.5 8.62639 11.5 7.33333C11.5 6.04028 11.0455 4.93924 10.1365 4.03021C9.22743 3.12118 8.12639 2.66667 6.83333 2.66667C5.54028 2.66667 4.43924 3.12118 3.53021 4.03021C2.62118 4.93924 2.16667 6.04028 2.16667 7.33333C2.16667 8.62639 2.62118 9.72743 3.53021 10.6365C4.43924 11.5455 5.54028 12 6.83333 12Z" fill="currentColor"/>
</svg>
