<svg width="14" height="14" viewBox="0 0 14 14" fill="none" xmlns="http://www.w3.org/2000/svg">
<path d="M3.75 12C3.42917 12 3.15451 11.8858 2.92604 11.6573C2.69757 11.4288 2.58333 11.1542 2.58333 10.8333V3.25H2V2.08333H4.91667V1.5H8.41667V2.08333H11.3333V3.25H10.75V10.8333C10.75 11.1542 10.6358 11.4288 10.4073 11.6573C10.1788 11.8858 9.90417 12 9.58333 12H3.75ZM9.58333 3.25H3.75V10.8333H9.58333V3.25ZM4.91667 9.66667H6.08333V4.41667H4.91667V9.66667ZM7.25 9.66667H8.41667V4.41667H7.25V9.66667ZM3.75 3.25V10.8333V3.25Z" fill="currentColor"/>
</svg>
