<svg width="14" height="14" viewBox="0 0 14 14" fill="none" xmlns="http://www.w3.org/2000/svg">
<path d="M10.75 13.1667C10.2639 13.1667 9.85069 12.9965 9.51042 12.6562C9.17014 12.316 9 11.9028 9 11.4167C9 11.3583 9.01458 11.2222 9.04375 11.0083L4.94583 8.61667C4.79028 8.7625 4.61042 8.87674 4.40625 8.95937C4.20208 9.04201 3.98333 9.08333 3.75 9.08333C3.26389 9.08333 2.85069 8.91319 2.51042 8.57292C2.17014 8.23264 2 7.81944 2 7.33333C2 6.84722 2.17014 6.43403 2.51042 6.09375C2.85069 5.75347 3.26389 5.58333 3.75 5.58333C3.98333 5.58333 4.20208 5.62465 4.40625 5.70729C4.61042 5.78993 4.79028 5.90417 4.94583 6.05L9.04375 3.65833C9.02431 3.59028 9.01215 3.52465 9.00729 3.46146C9.00243 3.39826 9 3.32778 9 3.25C9 2.76389 9.17014 2.35069 9.51042 2.01042C9.85069 1.67014 10.2639 1.5 10.75 1.5C11.2361 1.5 11.6493 1.67014 11.9896 2.01042C12.3299 2.35069 12.5 2.76389 12.5 3.25C12.5 3.73611 12.3299 4.14931 11.9896 4.48958C11.6493 4.82986 11.2361 5 10.75 5C10.5167 5 10.2979 4.95868 10.0938 4.87604C9.88958 4.7934 9.70972 4.67917 9.55417 4.53333L5.45625 6.925C5.47569 6.99306 5.48785 7.05868 5.49271 7.12187C5.49757 7.18507 5.5 7.25556 5.5 7.33333C5.5 7.41111 5.49757 7.4816 5.49271 7.54479C5.48785 7.60799 5.47569 7.67361 5.45625 7.74167L9.55417 10.1333C9.70972 9.9875 9.88958 9.87326 10.0938 9.79062C10.2979 9.70799 10.5167 9.66667 10.75 9.66667C11.2361 9.66667 11.6493 9.83681 11.9896 10.1771C12.3299 10.5174 12.5 10.9306 12.5 11.4167C12.5 11.9028 12.3299 12.316 11.9896 12.6562C11.6493 12.9965 11.2361 13.1667 10.75 13.1667ZM10.75 12C10.9153 12 11.0538 11.9441 11.1656 11.8323C11.2774 11.7205 11.3333 11.5819 11.3333 11.4167C11.3333 11.2514 11.2774 11.1128 11.1656 11.001C11.0538 10.8892 10.9153 10.8333 10.75 10.8333C10.5847 10.8333 10.4462 10.8892 10.3344 11.001C10.2226 11.1128 10.1667 11.2514 10.1667 11.4167C10.1667 11.5819 10.2226 11.7205 10.3344 11.8323C10.4462 11.9441 10.5847 12 10.75 12ZM3.75 7.91667C3.91528 7.91667 4.05382 7.86076 4.16563 7.74896C4.27743 7.63715 4.33333 7.49861 4.33333 7.33333C4.33333 7.16806 4.27743 7.02951 4.16563 6.91771C4.05382 6.8059 3.91528 6.75 3.75 6.75C3.58472 6.75 3.44618 6.8059 3.33438 6.91771C3.22257 7.02951 3.16667 7.16806 3.16667 7.33333C3.16667 7.49861 3.22257 7.63715 3.33438 7.74896C3.44618 7.86076 3.58472 7.91667 3.75 7.91667ZM10.75 3.83333C10.9153 3.83333 11.0538 3.77743 11.1656 3.66563C11.2774 3.55382 11.3333 3.41528 11.3333 3.25C11.3333 3.08472 11.2774 2.94618 11.1656 2.83438C11.0538 2.72257 10.9153 2.66667 10.75 2.66667C10.5847 2.66667 10.4462 2.72257 10.3344 2.83438C10.2226 2.94618 10.1667 3.08472 10.1667 3.25C10.1667 3.41528 10.2226 3.55382 10.3344 3.66563C10.4462 3.77743 10.5847 3.83333 10.75 3.83333Z" fill="currentColor"/>
</svg>
