<svg width="253" height="288" viewBox="0 0 253 288" fill="none" xmlns="http://www.w3.org/2000/svg">
<mask id="mask0_2860_20369" style="mask-type:luminance" maskUnits="userSpaceOnUse" x="0" y="0" width="254" height="254">
<path d="M253.005 0H0V253.005H253.005V0Z" fill="white"/>
</mask>
<g mask="url(#mask0_2860_20369)">
<path d="M216.623 135.794C216.623 137.245 216.587 138.695 216.515 140.144C216.444 141.593 216.336 143.04 216.193 144.484C216.05 145.927 215.871 147.367 215.657 148.802C215.442 150.237 215.193 151.667 214.908 153.09C214.623 154.513 214.303 155.928 213.948 157.335C213.593 158.743 213.203 160.141 212.779 161.529C212.355 162.917 211.897 164.295 211.405 165.661C210.913 167.027 210.387 168.38 209.828 169.721C209.269 171.061 208.678 172.387 208.053 173.699C207.429 175.01 206.772 176.306 206.083 177.586C205.395 178.865 204.675 180.127 203.924 181.372C203.173 182.616 202.392 183.842 201.58 185.048C200.769 186.254 199.928 187.44 199.058 188.606C198.188 189.771 197.289 190.914 196.363 192.036C195.436 193.158 194.482 194.256 193.501 195.331C192.52 196.406 191.513 197.457 190.48 198.482C189.447 199.508 188.39 200.509 187.307 201.483C186.225 202.457 185.119 203.405 183.99 204.325C182.861 205.246 181.71 206.138 180.536 207.002C179.363 207.867 178.169 208.702 176.955 209.508C175.74 210.314 174.506 211.09 173.253 211.836C172 212.582 170.73 213.297 169.442 213.981C168.153 214.665 166.849 215.317 165.528 215.937C164.208 216.557 162.873 217.145 161.523 217.7C160.174 218.256 158.811 218.778 157.436 219.267C156.061 219.755 154.674 220.21 153.276 220.632C151.878 221.053 150.471 221.44 149.054 221.792C147.637 222.145 146.212 222.462 144.78 222.745C143.347 223.029 141.908 223.276 140.463 223.489C139.018 223.702 137.569 223.88 136.115 224.022C134.661 224.164 133.205 224.271 131.746 224.342C130.287 224.413 128.827 224.449 127.367 224.449C125.906 224.449 124.446 224.413 122.987 224.342C121.528 224.271 120.072 224.164 118.618 224.022C117.164 223.88 115.715 223.702 114.27 223.489C112.825 223.276 111.386 223.029 109.954 222.745C108.521 222.462 107.096 222.145 105.679 221.792C104.262 221.44 102.855 221.053 101.457 220.631C100.059 220.21 98.6724 219.755 97.297 219.267C95.9217 218.778 94.5592 218.256 93.2097 217.7C91.8601 217.145 90.5251 216.557 89.2046 215.937C87.8841 215.317 86.5797 214.665 85.2915 213.981C84.0032 213.297 82.7326 212.582 81.4797 211.836C80.2268 211.09 78.993 210.314 77.7785 209.508C76.5639 208.702 75.37 207.867 74.1967 207.002C73.0234 206.138 71.8722 205.246 70.743 204.325C69.6138 203.405 68.5081 202.457 67.4258 201.483C66.3434 200.509 65.2858 199.508 64.2529 198.482C63.22 197.457 62.213 196.406 61.2321 195.331C60.2511 194.256 59.2973 193.158 58.3706 192.036C57.4439 190.914 56.5455 189.771 55.6753 188.606C54.8051 187.44 53.9643 186.254 53.1527 185.048C52.3412 183.842 51.5599 182.616 50.809 181.372C50.058 180.127 49.3382 178.865 48.6496 177.586C47.961 176.306 47.3045 175.01 46.6799 173.699C46.0554 172.387 45.4636 171.061 44.9046 169.721C44.3456 168.38 43.82 167.027 43.3279 165.661C42.8358 164.295 42.3777 162.917 41.9537 161.529C41.5297 160.141 41.1402 158.743 40.7852 157.335C40.4303 155.928 40.1104 154.513 39.8254 153.09C39.5404 151.667 39.2908 150.237 39.0764 148.802C38.8621 147.367 38.6833 145.927 38.5401 144.484C38.397 143.04 38.2895 141.593 38.2179 140.144C38.1462 138.695 38.1104 137.245 38.1104 135.794C38.1104 134.343 38.1462 132.893 38.2179 131.444C38.2895 129.995 38.397 128.548 38.5401 127.104C38.6833 125.66 38.8621 124.221 39.0764 122.785C39.2908 121.35 39.5404 119.921 39.8254 118.498C40.1104 117.075 40.4303 115.66 40.7852 114.252C41.1402 112.845 41.5297 111.447 41.9537 110.059C42.3777 108.67 42.8358 107.293 43.3279 105.927C43.82 104.561 44.3456 103.207 44.9046 101.867C45.4636 100.526 46.0554 99.2005 46.6799 97.8889C47.3045 96.5773 47.961 95.2817 48.6496 94.0021C49.3382 92.7225 50.058 91.4605 50.809 90.216C51.5599 88.9715 52.3412 87.746 53.1527 86.5396C53.9643 85.3333 54.8051 84.1474 55.6753 82.982C56.5455 81.8166 57.4439 80.6731 58.3706 79.5516C59.2973 78.43 60.2511 77.3317 61.2321 76.2567C62.213 75.1816 63.22 74.1311 64.2529 73.1052C65.2858 72.0792 66.3434 71.079 67.4258 70.1047C68.5081 69.1303 69.6138 68.1829 70.743 67.2625C71.8722 66.342 73.0234 65.4496 74.1967 64.5853C75.37 63.721 76.5639 62.8858 77.7785 62.0797C78.993 61.2737 80.2268 60.4977 81.4797 59.7518C82.7326 59.0059 84.0032 58.2909 85.2915 57.607C86.5797 56.923 87.8841 56.2709 89.2046 55.6505C90.5251 55.0302 91.8601 54.4424 93.2097 53.8871C94.5592 53.3319 95.9217 52.8099 97.297 52.3211C98.6724 51.8323 100.059 51.3773 101.457 50.9561C102.855 50.5349 104.262 50.1481 105.679 49.7956C107.096 49.443 108.521 49.1252 109.954 48.8422C111.386 48.5591 112.825 48.3111 114.27 48.0982C115.715 47.8853 117.164 47.7078 118.618 47.5656C120.072 47.4233 121.528 47.3166 122.987 47.2455C124.446 47.1743 125.906 47.1387 127.367 47.1387C128.827 47.1387 130.287 47.1743 131.746 47.2455C133.205 47.3166 134.661 47.4233 136.115 47.5656C137.569 47.7078 139.018 47.8853 140.463 48.0982C141.908 48.3111 143.347 48.5591 144.78 48.8422C146.212 49.1252 147.637 49.443 149.054 49.7956C150.471 50.1481 151.878 50.5349 153.276 50.9561C154.674 51.3773 156.061 51.8323 157.436 52.3211C158.811 52.8099 160.174 53.3319 161.523 53.8871C162.873 54.4424 164.208 55.0302 165.528 55.6505C166.849 56.2709 168.153 56.923 169.442 57.607C170.73 58.2909 172 59.0059 173.253 59.7518C174.506 60.4977 175.74 61.2737 176.955 62.0797C178.169 62.8858 179.363 63.721 180.536 64.5853C181.71 65.4496 182.861 66.342 183.99 67.2625C185.119 68.1829 186.225 69.1303 187.307 70.1047C188.39 71.079 189.447 72.0792 190.48 73.1052C191.513 74.1311 192.52 75.1816 193.501 76.2567C194.482 77.3317 195.436 78.43 196.362 79.5516C197.289 80.6731 198.188 81.8166 199.058 82.982C199.928 84.1474 200.769 85.3333 201.58 86.5396C202.392 87.746 203.173 88.9715 203.924 90.216C204.675 91.4605 205.395 92.7225 206.083 94.0021C206.772 95.2817 207.429 96.5773 208.053 97.8889C208.678 99.2005 209.269 100.526 209.828 101.867C210.387 103.207 210.913 104.561 211.405 105.927C211.897 107.293 212.355 108.67 212.779 110.059C213.203 111.447 213.593 112.845 213.948 114.252C214.303 115.66 214.623 117.075 214.908 118.498C215.193 119.921 215.442 121.35 215.657 122.785C215.871 124.221 216.05 125.66 216.193 127.104C216.336 128.548 216.444 129.995 216.515 131.444C216.587 132.893 216.623 134.343 216.623 135.794Z" fill="#F2F4F7"/>
<path d="M195.736 124.223V178.468C195.736 189.738 186.57 198.904 175.15 198.904H79.8834C68.6137 198.904 59.4476 189.888 59.2974 178.619C59.2974 178.468 59.2974 178.468 59.2974 178.318V124.223C59.2974 124.073 59.2974 124.073 59.2974 123.923C59.2974 123.622 59.2974 123.322 59.4476 123.021C59.5979 122.571 59.7482 122.27 59.8984 121.819L85.4431 72.9838C86.3447 71.0303 88.2981 69.9785 90.4018 69.9785H164.481C166.585 69.9785 168.388 71.0303 169.44 72.9838L194.985 121.819C195.135 122.12 195.285 122.571 195.436 123.021C195.736 123.322 195.736 123.773 195.736 124.223Z" fill="#CFD5DD"/>
<g filter="url(#filter0_d_2860_20369)">
<path d="M195.736 124.224V184.028C195.736 192.293 189.125 198.904 180.71 198.904H74.3237C66.0592 198.904 59.2974 192.293 59.2974 184.028V123.923C59.2974 123.623 59.2974 123.322 59.4476 123.021H93.7076C98.8165 123.021 103.024 127.079 103.024 132.338C103.024 134.892 104.076 137.296 105.729 138.949C107.532 140.753 109.635 141.654 112.34 141.654H142.844C147.953 141.654 152.16 137.597 152.16 132.338C152.16 129.783 153.212 127.379 154.865 125.726C156.668 123.923 158.771 123.021 161.326 123.021H195.436C195.736 123.322 195.736 123.773 195.736 124.224Z" fill="url(#paint0_linear_2860_20369)"/>
</g>
<path d="M214.341 93.4197C217.743 93.4197 220.502 90.6549 220.502 87.2589C220.502 83.863 217.743 81.0981 214.341 81.0981C210.938 81.0981 208.181 83.863 208.181 87.2589C208.181 90.6549 210.938 93.4197 214.341 93.4197Z" fill="#F2F4F7"/>
<path d="M208.181 73.4345C210.504 73.4345 212.388 71.5562 212.388 69.2271C212.388 66.8981 210.504 65.0198 208.181 65.0198C205.856 65.0198 203.974 66.8981 203.974 69.2271C203.974 71.5562 205.856 73.4345 208.181 73.4345Z" fill="#F2F4F7"/>
<path d="M37.7826 87.2587C40.1056 87.2587 41.9899 85.3804 41.9899 83.0514C41.9899 80.7223 40.1056 78.844 37.7826 78.844C35.458 78.844 33.5752 80.7223 33.5752 83.0514C33.5752 85.3804 35.458 87.2587 37.7826 87.2587Z" fill="#F2F4F7"/>
<path d="M36.1298 172.007C36.1298 172.135 36.1267 172.263 36.1204 172.391C36.1141 172.518 36.1047 172.646 36.0922 172.773C36.0796 172.9 36.064 173.027 36.0452 173.154C36.0264 173.28 36.0046 173.406 35.9796 173.532C35.9547 173.657 35.9267 173.782 35.8956 173.906C35.8646 174.03 35.8305 174.153 35.7933 174.275C35.7562 174.398 35.7161 174.519 35.673 174.64C35.6299 174.76 35.5839 174.879 35.535 174.997C35.4861 175.116 35.4343 175.232 35.3796 175.348C35.3249 175.464 35.2674 175.578 35.2072 175.691C35.1469 175.803 35.0839 175.915 35.0181 176.024C34.9524 176.134 34.884 176.242 34.8129 176.348C34.7419 176.455 34.6683 176.559 34.5921 176.662C34.5159 176.765 34.4373 176.865 34.3562 176.964C34.275 177.063 34.1915 177.16 34.1057 177.255C34.0198 177.349 33.9316 177.442 33.8412 177.532C33.7508 177.623 33.6582 177.711 33.5635 177.797C33.4687 177.883 33.3719 177.966 33.2731 178.047C33.1742 178.128 33.0734 178.207 32.9707 178.283C32.868 178.359 32.7635 178.433 32.6572 178.504C32.5508 178.575 32.4428 178.644 32.3331 178.709C32.2235 178.775 32.1122 178.838 31.9995 178.898C31.8867 178.959 31.7725 179.016 31.6569 179.071C31.5413 179.125 31.4244 179.177 31.3063 179.226C31.1881 179.275 31.0689 179.321 30.9485 179.364C30.8281 179.407 30.7067 179.447 30.5843 179.484C30.4619 179.522 30.3387 179.556 30.2147 179.587C30.0906 179.618 29.9659 179.646 29.8405 179.671C29.7151 179.696 29.5891 179.718 29.4626 179.736C29.3361 179.755 29.2092 179.771 29.082 179.783C28.9547 179.796 28.8272 179.805 28.6995 179.812C28.5718 179.818 28.444 179.821 28.3161 179.821C28.1882 179.821 28.0604 179.818 27.9327 179.812C27.805 179.805 27.6775 179.796 27.5502 179.783C27.423 179.771 27.2961 179.755 27.1696 179.736C27.0431 179.718 26.9172 179.696 26.7917 179.671C26.6663 179.646 26.5416 179.618 26.4175 179.587C26.2935 179.556 26.1703 179.522 26.0479 179.484C25.9256 179.447 25.8042 179.407 25.6838 179.364C25.5634 179.321 25.4441 179.275 25.326 179.226C25.2078 179.177 25.0909 179.125 24.9753 179.071C24.8597 179.016 24.7456 178.959 24.6328 178.898C24.52 178.838 24.4088 178.775 24.2991 178.709C24.1894 178.644 24.0814 178.575 23.9751 178.504C23.8687 178.433 23.7642 178.359 23.6615 178.283C23.5588 178.207 23.458 178.128 23.3592 178.047C23.2603 177.966 23.1635 177.883 23.0688 177.797C22.974 177.711 22.8814 177.623 22.791 177.532C22.7006 177.442 22.6124 177.349 22.5266 177.255C22.4407 177.16 22.3572 177.063 22.2761 176.964C22.1949 176.865 22.1163 176.765 22.0401 176.662C21.9639 176.559 21.8903 176.455 21.8193 176.348C21.7482 176.242 21.6798 176.134 21.6141 176.024C21.5484 175.915 21.4854 175.803 21.4251 175.691C21.3648 175.578 21.3073 175.464 21.2526 175.348C21.198 175.232 21.1462 175.116 21.0972 174.997C21.0483 174.879 21.0023 174.76 20.9592 174.64C20.9161 174.519 20.876 174.398 20.8389 174.275C20.8018 174.153 20.7677 174.03 20.7366 173.906C20.7055 173.782 20.6775 173.657 20.6526 173.532C20.6276 173.406 20.6058 173.28 20.587 173.154C20.5682 173.027 20.5526 172.9 20.5401 172.773C20.5275 172.646 20.5181 172.518 20.5119 172.391C20.5056 172.263 20.5024 172.135 20.5024 172.007C20.5024 171.879 20.5056 171.752 20.5119 171.624C20.5181 171.496 20.5275 171.369 20.5401 171.241C20.5526 171.114 20.5682 170.987 20.587 170.861C20.6058 170.734 20.6276 170.608 20.6526 170.483C20.6775 170.357 20.7055 170.233 20.7366 170.109C20.7677 169.985 20.8018 169.861 20.8389 169.739C20.876 169.617 20.9161 169.495 20.9592 169.375C21.0023 169.255 21.0483 169.135 21.0972 169.017C21.1462 168.899 21.198 168.782 21.2526 168.667C21.3073 168.551 21.3648 168.437 21.4251 168.324C21.4854 168.211 21.5484 168.1 21.6141 167.99C21.6798 167.881 21.7482 167.773 21.8193 167.666C21.8903 167.56 21.9639 167.455 22.0401 167.353C22.1163 167.25 22.1949 167.149 22.2761 167.05C22.3572 166.951 22.4407 166.855 22.5266 166.76C22.6124 166.665 22.7006 166.573 22.791 166.482C22.8814 166.392 22.974 166.304 23.0688 166.218C23.1635 166.132 23.2603 166.048 23.3592 165.967C23.458 165.886 23.5588 165.807 23.6615 165.731C23.7642 165.655 23.8687 165.581 23.9751 165.51C24.0814 165.439 24.1894 165.371 24.2991 165.305C24.4088 165.24 24.52 165.177 24.6328 165.116C24.7456 165.056 24.8597 164.998 24.9753 164.944C25.0909 164.889 25.2078 164.837 25.326 164.788C25.4441 164.739 25.5634 164.693 25.6838 164.65C25.8042 164.607 25.9256 164.567 26.0479 164.53C26.1703 164.493 26.2935 164.459 26.4175 164.428C26.5416 164.397 26.6663 164.369 26.7917 164.344C26.9172 164.319 27.0431 164.297 27.1696 164.278C27.2961 164.259 27.423 164.244 27.5502 164.231C27.6775 164.219 27.805 164.209 27.9327 164.203C28.0604 164.197 28.1882 164.194 28.3161 164.194C28.444 164.194 28.5718 164.197 28.6995 164.203C28.8272 164.209 28.9547 164.219 29.082 164.231C29.2092 164.244 29.3361 164.259 29.4626 164.278C29.5891 164.297 29.7151 164.319 29.8405 164.344C29.9659 164.369 30.0906 164.397 30.2147 164.428C30.3387 164.459 30.4619 164.493 30.5843 164.53C30.7067 164.567 30.8281 164.607 30.9485 164.65C31.0689 164.693 31.1881 164.739 31.3063 164.788C31.4244 164.837 31.5413 164.889 31.6569 164.944C31.7725 164.998 31.8867 165.056 31.9995 165.116C32.1122 165.177 32.2235 165.24 32.3331 165.305C32.4428 165.371 32.5508 165.439 32.6572 165.51C32.7635 165.581 32.868 165.655 32.9707 165.731C33.0734 165.807 33.1742 165.886 33.2731 165.967C33.3719 166.048 33.4687 166.132 33.5635 166.218C33.6582 166.304 33.7508 166.392 33.8412 166.482C33.9316 166.573 34.0198 166.665 34.1057 166.76C34.1915 166.855 34.275 166.951 34.3562 167.05C34.4373 167.149 34.5159 167.25 34.5921 167.353C34.6683 167.455 34.7419 167.56 34.8129 167.666C34.884 167.773 34.9524 167.881 35.0181 167.99C35.0839 168.1 35.1469 168.211 35.2072 168.324C35.2674 168.437 35.3249 168.551 35.3796 168.667C35.4343 168.782 35.4861 168.899 35.535 169.017C35.5839 169.135 35.6299 169.255 35.673 169.375C35.7161 169.495 35.7562 169.617 35.7933 169.739C35.8305 169.861 35.8646 169.985 35.8956 170.109C35.9267 170.233 35.9547 170.357 35.9796 170.483C36.0046 170.608 36.0264 170.734 36.0452 170.861C36.064 170.987 36.0796 171.114 36.0922 171.241C36.1047 171.369 36.1141 171.496 36.1204 171.624C36.1267 171.752 36.1298 171.879 36.1298 172.007Z" fill="#F2F4F7"/>
<path fill-rule="evenodd" clip-rule="evenodd" d="M166.91 55.0201L166.609 51.7634L163.616 52.0406L163.918 55.2972L166.91 55.0201ZM167.99 67.4221C167.876 65.7531 167.705 63.661 167.479 61.1456L164.485 61.4156C164.71 63.9092 164.879 65.9795 164.991 67.6266L167.99 67.4221ZM168.102 79.7228C168.236 77.758 168.29 75.7352 168.263 73.6542L165.258 73.6935C165.284 75.6929 165.232 77.6344 165.104 79.5178L168.102 79.7228ZM166.307 92.2483C166.753 90.0276 167.116 87.9801 167.396 86.1058L164.423 85.6625C164.151 87.4868 163.797 89.4847 163.361 91.6562L166.307 92.2483ZM143.238 88.8226C141.398 87.3313 139.228 86.4638 136.727 86.22L136.436 89.2111C138.337 89.3964 139.974 90.0452 141.346 91.1574L143.238 88.8226ZM129.113 87.963C127.4 89.1971 126.093 90.8473 125.192 92.9135L127.946 94.1149C128.621 92.5681 129.583 91.3396 130.831 90.4293C130.97 90.343 131.113 90.2609 131.258 90.1829L129.838 87.5345C129.617 87.6527 129.402 87.7779 129.192 87.9102L129.152 87.9354L129.113 87.963ZM149.216 100.696C149.069 98.3089 148.51 96.1173 147.537 94.1206L144.835 95.4372C145.634 97.076 146.094 98.89 146.216 100.879L149.216 100.696ZM164.777 98.856C164.824 98.7128 164.859 98.6105 164.879 98.5489L162.028 97.5988C162.005 97.6669 161.971 97.7695 161.925 97.9067C161.111 100.353 160.454 102.16 159.956 103.325L162.72 104.506C163.25 103.265 163.936 101.381 164.777 98.856ZM124.393 101.599C124.679 103.189 125.161 104.727 125.839 106.214L128.574 104.968C127.995 103.698 127.585 102.386 127.345 101.031L127.337 100.987L127.327 100.944C127.212 100.466 127.133 99.9755 127.087 99.4725L124.094 99.7416C124.151 100.374 124.251 100.994 124.393 101.599ZM146.443 113.477C147.408 111.407 148.127 109.345 148.602 107.29L145.674 106.614C145.247 108.464 144.595 110.328 143.719 112.207L146.443 113.477ZM158.753 110.919C158.955 110.703 159.153 110.479 159.346 110.248L157.04 108.32C156.876 108.517 156.708 108.707 156.536 108.889L156.509 108.918L156.483 108.949C155.464 110.155 154.225 111.199 152.767 112.08L154.322 114.652C156.049 113.608 157.526 112.363 158.753 110.919ZM129.594 111.754C131.181 113.415 132.979 114.745 134.988 115.745L136.327 113.054C134.632 112.211 133.112 111.085 131.766 109.677L129.594 111.754ZM141.445 117.595C143.648 117.811 145.875 117.66 148.125 117.144L147.452 114.215C145.521 114.658 143.616 114.788 141.738 114.604L141.445 117.595ZM139.926 124.336C141.143 122.701 142.26 121.027 143.275 119.314L140.69 117.781C139.728 119.404 138.67 120.991 137.515 122.542L139.926 124.336ZM132.466 134.086C133.657 132.448 134.931 130.76 136.287 129.022L133.918 127.173C132.541 128.938 131.247 130.653 130.036 132.319L132.466 134.086ZM127.111 141.804L128.952 139.077L126.461 137.395L124.62 140.122L127.111 141.804Z" fill="#A0ABBA"/>
<path fill-rule="evenodd" clip-rule="evenodd" d="M172.777 47.5352L172.786 47.5204C173.117 46.9867 173.086 46.317 172.706 45.8145L161.693 31.0911C161.356 30.6418 160.786 30.4353 160.241 30.5633C159.696 30.6913 159.277 31.1297 159.175 31.6821L155.86 49.7661C155.747 50.3935 156.024 51.0108 156.568 51.3392C157.114 51.6688 157.788 51.6265 158.289 51.2337L162.162 48.1966C162.315 48.0766 162.474 47.9662 162.638 47.8653L161.201 35.3647L165.441 47.1044C165.75 47.1112 166.06 47.146 166.368 47.2096L171.188 48.2066C171.812 48.3353 172.435 48.0713 172.777 47.5352Z" fill="#A0ABBA"/>
</g>
<path d="M85.5834 276.278V285.005H84.5607L79.805 278.153H79.7198V285.005H78.663V276.278H79.6857L84.4584 283.147H84.5436V276.278H85.5834ZM90.2208 285.142C89.6299 285.142 89.1115 285.001 88.6654 284.72C88.2223 284.438 87.8757 284.045 87.6257 283.539C87.3785 283.034 87.2549 282.443 87.2549 281.767C87.2549 281.085 87.3785 280.49 87.6257 279.981C87.8757 279.473 88.2223 279.078 88.6654 278.796C89.1115 278.515 89.6299 278.375 90.2208 278.375C90.8118 278.375 91.3288 278.515 91.772 278.796C92.218 279.078 92.5646 279.473 92.8118 279.981C93.0618 280.49 93.1868 281.085 93.1868 281.767C93.1868 282.443 93.0618 283.034 92.8118 283.539C92.5646 284.045 92.218 284.438 91.772 284.72C91.3288 285.001 90.8118 285.142 90.2208 285.142ZM90.2208 284.238C90.6697 284.238 91.039 284.123 91.3288 283.893C91.6186 283.663 91.8331 283.36 91.9723 282.985C92.1115 282.61 92.1811 282.204 92.1811 281.767C92.1811 281.329 92.1115 280.921 91.9723 280.544C91.8331 280.166 91.6186 279.86 91.3288 279.627C91.039 279.394 90.6697 279.278 90.2208 279.278C89.772 279.278 89.4027 279.394 89.1129 279.627C88.8231 279.86 88.6086 280.166 88.4694 280.544C88.3302 280.921 88.2606 281.329 88.2606 281.767C88.2606 282.204 88.3302 282.61 88.4694 282.985C88.6086 283.36 88.8231 283.663 89.1129 283.893C89.4027 284.123 89.772 284.238 90.2208 284.238ZM100.568 285.142C100.023 285.142 99.5415 285.004 99.1239 284.728C98.7063 284.45 98.3796 284.058 98.1438 283.552C97.908 283.044 97.7901 282.443 97.7901 281.75C97.7901 281.062 97.908 280.465 98.1438 279.96C98.3796 279.454 98.7077 279.063 99.1282 278.788C99.5486 278.512 100.034 278.375 100.586 278.375C101.012 278.375 101.348 278.446 101.595 278.588C101.845 278.727 102.036 278.886 102.167 279.065C102.3 279.241 102.404 279.386 102.478 279.5H102.563V276.278H103.568V285.005H102.597V284H102.478C102.404 284.119 102.299 284.269 102.162 284.451C102.026 284.63 101.831 284.791 101.578 284.933C101.326 285.072 100.989 285.142 100.568 285.142ZM100.705 284.238C101.108 284.238 101.449 284.133 101.728 283.923C102.006 283.71 102.218 283.416 102.363 283.041C102.507 282.663 102.58 282.227 102.58 281.733C102.58 281.244 102.509 280.816 102.367 280.45C102.225 280.081 102.015 279.794 101.736 279.589C101.458 279.382 101.114 279.278 100.705 279.278C100.279 279.278 99.9236 279.387 99.6395 279.606C99.3583 279.822 99.1466 280.116 99.0046 280.488C98.8654 280.858 98.7958 281.272 98.7958 281.733C98.7958 282.198 98.8668 282.622 99.0088 283.002C99.1537 283.38 99.3668 283.681 99.648 283.906C99.9321 284.127 100.284 284.238 100.705 284.238ZM107.476 285.159C107.061 285.159 106.685 285.081 106.347 284.924C106.009 284.765 105.74 284.536 105.542 284.238C105.343 283.937 105.243 283.573 105.243 283.147C105.243 282.772 105.317 282.468 105.465 282.235C105.613 282 105.81 281.815 106.057 281.681C106.304 281.548 106.577 281.448 106.875 281.383C107.176 281.315 107.479 281.261 107.783 281.221C108.181 281.17 108.503 281.132 108.75 281.106C109 281.078 109.182 281.031 109.296 280.965C109.412 280.9 109.47 280.786 109.47 280.625V280.59C109.47 280.17 109.355 279.843 109.125 279.61C108.898 279.377 108.553 279.261 108.09 279.261C107.61 279.261 107.233 279.366 106.961 279.576C106.688 279.786 106.496 280.011 106.385 280.25L105.431 279.909C105.601 279.511 105.828 279.201 106.113 278.98C106.399 278.755 106.712 278.599 107.05 278.511C107.391 278.42 107.726 278.375 108.056 278.375C108.266 278.375 108.507 278.4 108.78 278.451C109.056 278.5 109.321 278.6 109.577 278.754C109.836 278.907 110.05 279.139 110.22 279.448C110.391 279.758 110.476 280.173 110.476 280.693V285.005H109.47V284.119H109.419C109.351 284.261 109.238 284.413 109.078 284.575C108.919 284.737 108.708 284.875 108.443 284.988C108.179 285.102 107.857 285.159 107.476 285.159ZM107.63 284.255C108.027 284.255 108.363 284.177 108.635 284.021C108.911 283.865 109.118 283.663 109.257 283.416C109.399 283.169 109.47 282.909 109.47 282.636V281.715C109.428 281.767 109.334 281.813 109.189 281.856C109.047 281.896 108.882 281.931 108.695 281.963C108.51 281.991 108.33 282.017 108.154 282.039C107.98 282.059 107.84 282.076 107.732 282.09C107.47 282.125 107.226 282.18 106.999 282.257C106.774 282.331 106.593 282.443 106.453 282.593C106.317 282.741 106.249 282.943 106.249 283.198C106.249 283.548 106.378 283.812 106.637 283.991C106.898 284.167 107.229 284.255 107.63 284.255ZM115.158 278.46V279.312H111.766V278.46H115.158ZM112.755 276.892H113.761V283.13C113.761 283.414 113.802 283.627 113.884 283.769C113.969 283.909 114.077 284.002 114.208 284.051C114.342 284.096 114.482 284.119 114.63 284.119C114.741 284.119 114.832 284.113 114.903 284.102C114.974 284.088 115.031 284.076 115.073 284.068L115.278 284.971C115.209 284.997 115.114 285.022 114.992 285.048C114.87 285.076 114.715 285.09 114.528 285.09C114.244 285.09 113.965 285.029 113.692 284.907C113.423 284.785 113.198 284.599 113.019 284.349C112.843 284.099 112.755 283.784 112.755 283.403V276.892ZM118.597 285.159C118.182 285.159 117.806 285.081 117.468 284.924C117.13 284.765 116.861 284.536 116.663 284.238C116.464 283.937 116.364 283.573 116.364 283.147C116.364 282.772 116.438 282.468 116.586 282.235C116.734 282 116.931 281.815 117.178 281.681C117.425 281.548 117.698 281.448 117.996 281.383C118.298 281.315 118.6 281.261 118.904 281.221C119.302 281.17 119.624 281.132 119.871 281.106C120.121 281.078 120.303 281.031 120.417 280.965C120.533 280.9 120.592 280.786 120.592 280.625V280.59C120.592 280.17 120.477 279.843 120.246 279.61C120.019 279.377 119.674 279.261 119.211 279.261C118.731 279.261 118.354 279.366 118.082 279.576C117.809 279.786 117.617 280.011 117.506 280.25L116.552 279.909C116.722 279.511 116.95 279.201 117.234 278.98C117.521 278.755 117.833 278.599 118.171 278.511C118.512 278.42 118.847 278.375 119.177 278.375C119.387 278.375 119.629 278.4 119.901 278.451C120.177 278.5 120.442 278.6 120.698 278.754C120.957 278.907 121.171 279.139 121.342 279.448C121.512 279.758 121.597 280.173 121.597 280.693V285.005H120.592V284.119H120.54C120.472 284.261 120.359 284.413 120.2 284.575C120.04 284.737 119.829 284.875 119.565 284.988C119.3 285.102 118.978 285.159 118.597 285.159ZM118.751 284.255C119.148 284.255 119.484 284.177 119.756 284.021C120.032 283.865 120.239 283.663 120.379 283.416C120.521 283.169 120.592 282.909 120.592 282.636V281.715C120.549 281.767 120.455 281.813 120.31 281.856C120.168 281.896 120.004 281.931 119.816 281.963C119.631 281.991 119.451 282.017 119.275 282.039C119.102 282.059 118.961 282.076 118.853 282.09C118.592 282.125 118.347 282.18 118.12 282.257C117.896 282.331 117.714 282.443 117.575 282.593C117.438 282.741 117.37 282.943 117.37 283.198C117.37 283.548 117.499 283.812 117.758 283.991C118.019 284.167 118.35 284.255 118.751 284.255ZM128.734 285.159C128.319 285.159 127.943 285.081 127.605 284.924C127.267 284.765 126.998 284.536 126.799 284.238C126.6 283.937 126.501 283.573 126.501 283.147C126.501 282.772 126.575 282.468 126.723 282.235C126.87 282 127.068 281.815 127.315 281.681C127.562 281.548 127.835 281.448 128.133 281.383C128.434 281.315 128.737 281.261 129.041 281.221C129.439 281.17 129.761 281.132 130.008 281.106C130.258 281.078 130.44 281.031 130.554 280.965C130.67 280.9 130.728 280.786 130.728 280.625V280.59C130.728 280.17 130.613 279.843 130.383 279.61C130.156 279.377 129.811 279.261 129.348 279.261C128.868 279.261 128.491 279.366 128.218 279.576C127.946 279.786 127.754 280.011 127.643 280.25L126.689 279.909C126.859 279.511 127.086 279.201 127.37 278.98C127.657 278.755 127.97 278.599 128.308 278.511C128.649 278.42 128.984 278.375 129.314 278.375C129.524 278.375 129.765 278.4 130.038 278.451C130.314 278.5 130.579 278.6 130.835 278.754C131.093 278.907 131.308 279.139 131.478 279.448C131.649 279.758 131.734 280.173 131.734 280.693V285.005H130.728V284.119H130.677C130.609 284.261 130.495 284.413 130.336 284.575C130.177 284.737 129.966 284.875 129.701 284.988C129.437 285.102 129.115 285.159 128.734 285.159ZM128.887 284.255C129.285 284.255 129.62 284.177 129.893 284.021C130.169 283.865 130.376 283.663 130.515 283.416C130.657 283.169 130.728 282.909 130.728 282.636V281.715C130.686 281.767 130.592 281.813 130.447 281.856C130.305 281.896 130.14 281.931 129.953 281.963C129.768 281.991 129.588 282.017 129.412 282.039C129.238 282.059 129.098 282.076 128.99 282.09C128.728 282.125 128.484 282.18 128.257 282.257C128.032 282.331 127.85 282.443 127.711 282.593C127.575 282.741 127.507 282.943 127.507 283.198C127.507 283.548 127.636 283.812 127.894 283.991C128.156 284.167 128.487 284.255 128.887 284.255ZM138.687 278.46L136.267 285.005H135.244L132.824 278.46H133.915L135.722 283.676H135.79L137.597 278.46H138.687ZM141.742 285.159C141.327 285.159 140.951 285.081 140.613 284.924C140.274 284.765 140.006 284.536 139.807 284.238C139.608 283.937 139.509 283.573 139.509 283.147C139.509 282.772 139.583 282.468 139.73 282.235C139.878 282 140.076 281.815 140.323 281.681C140.57 281.548 140.843 281.448 141.141 281.383C141.442 281.315 141.745 281.261 142.049 281.221C142.446 281.17 142.769 281.132 143.016 281.106C143.266 281.078 143.448 281.031 143.561 280.965C143.678 280.9 143.736 280.786 143.736 280.625V280.59C143.736 280.17 143.621 279.843 143.391 279.61C143.164 279.377 142.818 279.261 142.355 279.261C141.875 279.261 141.499 279.366 141.226 279.576C140.953 279.786 140.762 280.011 140.651 280.25L139.696 279.909C139.867 279.511 140.094 279.201 140.378 278.98C140.665 278.755 140.978 278.599 141.316 278.511C141.657 278.42 141.992 278.375 142.321 278.375C142.532 278.375 142.773 278.4 143.046 278.451C143.321 278.5 143.587 278.6 143.843 278.754C144.101 278.907 144.316 279.139 144.486 279.448C144.657 279.758 144.742 280.173 144.742 280.693V285.005H143.736V284.119H143.685C143.617 284.261 143.503 284.413 143.344 284.575C143.185 284.737 142.973 284.875 142.709 284.988C142.445 285.102 142.122 285.159 141.742 285.159ZM141.895 284.255C142.293 284.255 142.628 284.177 142.901 284.021C143.176 283.865 143.384 283.663 143.523 283.416C143.665 283.169 143.736 282.909 143.736 282.636V281.715C143.693 281.767 143.6 281.813 143.455 281.856C143.313 281.896 143.148 281.931 142.961 281.963C142.776 281.991 142.595 282.017 142.419 282.039C142.246 282.059 142.105 282.076 141.997 282.09C141.736 282.125 141.492 282.18 141.265 282.257C141.04 282.331 140.858 282.443 140.719 282.593C140.583 282.741 140.515 282.943 140.515 283.198C140.515 283.548 140.644 283.812 140.902 283.991C141.164 284.167 141.495 284.255 141.895 284.255ZM146.577 285.005V278.46H147.583V285.005H146.577ZM147.089 277.369C146.893 277.369 146.724 277.302 146.582 277.169C146.442 277.035 146.373 276.875 146.373 276.687C146.373 276.5 146.442 276.339 146.582 276.206C146.724 276.072 146.893 276.005 147.089 276.005C147.285 276.005 147.452 276.072 147.592 276.206C147.734 276.339 147.805 276.5 147.805 276.687C147.805 276.875 147.734 277.035 147.592 277.169C147.452 277.302 147.285 277.369 147.089 277.369ZM150.431 276.278V285.005H149.425V276.278H150.431ZM154.199 285.159C153.784 285.159 153.408 285.081 153.07 284.924C152.731 284.765 152.463 284.536 152.264 284.238C152.065 283.937 151.966 283.573 151.966 283.147C151.966 282.772 152.04 282.468 152.187 282.235C152.335 282 152.533 281.815 152.78 281.681C153.027 281.548 153.3 281.448 153.598 281.383C153.899 281.315 154.202 281.261 154.506 281.221C154.903 281.17 155.226 281.132 155.473 281.106C155.723 281.078 155.905 281.031 156.018 280.965C156.135 280.9 156.193 280.786 156.193 280.625V280.59C156.193 280.17 156.078 279.843 155.848 279.61C155.621 279.377 155.276 279.261 154.812 279.261C154.332 279.261 153.956 279.366 153.683 279.576C153.41 279.786 153.219 280.011 153.108 280.25L152.153 279.909C152.324 279.511 152.551 279.201 152.835 278.98C153.122 278.755 153.435 278.599 153.773 278.511C154.114 278.42 154.449 278.375 154.778 278.375C154.989 278.375 155.23 278.4 155.503 278.451C155.778 278.5 156.044 278.6 156.3 278.754C156.558 278.907 156.773 279.139 156.943 279.448C157.114 279.758 157.199 280.173 157.199 280.693V285.005H156.193V284.119H156.142C156.074 284.261 155.96 284.413 155.801 284.575C155.642 284.737 155.43 284.875 155.166 284.988C154.902 285.102 154.58 285.159 154.199 285.159ZM154.352 284.255C154.75 284.255 155.085 284.177 155.358 284.021C155.633 283.865 155.841 283.663 155.98 283.416C156.122 283.169 156.193 282.909 156.193 282.636V281.715C156.151 281.767 156.057 281.813 155.912 281.856C155.77 281.896 155.605 281.931 155.418 281.963C155.233 281.991 155.053 282.017 154.876 282.039C154.703 282.059 154.562 282.076 154.455 282.09C154.193 282.125 153.949 282.18 153.722 282.257C153.497 282.331 153.315 282.443 153.176 282.593C153.04 282.741 152.972 282.943 152.972 283.198C152.972 283.548 153.101 283.812 153.359 283.991C153.621 284.167 153.952 284.255 154.352 284.255ZM159.171 285.005V276.278H160.176V279.5H160.262C160.336 279.386 160.438 279.241 160.568 279.065C160.702 278.886 160.892 278.727 161.14 278.588C161.39 278.446 161.728 278.375 162.154 278.375C162.705 278.375 163.191 278.512 163.611 278.788C164.032 279.063 164.36 279.454 164.595 279.96C164.831 280.465 164.949 281.062 164.949 281.75C164.949 282.443 164.831 283.044 164.595 283.552C164.36 284.058 164.033 284.45 163.615 284.728C163.198 285.004 162.716 285.142 162.171 285.142C161.75 285.142 161.414 285.072 161.161 284.933C160.908 284.791 160.713 284.63 160.577 284.451C160.441 284.269 160.336 284.119 160.262 284H160.142V285.005H159.171ZM160.159 281.733C160.159 282.227 160.232 282.663 160.377 283.041C160.522 283.416 160.733 283.71 161.012 283.923C161.29 284.133 161.631 284.238 162.034 284.238C162.455 284.238 162.806 284.127 163.087 283.906C163.371 283.681 163.584 283.38 163.726 283.002C163.871 282.622 163.943 282.198 163.943 281.733C163.943 281.272 163.872 280.858 163.73 280.488C163.591 280.116 163.38 279.822 163.095 279.606C162.814 279.387 162.461 279.278 162.034 279.278C161.625 279.278 161.282 279.382 161.003 279.589C160.725 279.794 160.515 280.081 160.372 280.45C160.23 280.816 160.159 281.244 160.159 281.733ZM167.493 276.278V285.005H166.488V276.278H167.493ZM172.08 285.142C171.449 285.142 170.905 285.002 170.447 284.724C169.993 284.443 169.642 284.051 169.395 283.548C169.151 283.042 169.028 282.454 169.028 281.784C169.028 281.113 169.151 280.522 169.395 280.011C169.642 279.497 169.986 279.096 170.426 278.809C170.869 278.519 171.386 278.375 171.977 278.375C172.318 278.375 172.655 278.431 172.987 278.545C173.32 278.659 173.622 278.843 173.895 279.099C174.168 279.352 174.385 279.687 174.547 280.105C174.709 280.522 174.79 281.036 174.79 281.647V282.073H169.744V281.204H173.767C173.767 280.835 173.693 280.505 173.545 280.215C173.401 279.926 173.193 279.697 172.923 279.529C172.656 279.362 172.341 279.278 171.977 279.278C171.577 279.278 171.23 279.377 170.937 279.576C170.648 279.772 170.425 280.028 170.268 280.343C170.112 280.659 170.034 280.997 170.034 281.358V281.937C170.034 282.431 170.119 282.85 170.29 283.194C170.463 283.535 170.703 283.795 171.01 283.974C171.317 284.15 171.673 284.238 172.08 284.238C172.344 284.238 172.582 284.201 172.795 284.127C173.011 284.051 173.197 283.937 173.354 283.786C173.51 283.633 173.631 283.443 173.716 283.215L174.687 283.488C174.585 283.818 174.413 284.108 174.172 284.358C173.93 284.605 173.632 284.798 173.277 284.937C172.922 285.073 172.523 285.142 172.08 285.142Z" fill="#7B8290"/>
<defs>
<filter id="filter0_d_2860_20369" x="26.2395" y="106.493" width="202.555" height="141.999" filterUnits="userSpaceOnUse" color-interpolation-filters="sRGB">
<feFlood flood-opacity="0" result="BackgroundImageFix"/>
<feColorMatrix in="SourceAlpha" type="matrix" values="0 0 0 0 0 0 0 0 0 0 0 0 0 0 0 0 0 0 127 0" result="hardAlpha"/>
<feOffset dy="16.5289"/>
<feGaussianBlur stdDeviation="16.5289"/>
<feColorMatrix type="matrix" values="0 0 0 0 0.396078 0 0 0 0 0.478431 0 0 0 0 0.576471 0 0 0 0.27 0"/>
<feBlend mode="normal" in2="BackgroundImageFix" result="effect1_dropShadow_2860_20369"/>
<feBlend mode="normal" in="SourceGraphic" in2="effect1_dropShadow_2860_20369" result="shape"/>
</filter>
<linearGradient id="paint0_linear_2860_20369" x1="127.474" y1="121.264" x2="127.474" y2="199.721" gradientUnits="userSpaceOnUse">
<stop stop-color="#FDFEFF"/>
<stop offset="0.9964" stop-color="#ECF0F5"/>
</linearGradient>
</defs>
</svg>
