<svg width="253" height="253" viewBox="0 0 253 253" fill="none" xmlns="http://www.w3.org/2000/svg">
<mask id="mask0_2860_20370" style="mask-type:luminance" maskUnits="userSpaceOnUse" x="0" y="0" width="254" height="254">
<path d="M253.005 0H0V253.005H253.005V0Z" fill="white"/>
</mask>
<g mask="url(#mask0_2860_20370)">
<path d="M216.623 135.794C216.623 137.245 216.587 138.695 216.515 140.144C216.444 141.593 216.336 143.04 216.193 144.484C216.05 145.927 215.871 147.367 215.657 148.802C215.442 150.237 215.193 151.667 214.908 153.09C214.623 154.513 214.303 155.928 213.948 157.335C213.593 158.743 213.203 160.141 212.779 161.529C212.355 162.917 211.897 164.295 211.405 165.661C210.913 167.027 210.387 168.38 209.828 169.721C209.269 171.061 208.678 172.387 208.053 173.699C207.429 175.01 206.772 176.306 206.083 177.586C205.395 178.865 204.675 180.127 203.924 181.372C203.173 182.616 202.392 183.842 201.58 185.048C200.769 186.254 199.928 187.44 199.058 188.606C198.188 189.771 197.289 190.914 196.363 192.036C195.436 193.158 194.482 194.256 193.501 195.331C192.52 196.406 191.513 197.457 190.48 198.482C189.447 199.508 188.39 200.509 187.307 201.483C186.225 202.457 185.119 203.405 183.99 204.325C182.861 205.246 181.71 206.138 180.536 207.002C179.363 207.867 178.169 208.702 176.955 209.508C175.74 210.314 174.506 211.09 173.253 211.836C172 212.582 170.73 213.297 169.442 213.981C168.153 214.665 166.849 215.317 165.528 215.937C164.208 216.557 162.873 217.145 161.523 217.7C160.174 218.256 158.811 218.778 157.436 219.267C156.061 219.755 154.674 220.21 153.276 220.632C151.878 221.053 150.471 221.44 149.054 221.792C147.637 222.145 146.212 222.462 144.78 222.745C143.347 223.029 141.908 223.276 140.463 223.489C139.018 223.702 137.569 223.88 136.115 224.022C134.661 224.164 133.205 224.271 131.746 224.342C130.287 224.413 128.827 224.449 127.367 224.449C125.906 224.449 124.446 224.413 122.987 224.342C121.528 224.271 120.072 224.164 118.618 224.022C117.164 223.88 115.715 223.702 114.27 223.489C112.825 223.276 111.386 223.029 109.954 222.745C108.521 222.462 107.096 222.145 105.679 221.792C104.262 221.44 102.855 221.053 101.457 220.631C100.059 220.21 98.6724 219.755 97.297 219.267C95.9217 218.778 94.5592 218.256 93.2097 217.7C91.8601 217.145 90.5251 216.557 89.2046 215.937C87.8841 215.317 86.5797 214.665 85.2915 213.981C84.0032 213.297 82.7326 212.582 81.4797 211.836C80.2268 211.09 78.993 210.314 77.7785 209.508C76.5639 208.702 75.37 207.867 74.1967 207.002C73.0234 206.138 71.8722 205.246 70.743 204.325C69.6138 203.405 68.5081 202.457 67.4258 201.483C66.3434 200.509 65.2858 199.508 64.2529 198.482C63.22 197.457 62.213 196.406 61.2321 195.331C60.2511 194.256 59.2973 193.158 58.3706 192.036C57.4439 190.914 56.5455 189.771 55.6753 188.606C54.8051 187.44 53.9643 186.254 53.1527 185.048C52.3412 183.842 51.5599 182.616 50.809 181.372C50.058 180.127 49.3382 178.865 48.6496 177.586C47.961 176.306 47.3045 175.01 46.6799 173.699C46.0554 172.387 45.4636 171.061 44.9046 169.721C44.3456 168.38 43.82 167.027 43.3279 165.661C42.8358 164.295 42.3777 162.917 41.9537 161.529C41.5297 160.141 41.1402 158.743 40.7852 157.335C40.4303 155.928 40.1104 154.513 39.8254 153.09C39.5404 151.667 39.2908 150.237 39.0764 148.802C38.8621 147.367 38.6833 145.927 38.5401 144.484C38.397 143.04 38.2895 141.593 38.2179 140.144C38.1462 138.695 38.1104 137.245 38.1104 135.794C38.1104 134.343 38.1462 132.893 38.2179 131.444C38.2895 129.995 38.397 128.548 38.5401 127.104C38.6833 125.66 38.8621 124.221 39.0764 122.785C39.2908 121.35 39.5404 119.921 39.8254 118.498C40.1104 117.075 40.4303 115.66 40.7852 114.252C41.1402 112.845 41.5297 111.447 41.9537 110.059C42.3777 108.67 42.8358 107.293 43.3279 105.927C43.82 104.561 44.3456 103.207 44.9046 101.867C45.4636 100.526 46.0554 99.2005 46.6799 97.8889C47.3045 96.5773 47.961 95.2817 48.6496 94.0021C49.3382 92.7225 50.058 91.4605 50.809 90.216C51.5599 88.9715 52.3412 87.746 53.1527 86.5396C53.9643 85.3333 54.8051 84.1474 55.6753 82.982C56.5455 81.8166 57.4439 80.6731 58.3706 79.5516C59.2973 78.43 60.2511 77.3317 61.2321 76.2567C62.213 75.1816 63.22 74.1311 64.2529 73.1052C65.2858 72.0792 66.3434 71.079 67.4258 70.1047C68.5081 69.1303 69.6138 68.1829 70.743 67.2625C71.8722 66.342 73.0234 65.4496 74.1967 64.5853C75.37 63.721 76.5639 62.8858 77.7785 62.0797C78.993 61.2737 80.2268 60.4977 81.4797 59.7518C82.7326 59.0059 84.0032 58.2909 85.2915 57.607C86.5797 56.923 87.8841 56.2709 89.2046 55.6505C90.5251 55.0302 91.8601 54.4424 93.2097 53.8871C94.5592 53.3319 95.9217 52.8099 97.297 52.3211C98.6724 51.8323 100.059 51.3773 101.457 50.9561C102.855 50.5349 104.262 50.1481 105.679 49.7956C107.096 49.443 108.521 49.1252 109.954 48.8422C111.386 48.5591 112.825 48.3111 114.27 48.0982C115.715 47.8853 117.164 47.7078 118.618 47.5656C120.072 47.4233 121.528 47.3166 122.987 47.2455C124.446 47.1743 125.906 47.1387 127.367 47.1387C128.827 47.1387 130.287 47.1743 131.746 47.2455C133.205 47.3166 134.661 47.4233 136.115 47.5656C137.569 47.7078 139.018 47.8853 140.463 48.0982C141.908 48.3111 143.347 48.5591 144.78 48.8422C146.212 49.1252 147.637 49.443 149.054 49.7956C150.471 50.1481 151.878 50.5349 153.276 50.9561C154.674 51.3773 156.061 51.8323 157.436 52.3211C158.811 52.8099 160.174 53.3319 161.523 53.8871C162.873 54.4424 164.208 55.0302 165.528 55.6505C166.849 56.2709 168.153 56.923 169.442 57.607C170.73 58.2909 172 59.0059 173.253 59.7518C174.506 60.4977 175.74 61.2737 176.955 62.0797C178.169 62.8858 179.363 63.721 180.536 64.5853C181.71 65.4496 182.861 66.342 183.99 67.2625C185.119 68.1829 186.225 69.1303 187.307 70.1047C188.39 71.079 189.447 72.0792 190.48 73.1052C191.513 74.1311 192.52 75.1816 193.501 76.2567C194.482 77.3317 195.436 78.43 196.362 79.5516C197.289 80.6731 198.188 81.8166 199.058 82.982C199.928 84.1474 200.769 85.3333 201.58 86.5396C202.392 87.746 203.173 88.9715 203.924 90.216C204.675 91.4605 205.395 92.7225 206.083 94.0021C206.772 95.2817 207.429 96.5773 208.053 97.8889C208.678 99.2005 209.269 100.526 209.828 101.867C210.387 103.207 210.913 104.561 211.405 105.927C211.897 107.293 212.355 108.67 212.779 110.059C213.203 111.447 213.593 112.845 213.948 114.252C214.303 115.66 214.623 117.075 214.908 118.498C215.193 119.921 215.442 121.35 215.657 122.785C215.871 124.221 216.05 125.66 216.193 127.104C216.336 128.548 216.444 129.995 216.515 131.444C216.587 132.893 216.623 134.343 216.623 135.794Z" fill="#F2F4F7"/>
<path d="M195.736 124.223V178.468C195.736 189.738 186.57 198.904 175.15 198.904H79.8834C68.6137 198.904 59.4476 189.888 59.2974 178.619C59.2974 178.468 59.2974 178.468 59.2974 178.318V124.223C59.2974 124.073 59.2974 124.073 59.2974 123.923C59.2974 123.622 59.2974 123.322 59.4476 123.021C59.5979 122.571 59.7482 122.27 59.8984 121.819L85.4431 72.9838C86.3447 71.0303 88.2981 69.9785 90.4018 69.9785H164.481C166.585 69.9785 168.388 71.0303 169.44 72.9838L194.985 121.819C195.135 122.12 195.285 122.571 195.436 123.021C195.736 123.322 195.736 123.773 195.736 124.223Z" fill="#CFD5DD"/>
<g filter="url(#filter0_d_2860_20370)">
<path d="M195.736 124.224V184.028C195.736 192.293 189.125 198.904 180.71 198.904H74.3237C66.0592 198.904 59.2974 192.293 59.2974 184.028V123.923C59.2974 123.623 59.2974 123.322 59.4476 123.021H93.7076C98.8165 123.021 103.024 127.079 103.024 132.338C103.024 134.892 104.076 137.296 105.729 138.949C107.532 140.753 109.635 141.654 112.34 141.654H142.844C147.953 141.654 152.16 137.597 152.16 132.338C152.16 129.783 153.212 127.379 154.865 125.726C156.668 123.923 158.771 123.021 161.326 123.021H195.436C195.736 123.322 195.736 123.773 195.736 124.224Z" fill="url(#paint0_linear_2860_20370)"/>
</g>
<path d="M214.341 93.4197C217.743 93.4197 220.502 90.6549 220.502 87.2589C220.502 83.863 217.743 81.0981 214.341 81.0981C210.938 81.0981 208.181 83.863 208.181 87.2589C208.181 90.6549 210.938 93.4197 214.341 93.4197Z" fill="#F2F4F7"/>
<path d="M208.181 73.4345C210.504 73.4345 212.388 71.5562 212.388 69.2271C212.388 66.8981 210.504 65.0198 208.181 65.0198C205.856 65.0198 203.974 66.8981 203.974 69.2271C203.974 71.5562 205.856 73.4345 208.181 73.4345Z" fill="#F2F4F7"/>
<path d="M37.7826 87.2587C40.1056 87.2587 41.9899 85.3804 41.9899 83.0514C41.9899 80.7223 40.1056 78.844 37.7826 78.844C35.458 78.844 33.5752 80.7223 33.5752 83.0514C33.5752 85.3804 35.458 87.2587 37.7826 87.2587Z" fill="#F2F4F7"/>
<path d="M36.1298 172.007C36.1298 172.135 36.1267 172.263 36.1204 172.391C36.1141 172.518 36.1047 172.646 36.0922 172.773C36.0796 172.9 36.064 173.027 36.0452 173.154C36.0264 173.28 36.0046 173.406 35.9796 173.532C35.9547 173.657 35.9267 173.782 35.8956 173.906C35.8646 174.03 35.8305 174.153 35.7933 174.275C35.7562 174.398 35.7161 174.519 35.673 174.64C35.6299 174.76 35.5839 174.879 35.535 174.997C35.4861 175.116 35.4343 175.232 35.3796 175.348C35.3249 175.464 35.2674 175.578 35.2072 175.691C35.1469 175.803 35.0839 175.915 35.0181 176.024C34.9524 176.134 34.884 176.242 34.8129 176.348C34.7419 176.455 34.6683 176.559 34.5921 176.662C34.5159 176.765 34.4373 176.865 34.3562 176.964C34.275 177.063 34.1915 177.16 34.1057 177.255C34.0198 177.349 33.9316 177.442 33.8412 177.532C33.7508 177.623 33.6582 177.711 33.5635 177.797C33.4687 177.883 33.3719 177.966 33.2731 178.047C33.1742 178.128 33.0734 178.207 32.9707 178.283C32.868 178.359 32.7635 178.433 32.6572 178.504C32.5508 178.575 32.4428 178.644 32.3331 178.709C32.2235 178.775 32.1122 178.838 31.9995 178.898C31.8867 178.959 31.7725 179.016 31.6569 179.071C31.5413 179.125 31.4244 179.177 31.3063 179.226C31.1881 179.275 31.0689 179.321 30.9485 179.364C30.8281 179.407 30.7067 179.447 30.5843 179.484C30.4619 179.522 30.3387 179.556 30.2147 179.587C30.0906 179.618 29.9659 179.646 29.8405 179.671C29.7151 179.696 29.5891 179.718 29.4626 179.736C29.3361 179.755 29.2092 179.771 29.082 179.783C28.9547 179.796 28.8272 179.805 28.6995 179.812C28.5718 179.818 28.444 179.821 28.3161 179.821C28.1882 179.821 28.0604 179.818 27.9327 179.812C27.805 179.805 27.6775 179.796 27.5502 179.783C27.423 179.771 27.2961 179.755 27.1696 179.736C27.0431 179.718 26.9172 179.696 26.7917 179.671C26.6663 179.646 26.5416 179.618 26.4175 179.587C26.2935 179.556 26.1703 179.522 26.0479 179.484C25.9256 179.447 25.8042 179.407 25.6838 179.364C25.5634 179.321 25.4441 179.275 25.326 179.226C25.2078 179.177 25.0909 179.125 24.9753 179.071C24.8597 179.016 24.7456 178.959 24.6328 178.898C24.52 178.838 24.4088 178.775 24.2991 178.709C24.1894 178.644 24.0814 178.575 23.9751 178.504C23.8687 178.433 23.7642 178.359 23.6615 178.283C23.5588 178.207 23.458 178.128 23.3592 178.047C23.2603 177.966 23.1635 177.883 23.0688 177.797C22.974 177.711 22.8814 177.623 22.791 177.532C22.7006 177.442 22.6124 177.349 22.5266 177.255C22.4407 177.16 22.3572 177.063 22.2761 176.964C22.1949 176.865 22.1163 176.765 22.0401 176.662C21.9639 176.559 21.8903 176.455 21.8193 176.348C21.7482 176.242 21.6798 176.134 21.6141 176.024C21.5484 175.915 21.4854 175.803 21.4251 175.691C21.3648 175.578 21.3073 175.464 21.2526 175.348C21.198 175.232 21.1462 175.116 21.0972 174.997C21.0483 174.879 21.0023 174.76 20.9592 174.64C20.9161 174.519 20.876 174.398 20.8389 174.275C20.8018 174.153 20.7677 174.03 20.7366 173.906C20.7055 173.782 20.6775 173.657 20.6526 173.532C20.6276 173.406 20.6058 173.28 20.587 173.154C20.5682 173.027 20.5526 172.9 20.5401 172.773C20.5275 172.646 20.5181 172.518 20.5119 172.391C20.5056 172.263 20.5024 172.135 20.5024 172.007C20.5024 171.879 20.5056 171.752 20.5119 171.624C20.5181 171.496 20.5275 171.369 20.5401 171.241C20.5526 171.114 20.5682 170.987 20.587 170.861C20.6058 170.734 20.6276 170.608 20.6526 170.483C20.6775 170.357 20.7055 170.233 20.7366 170.109C20.7677 169.985 20.8018 169.861 20.8389 169.739C20.876 169.617 20.9161 169.495 20.9592 169.375C21.0023 169.255 21.0483 169.135 21.0972 169.017C21.1462 168.899 21.198 168.782 21.2526 168.667C21.3073 168.551 21.3648 168.437 21.4251 168.324C21.4854 168.211 21.5484 168.1 21.6141 167.99C21.6798 167.881 21.7482 167.773 21.8193 167.666C21.8903 167.56 21.9639 167.455 22.0401 167.353C22.1163 167.25 22.1949 167.149 22.2761 167.05C22.3572 166.951 22.4407 166.855 22.5266 166.76C22.6124 166.665 22.7006 166.573 22.791 166.482C22.8814 166.392 22.974 166.304 23.0688 166.218C23.1635 166.132 23.2603 166.048 23.3592 165.967C23.458 165.886 23.5588 165.807 23.6615 165.731C23.7642 165.655 23.8687 165.581 23.9751 165.51C24.0814 165.439 24.1894 165.371 24.2991 165.305C24.4088 165.24 24.52 165.177 24.6328 165.116C24.7456 165.056 24.8597 164.998 24.9753 164.944C25.0909 164.889 25.2078 164.837 25.326 164.788C25.4441 164.739 25.5634 164.693 25.6838 164.65C25.8042 164.607 25.9256 164.567 26.0479 164.53C26.1703 164.493 26.2935 164.459 26.4175 164.428C26.5416 164.397 26.6663 164.369 26.7917 164.344C26.9172 164.319 27.0431 164.297 27.1696 164.278C27.2961 164.259 27.423 164.244 27.5502 164.231C27.6775 164.219 27.805 164.209 27.9327 164.203C28.0604 164.197 28.1882 164.194 28.3161 164.194C28.444 164.194 28.5718 164.197 28.6995 164.203C28.8272 164.209 28.9547 164.219 29.082 164.231C29.2092 164.244 29.3361 164.259 29.4626 164.278C29.5891 164.297 29.7151 164.319 29.8405 164.344C29.9659 164.369 30.0906 164.397 30.2147 164.428C30.3387 164.459 30.4619 164.493 30.5843 164.53C30.7067 164.567 30.8281 164.607 30.9485 164.65C31.0689 164.693 31.1881 164.739 31.3063 164.788C31.4244 164.837 31.5413 164.889 31.6569 164.944C31.7725 164.998 31.8867 165.056 31.9995 165.116C32.1122 165.177 32.2235 165.24 32.3331 165.305C32.4428 165.371 32.5508 165.439 32.6572 165.51C32.7635 165.581 32.868 165.655 32.9707 165.731C33.0734 165.807 33.1742 165.886 33.2731 165.967C33.3719 166.048 33.4687 166.132 33.5635 166.218C33.6582 166.304 33.7508 166.392 33.8412 166.482C33.9316 166.573 34.0198 166.665 34.1057 166.76C34.1915 166.855 34.275 166.951 34.3562 167.05C34.4373 167.149 34.5159 167.25 34.5921 167.353C34.6683 167.455 34.7419 167.56 34.8129 167.666C34.884 167.773 34.9524 167.881 35.0181 167.99C35.0839 168.1 35.1469 168.211 35.2072 168.324C35.2674 168.437 35.3249 168.551 35.3796 168.667C35.4343 168.782 35.4861 168.899 35.535 169.017C35.5839 169.135 35.6299 169.255 35.673 169.375C35.7161 169.495 35.7562 169.617 35.7933 169.739C35.8305 169.861 35.8646 169.985 35.8956 170.109C35.9267 170.233 35.9547 170.357 35.9796 170.483C36.0046 170.608 36.0264 170.734 36.0452 170.861C36.064 170.987 36.0796 171.114 36.0922 171.241C36.1047 171.369 36.1141 171.496 36.1204 171.624C36.1267 171.752 36.1298 171.879 36.1298 172.007Z" fill="#F2F4F7"/>
<path fill-rule="evenodd" clip-rule="evenodd" d="M166.91 55.0201L166.609 51.7634L163.616 52.0406L163.918 55.2972L166.91 55.0201ZM167.99 67.4221C167.876 65.7531 167.705 63.661 167.479 61.1456L164.485 61.4156C164.71 63.9092 164.879 65.9795 164.991 67.6266L167.99 67.4221ZM168.102 79.7228C168.236 77.758 168.29 75.7352 168.263 73.6542L165.258 73.6935C165.284 75.6929 165.232 77.6344 165.104 79.5178L168.102 79.7228ZM166.307 92.2483C166.753 90.0276 167.116 87.9801 167.396 86.1058L164.423 85.6625C164.151 87.4868 163.797 89.4847 163.361 91.6562L166.307 92.2483ZM143.238 88.8226C141.398 87.3313 139.228 86.4638 136.727 86.22L136.436 89.2111C138.337 89.3964 139.974 90.0452 141.346 91.1574L143.238 88.8226ZM129.113 87.963C127.4 89.1971 126.093 90.8473 125.192 92.9135L127.946 94.1149C128.621 92.5681 129.583 91.3396 130.831 90.4293C130.97 90.343 131.113 90.2609 131.258 90.1829L129.838 87.5345C129.617 87.6527 129.402 87.7779 129.192 87.9102L129.152 87.9354L129.113 87.963ZM149.216 100.696C149.069 98.3089 148.51 96.1173 147.537 94.1206L144.835 95.4372C145.634 97.076 146.094 98.89 146.216 100.879L149.216 100.696ZM164.777 98.856C164.824 98.7128 164.859 98.6105 164.879 98.5489L162.028 97.5988C162.005 97.6669 161.971 97.7695 161.925 97.9067C161.111 100.353 160.454 102.16 159.956 103.325L162.72 104.506C163.25 103.265 163.936 101.381 164.777 98.856ZM124.393 101.599C124.679 103.189 125.161 104.727 125.839 106.214L128.574 104.968C127.995 103.698 127.585 102.386 127.345 101.031L127.337 100.987L127.327 100.944C127.212 100.466 127.133 99.9755 127.087 99.4725L124.094 99.7416C124.151 100.374 124.251 100.994 124.393 101.599ZM146.443 113.477C147.408 111.407 148.127 109.345 148.602 107.29L145.674 106.614C145.247 108.464 144.595 110.328 143.719 112.207L146.443 113.477ZM158.753 110.919C158.955 110.703 159.153 110.479 159.346 110.248L157.04 108.32C156.876 108.517 156.708 108.707 156.536 108.889L156.509 108.918L156.483 108.949C155.464 110.155 154.225 111.199 152.767 112.08L154.322 114.652C156.049 113.608 157.526 112.363 158.753 110.919ZM129.594 111.754C131.181 113.415 132.979 114.745 134.988 115.745L136.327 113.054C134.632 112.211 133.112 111.085 131.766 109.677L129.594 111.754ZM141.445 117.595C143.648 117.811 145.875 117.66 148.125 117.144L147.452 114.215C145.521 114.658 143.616 114.788 141.738 114.604L141.445 117.595ZM139.926 124.336C141.143 122.701 142.26 121.027 143.275 119.314L140.69 117.781C139.728 119.404 138.67 120.991 137.515 122.542L139.926 124.336ZM132.466 134.086C133.657 132.448 134.931 130.76 136.287 129.022L133.918 127.173C132.541 128.938 131.247 130.653 130.036 132.319L132.466 134.086ZM127.111 141.804L128.952 139.077L126.461 137.395L124.62 140.122L127.111 141.804Z" fill="#A0ABBA"/>
<path fill-rule="evenodd" clip-rule="evenodd" d="M172.777 47.5352L172.786 47.5204C173.117 46.9867 173.086 46.317 172.706 45.8145L161.693 31.0911C161.356 30.6418 160.786 30.4353 160.241 30.5633C159.696 30.6913 159.277 31.1297 159.175 31.6821L155.86 49.7661C155.747 50.3935 156.024 51.0108 156.568 51.3392C157.114 51.6688 157.788 51.6265 158.289 51.2337L162.162 48.1966C162.315 48.0766 162.474 47.9662 162.638 47.8653L161.201 35.3647L165.441 47.1044C165.75 47.1112 166.06 47.146 166.368 47.2096L171.188 48.2066C171.812 48.3353 172.435 48.0713 172.777 47.5352Z" fill="#A0ABBA"/>
</g>
<defs>
<filter id="filter0_d_2860_20370" x="26.2395" y="106.493" width="202.555" height="141.999" filterUnits="userSpaceOnUse" color-interpolation-filters="sRGB">
<feFlood flood-opacity="0" result="BackgroundImageFix"/>
<feColorMatrix in="SourceAlpha" type="matrix" values="0 0 0 0 0 0 0 0 0 0 0 0 0 0 0 0 0 0 127 0" result="hardAlpha"/>
<feOffset dy="16.5289"/>
<feGaussianBlur stdDeviation="16.5289"/>
<feColorMatrix type="matrix" values="0 0 0 0 0.396078 0 0 0 0 0.478431 0 0 0 0 0.576471 0 0 0 0.27 0"/>
<feBlend mode="normal" in2="BackgroundImageFix" result="effect1_dropShadow_2860_20370"/>
<feBlend mode="normal" in="SourceGraphic" in2="effect1_dropShadow_2860_20370" result="shape"/>
</filter>
<linearGradient id="paint0_linear_2860_20370" x1="127.474" y1="121.264" x2="127.474" y2="199.721" gradientUnits="userSpaceOnUse">
<stop stop-color="#FDFEFF"/>
<stop offset="0.9964" stop-color="#ECF0F5"/>
</linearGradient>
</defs>
</svg>
