<svg xmlns="http://www.w3.org/2000/svg" xmlns:xlink="http://www.w3.org/1999/xlink" fill="none" version="1.1" width="16" height="16" viewBox="0 0 16 16"><g><g></g><g><g><line x1="0.8518218994140625" y1="6.960861921310425" x2="15.166634559631348" y2="6.960861921310425" fill-opacity="0" stroke-opacity="1" stroke="#2D2D2D" fill="none" stroke-width="1"/></g><g><path d="M13.280540649414062,14.672824421310425L2.6882306494140624,14.672824421310425C1.6467896494140626,14.672824421310425,0.8010406494140625,13.828424421310425,0.8010406494140625,12.786924421310426L0.8010406494140625,2.8857544213104247C0.8010406494140625,1.8443004213104248,1.6467896494140626,0.9999244213104248,2.6882306494140624,0.9999244213104248L4.947650649414062,0.9999244213104248C5.421150649414063,0.9999244213104248,5.878230649414062,1.1778344213104248,6.225840649414063,1.4980704213104248L6.570720649414063,1.8169254213104247C6.918310649414063,2.137164421310425,7.375400649414063,2.315084421310425,7.848910649414062,2.315084421310425L13.280540649414062,2.315084421310425C14.323340649414062,2.315084421310425,15.167740649414062,3.160814421310425,15.167740649414062,4.202254421310425L15.167740649414062,12.786924421310426C15.167740649414062,13.828424421310425,14.323340649414062,14.672824421310425,13.280540649414062,14.672824421310425ZM13.280540649414062,13.672824421310425Q13.648440649414063,13.672824421310425,13.908240649414063,13.413124421310425Q14.167740649414062,13.153824421310425,14.167740649414062,12.786924421310426L14.167740649414062,4.202254421310425Q14.167740649414062,3.835004421310425,13.907940649414062,3.575054421310425Q13.648040649414062,3.315084421310425,13.280540649414062,3.315084421310425L7.848910649414062,3.315084421310425Q6.721000649414062,3.315084421310425,5.891850649414063,2.551184421310425L5.548290649414063,2.233544421310425Q5.294700649414063,1.9999244213104248,4.947650649414062,1.9999244213104248L2.6882306494140624,1.9999244213104248Q2.3209406494140623,1.9999244213104248,2.0608506494140624,2.259754421310425Q1.8010406494140625,2.5193044213104248,1.8010406494140625,2.8857544213104247L1.8010406494140625,12.786924421310426Q1.8010406494140625,13.153424421310424,2.0608506494140624,13.412924421310425Q2.3209406494140623,13.672824421310425,2.6882306494140624,13.672824421310425L13.280540649414062,13.672824421310425Z" fill-rule="evenodd" fill="#2D2D2D" fill-opacity="1"/></g></g></g></svg>