<svg xmlns="http://www.w3.org/2000/svg" xmlns:xlink="http://www.w3.org/1999/xlink" fill="none" version="1.1" width="30" height="30" viewBox="0 0 30 30"><defs><linearGradient x1="0.2088623046875" y1="0" x2="0.3850807523622622" y2="0.9706480228954052" id="master_svg0_17_6124"><stop offset="0%" stop-color="#FFFFFF" stop-opacity="1"/><stop offset="100%" stop-color="#FFFFFF" stop-opacity="0.6000000238418579"/></linearGradient><linearGradient x1="0.2088623046875" y1="0" x2="0.3850807523622622" y2="0.9706480228954052" id="master_svg1_17_6124"><stop offset="0%" stop-color="#FFFFFF" stop-opacity="1"/><stop offset="100%" stop-color="#FFFFFF" stop-opacity="0.6000000238418579"/></linearGradient><filter id="master_svg2_171_5865" filterUnits="objectBoundingBox" color-interpolation-filters="sRGB" x="0" y="0" width="1" height="1"><feFlood flood-opacity="0" result="BackgroundImageFix"/><feBlend mode="normal" in="SourceGraphic" in2="BackgroundImageFix" result="shape"/><feColorMatrix in="SourceAlpha" type="matrix" result="hardAlpha" values="0 0 0 0 0 0 0 0 0 0 0 0 0 0 0 0 0 0 127 0"/><feOffset dy="0.1822916716337204" dx="0"/><feGaussianBlur stdDeviation="0.25"/><feComposite in2="hardAlpha" operator="arithmetic" k2="-1" k3="1"/><feColorMatrix type="matrix" values="0 0 0 0 1 0 0 0 0 1 0 0 0 0 1 0 0 0 0.5 0"/><feBlend mode="normal" in2="shape" result="effect1_innerShadow"/></filter><linearGradient x1="0.7476187944412231" y1="-0.5487476587295532" x2="0.09398792896971254" y2="0.8037894747506446" id="master_svg3_171_6030"><stop offset="0%" stop-color="#FDD29C" stop-opacity="1"/><stop offset="97.14285731315613%" stop-color="#E89021" stop-opacity="1"/></linearGradient></defs><g><g style="opacity:0.09000000357627869;"></g><g><g><rect x="5" y="6" width="20" height="10" rx="1" fill="#BC8846" fill-opacity="1"/></g><g transform="matrix(0.9945219159126282,0.10452846437692642,-0.10452846437692642,0.9945219159126282,0.9662956970059895,-0.6450541290623732)" style="opacity:0.800000011920929;"><path d="M6.6373291015625,13.188904375L6.6373291015625,9.509686375C6.6373291015625,9.171024375,6.7865671015625,8.896484375,6.9706621015625,8.896484375L23.6373291015625,8.896484375C23.8214291015625,8.896484375,23.9706291015625,9.171024375,23.9706291015625,9.509686375L23.9706291015625,13.188904375C23.9706291015625,13.527564375,23.8214291015625,13.802104374999999,23.6373291015625,13.802104374999999L6.9706621015625,13.802104374999999C6.7865671015625,13.802104374999999,6.6373291015625,13.527564375,6.6373291015625,13.188904375Z" fill="url(#master_svg0_17_6124)" fill-opacity="1"/></g><g transform="matrix(0.9945219159126282,-0.10452847182750702,0.10452847182750702,0.9945219159126282,-1.0857424401910976,0.6988196982092632)" style="opacity:0.5;"><path d="M6.124267578125,15.0004278125L6.124267578125,11.3212098125C6.124267578125,10.9825478125,6.273505578125,10.7080078125,6.457600578125,10.7080078125L23.124267578125,10.7080078125C23.308367578125,10.7080078125,23.457567578125,10.9825478125,23.457567578125,11.3212098125L23.457567578125,15.0004278125C23.457567578125,15.3390878125,23.308367578125,15.613627812499999,23.124267578125,15.613627812499999L6.457600578125,15.613627812499999C6.273505578125,15.613627812499999,6.124267578125,15.3390878125,6.124267578125,15.0004278125Z" fill="url(#master_svg1_17_6124)" fill-opacity="1"/></g><g filter="url(#master_svg2_171_5865)"><path d="M5,23.697240615844727C5,23.864440615844728,5.149238,24.000040615844725,5.333333,24.000040615844725L24.6667,24.000040615844725C24.8508,24.000040615844725,25,23.864440615844728,25,23.697240615844727L25,13.496240615844727C25,12.943955615844727,24.5523,12.496240615844727,24,12.496240615844727L6,12.496240615844727C5.447715,12.496240615844727,5,12.943955615844727,5,13.496240615844727L5,23.697240615844727Z" fill="url(#master_svg3_171_6030)" fill-opacity="1"/></g><g><ellipse cx="15" cy="17" rx="3" ry="3" fill="#FFFFFF" fill-opacity="1"/></g><g><ellipse cx="15" cy="17" rx="2" ry="2" fill="#F2AF5A" fill-opacity="1"/></g></g></g></svg>